<?xml version="1.0" encoding="UTF-8" standalone="no"?>
<svg width="216.253mm" height="188.736mm"
 viewBox="0 0 613 535"
 xmlns="http://www.w3.org/2000/svg" xmlns:xlink="http://www.w3.org/1999/xlink"  version="1.2" baseProfile="tiny">
<title>Qt SVG Document</title>
<desc>MATLAB, The MathWorks, Inc. Version 25.2.0.3055257 R2025b Update 2</desc>
<defs>
</defs>
<g fill="none" stroke="black" stroke-width="1" fill-rule="evenodd" stroke-linecap="square" stroke-linejoin="bevel" >

<g fill="#ffffff" fill-opacity="1" stroke="none" transform="matrix(0.72,0,0,0.72,0,0)"
font-family="Sans Serif" font-size="9" font-weight="400" font-style="normal" 
>
<path vector-effect="none" fill-rule="evenodd" d="M0,0 L852,0 L852,744 L0,744 L0,0"/>
</g>

<g fill="#ffffff" fill-opacity="1" stroke="none" transform="matrix(7.2e-05,0,0,7.2e-05,0,0)"
font-family="Sans Serif" font-size="9" font-weight="400" font-style="normal" 
>
<path vector-effect="none" fill-rule="evenodd" d="M1.11e+06,560000 L1.11e+06,6.61e+06 L7.7e+06,6.61e+06 L7.7e+06,560000 L1.11e+06,560000"/>
</g>

<g fill="#212121" fill-opacity="1" stroke="#212121" stroke-opacity="1" stroke-width="0.694444" stroke-linecap="square" stroke-linejoin="round" transform="matrix(0.72,0,0,0.72,0,0)"
font-family="Sans Serif" font-size="9" font-weight="400" font-style="normal" 
>
<polyline fill="none" vector-effect="none" points="111,661 770,661 " />
<polyline fill="none" vector-effect="none" points="111,56 770,56 " />
<polyline fill="none" vector-effect="none" points="111,661 111,654.41 " />
<polyline fill="none" vector-effect="none" points="111,62.59 111,56 " />
<polyline fill="none" vector-effect="none" points="220.833,661 220.833,654.41 " />
<polyline fill="none" vector-effect="none" points="220.833,62.59 220.833,56 " />
<polyline fill="none" vector-effect="none" points="330.667,661 330.667,654.41 " />
<polyline fill="none" vector-effect="none" points="330.667,62.59 330.667,56 " />
<polyline fill="none" vector-effect="none" points="440.5,661 440.5,654.41 " />
<polyline fill="none" vector-effect="none" points="440.5,62.59 440.5,56 " />
<polyline fill="none" vector-effect="none" points="550.333,661 550.333,654.41 " />
<polyline fill="none" vector-effect="none" points="550.333,62.59 550.333,56 " />
<polyline fill="none" vector-effect="none" points="660.167,661 660.167,654.41 " />
<polyline fill="none" vector-effect="none" points="660.167,62.59 660.167,56 " />
<polyline fill="none" vector-effect="none" points="770,661 770,654.41 " />
<polyline fill="none" vector-effect="none" points="770,62.59 770,56 " />
</g>

<g fill="#212121" fill-opacity="1" stroke="#212121" stroke-opacity="1" stroke-width="1" stroke-linecap="square" stroke-linejoin="bevel" transform="matrix(0.72,0,0,0.72,77.4,488.56)"
font-family="Helvetica" font-size="13" font-weight="400" font-style="normal" 
>
<text fill="#212121" fill-opacity="1" stroke="none" xml:space="preserve" x="0" y="0" font-family="Helvetica" font-size="13" font-weight="400" font-style="normal" 
 >0</text>
</g>

<g fill="#212121" fill-opacity="1" stroke="#212121" stroke-opacity="1" stroke-width="1" stroke-linecap="square" stroke-linejoin="bevel" transform="matrix(0.72,0,0,0.72,151.08,488.56)"
font-family="Helvetica" font-size="13" font-weight="400" font-style="normal" 
>
<text fill="#212121" fill-opacity="1" stroke="none" xml:space="preserve" x="0" y="0" font-family="Helvetica" font-size="13" font-weight="400" font-style="normal" 
 >200</text>
</g>

<g fill="#212121" fill-opacity="1" stroke="#212121" stroke-opacity="1" stroke-width="1" stroke-linecap="square" stroke-linejoin="bevel" transform="matrix(0.72,0,0,0.72,230.16,488.56)"
font-family="Helvetica" font-size="13" font-weight="400" font-style="normal" 
>
<text fill="#212121" fill-opacity="1" stroke="none" xml:space="preserve" x="0" y="0" font-family="Helvetica" font-size="13" font-weight="400" font-style="normal" 
 >400</text>
</g>

<g fill="#212121" fill-opacity="1" stroke="#212121" stroke-opacity="1" stroke-width="1" stroke-linecap="square" stroke-linejoin="bevel" transform="matrix(0.72,0,0,0.72,309.24,488.56)"
font-family="Helvetica" font-size="13" font-weight="400" font-style="normal" 
>
<text fill="#212121" fill-opacity="1" stroke="none" xml:space="preserve" x="0" y="0" font-family="Helvetica" font-size="13" font-weight="400" font-style="normal" 
 >600</text>
</g>

<g fill="#212121" fill-opacity="1" stroke="#212121" stroke-opacity="1" stroke-width="1" stroke-linecap="square" stroke-linejoin="bevel" transform="matrix(0.72,0,0,0.72,388.32,488.56)"
font-family="Helvetica" font-size="13" font-weight="400" font-style="normal" 
>
<text fill="#212121" fill-opacity="1" stroke="none" xml:space="preserve" x="0" y="0" font-family="Helvetica" font-size="13" font-weight="400" font-style="normal" 
 >800</text>
</g>

<g fill="#212121" fill-opacity="1" stroke="#212121" stroke-opacity="1" stroke-width="1" stroke-linecap="square" stroke-linejoin="bevel" transform="matrix(0.72,0,0,0.72,464.88,488.56)"
font-family="Helvetica" font-size="13" font-weight="400" font-style="normal" 
>
<text fill="#212121" fill-opacity="1" stroke="none" xml:space="preserve" x="0" y="0" font-family="Helvetica" font-size="13" font-weight="400" font-style="normal" 
 >1000</text>
</g>

<g fill="#212121" fill-opacity="1" stroke="#212121" stroke-opacity="1" stroke-width="1" stroke-linecap="square" stroke-linejoin="bevel" transform="matrix(0.72,0,0,0.72,543.96,488.56)"
font-family="Helvetica" font-size="13" font-weight="400" font-style="normal" 
>
<text fill="#212121" fill-opacity="1" stroke="none" xml:space="preserve" x="0" y="0" font-family="Helvetica" font-size="13" font-weight="400" font-style="normal" 
 >1200</text>
</g>

<g fill="#212121" fill-opacity="1" stroke="#212121" stroke-opacity="1" stroke-width="0.694444" stroke-linecap="square" stroke-linejoin="round" transform="matrix(0.72,0,0,0.72,0,0)"
font-family="Helvetica" font-size="13" font-weight="400" font-style="normal" 
>
<polyline fill="none" vector-effect="none" points="111,661 111,56 " />
<polyline fill="none" vector-effect="none" points="770,661 770,56 " />
<polyline fill="none" vector-effect="none" points="111,661 117.59,661 " />
<polyline fill="none" vector-effect="none" points="763.41,661 770,661 " />
<polyline fill="none" vector-effect="none" points="111,560.167 117.59,560.167 " />
<polyline fill="none" vector-effect="none" points="763.41,560.167 770,560.167 " />
<polyline fill="none" vector-effect="none" points="111,459.333 117.59,459.333 " />
<polyline fill="none" vector-effect="none" points="763.41,459.333 770,459.333 " />
<polyline fill="none" vector-effect="none" points="111,358.5 117.59,358.5 " />
<polyline fill="none" vector-effect="none" points="763.41,358.5 770,358.5 " />
<polyline fill="none" vector-effect="none" points="111,257.667 117.59,257.667 " />
<polyline fill="none" vector-effect="none" points="763.41,257.667 770,257.667 " />
<polyline fill="none" vector-effect="none" points="111,156.833 117.59,156.833 " />
<polyline fill="none" vector-effect="none" points="763.41,156.833 770,156.833 " />
<polyline fill="none" vector-effect="none" points="111,56 117.59,56 " />
<polyline fill="none" vector-effect="none" points="763.41,56 770,56 " />
</g>

<g fill="#212121" fill-opacity="1" stroke="#212121" stroke-opacity="1" stroke-width="1" stroke-linecap="square" stroke-linejoin="bevel" transform="matrix(0.72,0,0,0.72,70.88,479.16)"
font-family="Helvetica" font-size="13" font-weight="400" font-style="normal" 
>
<text fill="#212121" fill-opacity="1" stroke="none" xml:space="preserve" x="0" y="0" font-family="Helvetica" font-size="13" font-weight="400" font-style="normal" 
 >0</text>
</g>

<g fill="#212121" fill-opacity="1" stroke="#212121" stroke-opacity="1" stroke-width="1" stroke-linecap="square" stroke-linejoin="bevel" transform="matrix(0.72,0,0,0.72,62.96,406.56)"
font-family="Helvetica" font-size="13" font-weight="400" font-style="normal" 
>
<text fill="#212121" fill-opacity="1" stroke="none" xml:space="preserve" x="0" y="0" font-family="Helvetica" font-size="13" font-weight="400" font-style="normal" 
 >0.2</text>
</g>

<g fill="#212121" fill-opacity="1" stroke="#212121" stroke-opacity="1" stroke-width="1" stroke-linecap="square" stroke-linejoin="bevel" transform="matrix(0.72,0,0,0.72,62.96,333.96)"
font-family="Helvetica" font-size="13" font-weight="400" font-style="normal" 
>
<text fill="#212121" fill-opacity="1" stroke="none" xml:space="preserve" x="0" y="0" font-family="Helvetica" font-size="13" font-weight="400" font-style="normal" 
 >0.4</text>
</g>

<g fill="#212121" fill-opacity="1" stroke="#212121" stroke-opacity="1" stroke-width="1" stroke-linecap="square" stroke-linejoin="bevel" transform="matrix(0.72,0,0,0.72,62.96,261.36)"
font-family="Helvetica" font-size="13" font-weight="400" font-style="normal" 
>
<text fill="#212121" fill-opacity="1" stroke="none" xml:space="preserve" x="0" y="0" font-family="Helvetica" font-size="13" font-weight="400" font-style="normal" 
 >0.6</text>
</g>

<g fill="#212121" fill-opacity="1" stroke="#212121" stroke-opacity="1" stroke-width="1" stroke-linecap="square" stroke-linejoin="bevel" transform="matrix(0.72,0,0,0.72,62.96,188.76)"
font-family="Helvetica" font-size="13" font-weight="400" font-style="normal" 
>
<text fill="#212121" fill-opacity="1" stroke="none" xml:space="preserve" x="0" y="0" font-family="Helvetica" font-size="13" font-weight="400" font-style="normal" 
 >0.8</text>
</g>

<g fill="#212121" fill-opacity="1" stroke="#212121" stroke-opacity="1" stroke-width="1" stroke-linecap="square" stroke-linejoin="bevel" transform="matrix(0.72,0,0,0.72,70.88,116.16)"
font-family="Helvetica" font-size="13" font-weight="400" font-style="normal" 
>
<text fill="#212121" fill-opacity="1" stroke="none" xml:space="preserve" x="0" y="0" font-family="Helvetica" font-size="13" font-weight="400" font-style="normal" 
 >1</text>
</g>

<g fill="#212121" fill-opacity="1" stroke="#212121" stroke-opacity="1" stroke-width="1" stroke-linecap="square" stroke-linejoin="bevel" transform="matrix(0.72,0,0,0.72,62.96,43.56)"
font-family="Helvetica" font-size="13" font-weight="400" font-style="normal" 
>
<text fill="#212121" fill-opacity="1" stroke="none" xml:space="preserve" x="0" y="0" font-family="Helvetica" font-size="13" font-weight="400" font-style="normal" 
 >1.2</text>
</g>

<g fill="none" stroke="#1171be" stroke-opacity="1" stroke-width="4.16667" stroke-linecap="butt" stroke-linejoin="round" transform="matrix(0.72,0,0,0.72,0,0)"
font-family="Helvetica" font-size="13" font-weight="400" font-style="normal" 
>
<polyline fill="none" vector-effect="none" points="111.549,172.402 112.098,172.359 112.647,172.23 113.197,172.015 113.746,171.716 114.295,171.334 114.844,170.872 115.393,170.331 115.942,169.715 116.492,169.027 117.041,168.271 117.59,167.45 118.139,166.57 118.688,165.634 119.238,164.649 119.787,163.618 120.336,162.549 120.885,161.445 121.434,160.315 121.983,159.162 122.533,157.995 123.082,156.819 123.631,155.64 124.18,154.464 124.729,153.299 125.278,152.151 125.827,151.025 126.377,149.929 126.926,148.867 127.475,147.846 128.024,146.872 128.573,145.949 129.122,145.083 129.672,144.279 130.221,143.541 130.77,142.873 131.319,142.28 131.868,141.764 132.417,141.329 132.967,140.978 133.516,140.711 134.065,140.532 134.614,140.44 135.163,140.438 135.712,140.525 136.262,140.702 136.811,140.967 137.36,141.319 137.909,141.757 138.458,142.278 139.008,142.881 139.557,143.562 140.106,144.318 140.655,145.145 141.204,146.038 141.753,146.994 142.303,148.007 142.852,149.073 143.401,150.184 143.95,151.337 144.499,152.524 145.048,153.74 145.598,154.978 146.147,156.231 146.696,157.493 147.245,158.756 147.794,160.015 148.343,161.262 148.893,162.491 149.442,163.694 149.991,164.866 150.54,165.999 151.089,167.088 151.638,168.126 152.188,169.107 152.737,170.026 153.286,170.878 153.835,171.657 154.384,172.359 154.933,172.979 155.482,173.515 156.032,173.962 156.581,174.318 157.13,174.579 157.679,174.745 158.228,174.814 158.777,174.784 159.327,174.656 159.876,174.428 160.425,174.103 160.974,173.68 161.523,173.163 162.072,172.552 162.622,171.85 163.171,171.061 163.72,170.189 164.269,169.237 164.818,168.209 165.367,167.112 165.917,165.951 166.466,164.73 167.015,163.457 167.564,162.138 168.113,160.779 168.663,159.388 169.212,157.972 169.761,156.538 170.31,155.095 170.859,153.649 171.408,152.208 171.958,150.781 172.507,149.376 173.056,147.999 173.605,146.659 174.154,145.363 174.703,144.119 175.253,142.934 175.802,141.815 176.351,140.769 176.9,139.801 177.449,138.919 177.998,138.127 178.548,137.43 179.097,136.835 179.646,136.344 180.195,135.961 180.744,135.69 181.293,135.534 181.842,135.494 182.392,135.572 182.941,135.769 183.49,136.085 184.039,136.52 184.588,137.072 185.137,137.74 185.687,138.523 186.236,139.416 186.785,140.417 187.334,141.521 187.883,142.724 188.432,144.021 188.982,145.404 189.531,146.869 190.08,148.409 190.629,150.015 191.178,151.681 191.727,153.398 192.277,155.156 192.826,156.949 193.375,158.765 193.924,160.596 194.473,162.432 195.023,164.263 195.572,166.079 196.121,167.87 196.67,169.626 197.219,171.337 197.768,172.993 198.318,174.583 198.867,176.099 199.416,177.531 199.965,178.869 200.514,180.105 201.063,181.231 201.613,182.237 202.162,183.118 202.711,183.865 203.26,184.472 203.809,184.934 204.358,185.245 204.908,185.4 205.457,185.396 206.006,185.23 206.555,184.899 207.104,184.402 207.653,183.738 208.202,182.907 208.752,181.91 209.301,180.749 209.85,179.427 210.399,177.947 210.948,176.314 211.497,174.533 212.047,172.611 212.596,170.554 213.145,168.37 213.694,166.069 214.243,163.659 214.792,161.152 215.342,158.558 215.891,155.889 216.44,153.157 216.989,150.376 217.538,147.56 218.087,144.723 218.637,141.879 219.186,139.044 219.735,136.233 220.284,133.464 220.833,130.751 221.383,128.112 221.932,125.563 222.481,123.122 223.03,120.805 223.579,118.628 224.128,116.61 224.678,114.766 225.227,113.114 225.776,111.668 226.325,110.446 226.874,109.463 227.423,108.733 227.973,108.271 228.522,108.092 229.071,108.208 229.62,108.633 230.169,109.377 230.718,110.453 231.268,111.87 231.817,113.637 232.366,115.764 232.915,118.257 233.464,121.123 234.013,124.368 234.563,127.995 235.112,132.009 235.661,136.41 236.21,141.201 236.759,146.381 237.308,151.949 237.857,157.902 238.407,164.237 238.956,170.949 239.505,178.032 240.054,185.48 240.603,193.283 241.152,201.434 241.702,209.921 242.251,218.734 242.8,227.86 243.349,237.286 243.898,246.998 244.447,256.981 244.997,267.218 245.546,277.694 246.095,288.391 246.644,299.29 247.193,310.373 247.742,321.621 248.292,333.014 248.841,344.532 249.39,356.154 249.939,367.86 250.488,379.628 251.038,391.438 251.587,403.267 252.136,415.095 252.685,426.899 253.234,438.66 253.783,450.356 254.333,461.966 254.882,473.469 255.431,484.846 255.98,496.077 256.529,507.143 257.078,518.025 257.628,528.705 258.177,539.167 258.726,549.392 259.275,559.367 259.824,569.075 260.373,578.502 260.922,587.636 261.472,596.464 262.021,604.976 262.57,613.159 263.119,621.006 263.668,628.508 264.217,635.659 264.767,642.451 265.316,648.88 265.865,654.942 266.414,660.635 266.963,656.044 267.513,651.094 268.062,646.516 268.611,642.308 269.16,638.467 269.709,634.991 270.258,631.873 270.807,629.109 271.357,626.692 271.906,624.615 272.455,622.87 273.004,621.447 273.553,620.336 274.103,619.528 274.652,619.011 275.201,618.773 275.75,618.801 276.299,619.083 276.848,619.606 277.397,620.354 277.947,621.315 278.496,622.473 279.045,623.814 279.594,625.322 280.143,626.984 280.693,628.783 281.242,630.704 281.791,632.733 282.34,634.854 282.889,637.052 283.438,639.313 283.987,641.622 284.537,643.965 285.086,646.328 285.635,648.699 286.184,651.063 286.733,653.409 287.283,655.724 287.832,657.998 288.381,660.218 288.93,659.624 289.479,657.539 290.028,655.535 290.578,653.621 291.127,651.805 291.676,650.092 292.225,648.49 292.774,647.003 293.323,645.636 293.872,644.394 294.422,643.279 294.971,642.294 295.52,641.44 296.069,640.719 296.618,640.13 297.168,639.674 297.717,639.35 298.266,639.155 298.815,639.088 299.364,639.145 299.913,639.324 300.462,639.619 301.012,640.028 301.561,640.544 302.11,641.163 302.659,641.878 303.208,642.684 303.758,643.574 304.307,644.542 304.856,645.58 305.405,646.681 305.954,647.838 306.503,649.043 307.052,650.289 307.602,651.569 308.151,652.874 308.7,654.198 309.249,655.531 309.798,656.869 310.348,658.202 310.897,659.524 311.446,660.827 311.995,659.893 312.544,658.645 313.093,657.434 313.642,656.266 314.192,655.147 314.741,654.081 315.29,653.073 315.839,652.128 316.388,651.249 316.938,650.44 317.487,649.704 318.036,649.043 318.585,648.461 319.134,647.958 319.683,647.535 320.233,647.194 320.782,646.935 321.331,646.759 321.88,646.663 322.429,646.648 322.978,646.713 323.527,646.854 324.077,647.072 324.626,647.362 325.175,647.723 325.724,648.15 326.273,648.642 326.823,649.193 327.372,649.801 327.921,650.46 328.47,651.167 329.019,651.917 329.568,652.705 330.117,653.526 330.667,654.376 331.216,655.25 331.765,656.141 332.314,657.046 332.863,657.96 333.413,658.876 333.962,659.791 334.511,660.698 335.06,660.405 335.609,659.525 336.158,658.666 336.707,657.832 337.257,657.026 337.806,656.254 338.355,655.519 338.904,654.824 339.453,654.172 340.003,653.567 340.552,653.01 341.101,652.505 341.65,652.053 342.199,651.656 342.748,651.315 343.297,651.032 343.847,650.807 344.396,650.641 344.945,650.533 345.494,650.484 346.043,650.494 346.592,650.56 347.142,650.682 347.691,650.86 348.24,651.09 348.789,651.372 349.338,651.703 349.888,652.08 350.437,652.502 350.986,652.964 351.535,653.465 352.084,654.001 352.633,654.569 353.182,655.165 353.732,655.785 354.281,656.427 354.83,657.086 355.379,657.759 355.928,658.442 356.478,659.13 357.027,659.821 357.576,660.511 358.125,660.805 358.674,660.13 359.223,659.467 359.772,658.82 360.322,658.192 360.871,657.586 361.42,657.006 361.969,656.453 362.518,655.932 363.068,655.444 363.617,654.991 364.166,654.576 364.715,654.2 365.264,653.866 365.813,653.574 366.362,653.325 366.912,653.121 367.461,652.962 368.01,652.848 368.559,652.78 369.108,652.757 369.658,652.779 370.207,652.846 370.756,652.957 371.305,653.11 371.854,653.305 372.403,653.539 372.953,653.812 373.502,654.121 374.051,654.464 374.6,654.84 375.149,655.246 375.698,655.678 376.247,656.136 376.797,656.616 377.346,657.115 377.895,657.63 378.444,658.158 378.993,658.698 379.543,659.244 380.092,659.795 380.641,660.347 381.19,660.898 381.739,660.556 382.288,660.017 382.837,659.488 383.387,658.973 383.936,658.473 384.485,657.992 385.034,657.531 385.583,657.093 386.133,656.681 386.682,656.295 387.231,655.939 387.78,655.613 388.329,655.319 388.878,655.059 389.427,654.833 389.977,654.643 390.526,654.488 391.075,654.371 391.624,654.29 392.173,654.247 392.723,654.241 393.272,654.271 393.821,654.338 394.37,654.441 394.919,654.578 395.468,654.749 396.017,654.952 396.567,655.187 397.116,655.451 397.665,655.743 398.214,656.062 398.763,656.404 399.313,656.769 399.862,657.154 400.411,657.557 400.96,657.975 401.509,658.406 402.058,658.848 402.608,659.298 403.157,659.754 403.706,660.214 404.255,660.673 404.804,660.869 405.353,660.415 405.902,659.967 406.452,659.529 407.001,659.102 407.55,658.689 408.099,658.291 408.648,657.911 409.198,657.551 409.747,657.212 410.296,656.896 410.845,656.604 411.394,656.339 411.943,656.101 412.492,655.891 413.042,655.71 413.591,655.56 414.14,655.44 414.689,655.35 415.238,655.293 415.788,655.266 416.337,655.271 416.886,655.307 417.435,655.374 417.984,655.471 418.533,655.596 419.082,655.751 419.632,655.933 420.181,656.141 420.73,656.374 421.279,656.63 421.828,656.909 422.378,657.207 422.927,657.525 423.476,657.859 424.025,658.207 424.574,658.569 425.123,658.942 425.672,659.323 426.222,659.71 426.771,660.102 427.32,660.497 427.869,660.892 428.418,660.716 428.967,660.327 429.517,659.945 430.066,659.57 430.615,659.206 431.164,658.854 431.713,658.516 432.263,658.193 432.812,657.888 433.361,657.601 433.91,657.335 434.459,657.09 435.008,656.868 435.557,656.669 436.107,656.495 436.656,656.347 437.205,656.225 437.754,656.129 438.303,656.061 438.853,656.019 439.402,656.005 439.951,656.018 440.5,656.058 441.049,656.125 441.598,656.217 442.147,656.335 442.697,656.478 443.246,656.644 443.795,656.833 444.344,657.043 444.893,657.273 445.443,657.523 445.992,657.79 446.541,658.072 447.09,658.369 447.639,658.679 448.188,658.999 448.737,659.329 449.287,659.665 449.836,660.008 450.385,660.353 450.934,660.7 451.483,660.953 452.033,660.608 452.582,660.268 453.131,659.933 453.68,659.605 454.229,659.287 454.778,658.981 455.328,658.686 455.877,658.406 456.426,658.141 456.975,657.893 457.524,657.663 458.073,657.453 458.622,657.263 459.172,657.094 459.721,656.947 460.27,656.823 460.819,656.722 461.368,656.645 461.918,656.591 462.467,656.562 463.016,656.557 463.565,656.577 464.114,656.62 464.663,656.686 465.212,656.776 465.762,656.888 466.311,657.022 466.86,657.176 467.409,657.351 467.958,657.544 468.508,657.756 469.057,657.983 469.606,658.227 470.155,658.483 470.704,658.753 471.253,659.033 471.802,659.323 472.352,659.62 472.901,659.923 473.45,660.231 473.999,660.541 474.548,660.853 475.098,660.836 475.647,660.528 476.196,660.223 476.745,659.924 477.294,659.632 477.843,659.349 478.392,659.077 478.942,658.815 479.491,658.567 480.04,658.333 480.589,658.115 481.138,657.913 481.688,657.729 482.237,657.563 482.786,657.417 483.335,657.291 483.884,657.185 484.433,657.1 484.983,657.037 485.532,656.996 486.081,656.976 486.63,656.979 487.179,657.003 487.728,657.049 488.277,657.115 488.827,657.203 489.376,657.311 489.925,657.438 490.474,657.584 491.023,657.748 491.573,657.929 492.122,658.126 492.671,658.338 493.22,658.563 493.769,658.8 494.318,659.048 494.867,659.306 495.417,659.572 495.966,659.845 496.515,660.123 497.064,660.405 497.613,660.688 498.163,660.973 498.712,660.744 499.261,660.463 499.81,660.187 500.359,659.915 500.908,659.651 501.457,659.395 502.007,659.148 502.556,658.913 503.105,658.689 503.654,658.479 504.203,658.284 504.753,658.104 505.302,657.94 505.851,657.793 506.4,657.665 506.949,657.555 507.498,657.464 508.047,657.392 508.597,657.34 509.146,657.308 509.695,657.296 510.244,657.305 510.793,657.333 511.342,657.381 511.892,657.448 512.441,657.535 512.99,657.64 513.539,657.763 514.088,657.902 514.638,658.059 515.187,658.23 515.736,658.416 516.285,658.615 516.834,658.827 517.383,659.049 517.932,659.281 518.482,659.522 519.031,659.77 519.58,660.024 520.129,660.283 520.678,660.544 521.227,660.807 521.777,660.93 522.326,660.668 522.875,660.409 523.424,660.153 523.973,659.904 524.523,659.66 525.072,659.425 525.621,659.2 526.17,658.984 526.719,658.78 527.268,658.589 527.818,658.412 528.367,658.249 528.916,658.101 529.465,657.97 530.014,657.855 530.563,657.758 531.112,657.678 531.662,657.617 532.211,657.575 532.76,657.551 533.309,657.545 533.858,657.559 534.407,657.591 534.957,657.641 535.506,657.709 536.055,657.795 536.604,657.898 537.153,658.018 537.703,658.153 538.252,658.304 538.801,658.468 539.35,658.646 539.899,658.836 540.448,659.037 540.997,659.248 541.547,659.469 542.096,659.696 542.645,659.931 543.194,660.17 543.743,660.413 544.292,660.659 544.842,660.906 545.391,660.847 545.94,660.602 546.489,660.359 547.038,660.121 547.588,659.888 548.137,659.661 548.686,659.443 549.235,659.233 549.784,659.034 550.333,658.845 550.883,658.669 551.432,658.506 551.981,658.357 552.53,658.222 553.079,658.103 553.628,658 554.177,657.913 554.727,657.843 555.276,657.791 555.825,657.756 556.374,657.738 556.923,657.738 557.472,657.756 558.022,657.792 558.571,657.844 559.12,657.914 559.669,658 560.218,658.102 560.768,658.22 561.317,658.352 561.866,658.499 562.415,658.658 562.964,658.83 563.513,659.014 564.063,659.207 564.612,659.41 565.161,659.621 565.71,659.839 566.259,660.063 566.808,660.291 567.357,660.523 567.907,660.757 568.456,660.992 569.005,660.774 569.554,660.542 570.103,660.312 570.653,660.087 571.202,659.867 571.751,659.654 572.3,659.448 572.849,659.251 573.398,659.064 573.948,658.888 574.497,658.724 575.046,658.572 575.595,658.434 576.144,658.31 576.693,658.201 577.242,658.107 577.792,658.029 578.341,657.967 578.89,657.922 579.439,657.893 579.988,657.881 580.537,657.886 581.087,657.908 581.636,657.947 582.185,658.002 582.734,658.073 583.283,658.16 583.833,658.263 584.382,658.379 584.931,658.51 585.48,658.654 586.029,658.81 586.578,658.979 587.128,659.157 587.677,659.345 588.226,659.542 588.775,659.747 589.324,659.958 589.873,660.174 590.422,660.394 590.972,660.617 591.521,660.842 592.07,660.932 592.619,660.708 593.168,660.485 593.718,660.265 594.267,660.05 594.816,659.84 595.365,659.637 595.914,659.442 596.463,659.255 597.013,659.078 597.562,658.911 598.111,658.757 598.66,658.614 599.209,658.485 599.758,658.369 600.307,658.268 600.857,658.182 601.406,658.111 601.955,658.056 602.504,658.017 603.053,657.994 603.602,657.987 604.152,657.997 604.701,658.023 605.25,658.065 605.799,658.122 606.348,658.196 606.898,658.284 607.447,658.387 607.996,658.504 608.545,658.634 609.094,658.777 609.643,658.932 610.193,659.097 610.742,659.273 611.291,659.458 611.84,659.651 612.389,659.851 612.938,660.057 613.487,660.268 614.037,660.483 614.586,660.7 615.135,660.918 615.684,660.863 616.233,660.645 616.782,660.43 617.332,660.217 617.881,660.01 618.43,659.807 618.979,659.612 619.528,659.424 620.078,659.245 620.627,659.076 621.176,658.917 621.725,658.77 622.274,658.634 622.823,658.512 623.372,658.403 623.922,658.309 624.471,658.229 625.02,658.164 625.569,658.115 626.118,658.081 626.667,658.063 627.217,658.061 627.766,658.075 628.315,658.104 628.864,658.149 629.413,658.21 629.963,658.286 630.512,658.376 631.061,658.48 631.61,658.598 632.159,658.729 632.708,658.872 633.258,659.026 633.807,659.191 634.356,659.365 634.905,659.548 635.454,659.739 636.003,659.937 636.552,660.14 637.102,660.348 637.651,660.559 638.2,660.772 638.749,660.986 639.298,660.8 639.847,660.587 640.397,660.376 640.946,660.169 641.495,659.967 642.044,659.77 642.593,659.58 643.143,659.398 643.692,659.224 644.241,659.06 644.79,658.907 645.339,658.766 645.888,658.636 646.438,658.519 646.987,658.416 647.536,658.326 648.085,658.251 648.634,658.191 649.183,658.147 649.732,658.117 650.282,658.103 650.831,658.105 651.38,658.122 651.929,658.155 652.478,658.203 653.028,658.266 653.577,658.344 654.126,658.436 654.675,658.542 655.224,658.661 655.773,658.792 656.323,658.935 656.872,659.09 657.421,659.254 657.97,659.428 658.519,659.609 659.068,659.799 659.617,659.994 660.167,660.195 660.716,660.4 661.265,660.608 661.814,660.818 662.363,660.972 662.912,660.762 663.462,660.553 664.011,660.347 664.56,660.145 665.109,659.947 665.658,659.756 666.208,659.571 666.757,659.395 667.306,659.227 667.855,659.07 668.404,658.923 668.953,658.787 669.503,658.664 670.052,658.553 670.601,658.457 671.15,658.374 671.699,658.305 672.248,658.252 672.797,658.213 673.347,658.19 " />
</g>

<g fill="none" stroke="#dd5400" stroke-opacity="1" stroke-width="2.77778" stroke-linecap="butt" stroke-linejoin="round" transform="matrix(0.72,0,0,0.72,0,0)"
font-family="Helvetica" font-size="13" font-weight="400" font-style="normal" 
>
<polyline fill="none" vector-effect="none" points="111.549,156.833 112.098,156.833 112.647,156.833 113.197,156.833 113.746,156.833 114.295,156.833 114.844,156.833 115.393,156.833 115.942,156.833 116.492,156.833 117.041,156.833 117.59,156.833 118.139,156.833 118.688,156.833 119.238,156.833 119.787,156.833 120.336,156.833 120.885,156.833 121.434,156.833 121.983,156.833 122.533,156.833 123.082,156.833 123.631,156.833 124.18,156.833 124.729,156.833 125.278,156.833 125.827,156.833 126.377,156.833 126.926,156.833 127.475,156.833 128.024,156.833 128.573,156.833 129.122,156.833 129.672,156.833 130.221,156.833 130.77,156.833 131.319,156.833 131.868,156.833 132.417,156.833 132.967,156.833 133.516,156.833 134.065,156.833 134.614,156.833 135.163,156.833 135.712,156.833 136.262,156.833 136.811,156.833 137.36,156.833 137.909,156.833 138.458,156.833 139.008,156.833 139.557,156.833 140.106,156.833 140.655,156.833 141.204,156.833 141.753,156.833 142.303,156.833 142.852,156.833 143.401,156.833 143.95,156.833 144.499,156.833 145.048,156.833 145.598,156.833 146.147,156.833 146.696,156.833 147.245,156.833 147.794,156.833 148.343,156.833 148.893,156.833 149.442,156.833 149.991,156.833 150.54,156.833 151.089,156.833 151.638,156.833 152.188,156.833 152.737,156.833 153.286,156.833 153.835,156.833 154.384,156.833 154.933,156.833 155.482,156.833 156.032,156.833 156.581,156.833 157.13,156.833 157.679,156.833 158.228,156.833 158.777,156.833 159.327,156.833 159.876,156.833 160.425,156.833 160.974,156.833 161.523,156.833 162.072,156.833 162.622,156.833 163.171,156.833 163.72,156.833 164.269,156.833 164.818,156.833 165.367,156.833 165.917,156.833 166.466,156.833 167.015,156.833 167.564,156.833 168.113,156.833 168.663,156.833 169.212,156.833 169.761,156.833 170.31,156.833 170.859,156.833 171.408,156.833 171.958,156.833 172.507,156.833 173.056,156.833 173.605,156.833 174.154,156.833 174.703,156.833 175.253,156.833 175.802,156.833 176.351,156.833 176.9,156.833 177.449,156.833 177.998,156.833 178.548,156.833 179.097,156.833 179.646,156.833 180.195,156.833 180.744,156.833 181.293,156.833 181.842,156.833 182.392,156.833 182.941,156.833 183.49,156.833 184.039,156.833 184.588,156.833 185.137,156.833 185.687,156.833 186.236,156.833 186.785,156.833 187.334,156.833 187.883,156.833 188.432,156.833 188.982,156.833 189.531,156.833 190.08,156.833 190.629,156.833 191.178,156.833 191.727,156.833 192.277,156.833 192.826,156.833 193.375,156.833 193.924,156.833 194.473,156.833 195.023,156.833 195.572,156.833 196.121,156.833 196.67,156.833 197.219,156.833 197.768,156.833 198.318,156.833 198.867,156.833 199.416,156.833 199.965,156.833 200.514,156.833 201.063,156.833 201.613,156.833 202.162,156.833 202.711,156.833 203.26,156.833 203.809,156.833 204.358,156.833 204.908,156.833 205.457,156.833 206.006,156.833 206.555,156.833 207.104,156.833 207.653,156.833 208.202,156.833 208.752,156.833 209.301,156.833 209.85,156.833 210.399,156.833 210.948,156.833 211.497,156.833 212.047,156.833 212.596,156.833 213.145,156.833 213.694,156.833 214.243,156.833 214.792,156.833 215.342,156.833 215.891,156.833 216.44,156.833 216.989,156.833 217.538,156.833 218.087,156.833 218.637,156.833 219.186,156.833 219.735,156.833 220.284,156.833 220.833,156.833 221.383,156.833 221.932,156.833 222.481,156.833 223.03,156.833 223.579,156.833 224.128,156.833 224.678,156.833 225.227,156.833 225.776,156.833 226.325,156.833 226.874,156.833 227.423,156.833 227.973,156.833 228.522,156.833 229.071,156.833 229.62,156.833 230.169,156.833 230.718,156.833 231.268,156.833 231.817,156.833 232.366,156.833 232.915,156.833 233.464,156.833 234.013,156.833 234.563,156.833 235.112,156.833 235.661,156.833 236.21,156.833 236.759,156.833 237.308,156.833 237.857,156.833 238.407,156.833 238.956,156.833 239.505,156.833 240.054,156.833 240.603,156.833 241.152,156.833 241.702,156.833 242.251,156.833 242.8,156.833 243.349,156.833 243.898,156.833 244.447,156.833 244.997,156.833 245.546,156.833 246.095,156.833 246.644,156.833 247.193,156.833 247.742,156.833 248.292,156.833 248.841,156.833 249.39,156.833 249.939,156.833 250.488,156.833 251.038,156.833 251.587,156.833 252.136,661 252.685,661 253.234,661 253.783,661 254.333,661 254.882,661 255.431,661 255.98,661 256.529,661 257.078,661 257.628,661 258.177,661 258.726,661 259.275,661 259.824,661 260.373,661 260.922,661 261.472,661 262.021,661 262.57,661 263.119,661 263.668,661 264.217,661 264.767,661 265.316,661 265.865,661 266.414,661 266.963,661 267.513,661 268.062,661 268.611,661 269.16,661 269.709,661 270.258,661 270.807,661 271.357,661 271.906,661 272.455,661 273.004,661 273.553,661 274.103,661 274.652,661 275.201,661 275.75,661 276.299,661 276.848,661 277.397,661 277.947,661 278.496,661 279.045,661 279.594,661 280.143,661 280.693,661 281.242,661 281.791,661 282.34,661 282.889,661 283.438,661 283.987,661 284.537,661 285.086,661 285.635,661 286.184,661 286.733,661 287.283,661 287.832,661 288.381,661 288.93,661 289.479,661 290.028,661 290.578,661 291.127,661 291.676,661 292.225,661 292.774,661 293.323,661 293.872,661 294.422,661 294.971,661 295.52,661 296.069,661 296.618,661 297.168,661 297.717,661 298.266,661 298.815,661 299.364,661 299.913,661 300.462,661 301.012,661 301.561,661 302.11,661 302.659,661 303.208,661 303.758,661 304.307,661 304.856,661 305.405,661 305.954,661 306.503,661 307.052,661 307.602,661 308.151,661 308.7,661 309.249,661 309.798,661 310.348,661 310.897,661 311.446,661 311.995,661 312.544,661 313.093,661 313.642,661 314.192,661 314.741,661 315.29,661 315.839,661 316.388,661 316.938,661 317.487,661 318.036,661 318.585,661 319.134,661 319.683,661 320.233,661 320.782,661 321.331,661 321.88,661 322.429,661 322.978,661 323.527,661 324.077,661 324.626,661 325.175,661 325.724,661 326.273,661 326.823,661 327.372,661 327.921,661 328.47,661 329.019,661 329.568,661 330.117,661 330.667,661 331.216,661 331.765,661 332.314,661 332.863,661 333.413,661 333.962,661 334.511,661 335.06,661 335.609,661 336.158,661 336.707,661 337.257,661 337.806,661 338.355,661 338.904,661 339.453,661 340.003,661 340.552,661 341.101,661 341.65,661 342.199,661 342.748,661 343.297,661 343.847,661 344.396,661 344.945,661 345.494,661 346.043,661 346.592,661 347.142,661 347.691,661 348.24,661 348.789,661 349.338,661 349.888,661 350.437,661 350.986,661 351.535,661 352.084,661 352.633,661 353.182,661 353.732,661 354.281,661 354.83,661 355.379,661 355.928,661 356.478,661 357.027,661 357.576,661 358.125,661 358.674,661 359.223,661 359.772,661 360.322,661 360.871,661 361.42,661 361.969,661 362.518,661 363.068,661 363.617,661 364.166,661 364.715,661 365.264,661 365.813,661 366.362,661 366.912,661 367.461,661 368.01,661 368.559,661 369.108,661 369.658,661 370.207,661 370.756,661 371.305,661 371.854,661 372.403,661 372.953,661 373.502,661 374.051,661 374.6,661 375.149,661 375.698,661 376.247,661 376.797,661 377.346,661 377.895,661 378.444,661 378.993,661 379.543,661 380.092,661 380.641,661 381.19,661 381.739,661 382.288,661 382.837,661 383.387,661 383.936,661 384.485,661 385.034,661 385.583,661 386.133,661 386.682,661 387.231,661 387.78,661 388.329,661 388.878,661 389.427,661 389.977,661 390.526,661 391.075,661 391.624,661 392.173,661 392.723,661 393.272,661 393.821,661 394.37,661 394.919,661 395.468,661 396.017,661 396.567,661 397.116,661 397.665,661 398.214,661 398.763,661 399.313,661 399.862,661 400.411,661 400.96,661 401.509,661 402.058,661 402.608,661 403.157,661 403.706,661 404.255,661 404.804,661 405.353,661 405.902,661 406.452,661 407.001,661 407.55,661 408.099,661 408.648,661 409.198,661 409.747,661 410.296,661 410.845,661 411.394,661 411.943,661 412.492,661 413.042,661 413.591,661 414.14,661 414.689,661 415.238,661 415.788,661 416.337,661 416.886,661 417.435,661 417.984,661 418.533,661 419.082,661 419.632,661 420.181,661 420.73,661 421.279,661 421.828,661 422.378,661 422.927,661 423.476,661 424.025,661 424.574,661 425.123,661 425.672,661 426.222,661 426.771,661 427.32,661 427.869,661 428.418,661 428.967,661 429.517,661 430.066,661 430.615,661 431.164,661 431.713,661 432.263,661 432.812,661 433.361,661 433.91,661 434.459,661 435.008,661 435.557,661 436.107,661 436.656,661 437.205,661 437.754,661 438.303,661 438.853,661 439.402,661 439.951,661 440.5,661 441.049,661 441.598,661 442.147,661 442.697,661 443.246,661 443.795,661 444.344,661 444.893,661 445.443,661 445.992,661 446.541,661 447.09,661 447.639,661 448.188,661 448.737,661 449.287,661 449.836,661 450.385,661 450.934,661 451.483,661 452.033,661 452.582,661 453.131,661 453.68,661 454.229,661 454.778,661 455.328,661 455.877,661 456.426,661 456.975,661 457.524,661 458.073,661 458.622,661 459.172,661 459.721,661 460.27,661 460.819,661 461.368,661 461.918,661 462.467,661 463.016,661 463.565,661 464.114,661 464.663,661 465.212,661 465.762,661 466.311,661 466.86,661 467.409,661 467.958,661 468.508,661 469.057,661 469.606,661 470.155,661 470.704,661 471.253,661 471.802,661 472.352,661 472.901,661 473.45,661 473.999,661 474.548,661 475.098,661 475.647,661 476.196,661 476.745,661 477.294,661 477.843,661 478.392,661 478.942,661 479.491,661 480.04,661 480.589,661 481.138,661 481.688,661 482.237,661 482.786,661 483.335,661 483.884,661 484.433,661 484.983,661 485.532,661 486.081,661 486.63,661 487.179,661 487.728,661 488.277,661 488.827,661 489.376,661 489.925,661 490.474,661 491.023,661 491.573,661 492.122,661 492.671,661 493.22,661 493.769,661 494.318,661 494.867,661 495.417,661 495.966,661 496.515,661 497.064,661 497.613,661 498.163,661 498.712,661 499.261,661 499.81,661 500.359,661 500.908,661 501.457,661 502.007,661 502.556,661 503.105,661 503.654,661 504.203,661 504.753,661 505.302,661 505.851,661 506.4,661 506.949,661 507.498,661 508.047,661 508.597,661 509.146,661 509.695,661 510.244,661 510.793,661 511.342,661 511.892,661 512.441,661 512.99,661 513.539,661 514.088,661 514.638,661 515.187,661 515.736,661 516.285,661 516.834,661 517.383,661 517.932,661 518.482,661 519.031,661 519.58,661 520.129,661 520.678,661 521.227,661 521.777,661 522.326,661 522.875,661 523.424,661 523.973,661 524.523,661 525.072,661 525.621,661 526.17,661 526.719,661 527.268,661 527.818,661 528.367,661 528.916,661 529.465,661 530.014,661 530.563,661 531.112,661 531.662,661 532.211,661 532.76,661 533.309,661 533.858,661 534.407,661 534.957,661 535.506,661 536.055,661 536.604,661 537.153,661 537.703,661 538.252,661 538.801,661 539.35,661 539.899,661 540.448,661 540.997,661 541.547,661 542.096,661 542.645,661 543.194,661 543.743,661 544.292,661 544.842,661 545.391,661 545.94,661 546.489,661 547.038,661 547.588,661 548.137,661 548.686,661 549.235,661 549.784,661 550.333,661 550.883,661 551.432,661 551.981,661 552.53,661 553.079,661 553.628,661 554.177,661 554.727,661 555.276,661 555.825,661 556.374,661 556.923,661 557.472,661 558.022,661 558.571,661 559.12,661 559.669,661 560.218,661 560.768,661 561.317,661 561.866,661 562.415,661 562.964,661 563.513,661 564.063,661 564.612,661 565.161,661 565.71,661 566.259,661 566.808,661 567.357,661 567.907,661 568.456,661 569.005,661 569.554,661 570.103,661 570.653,661 571.202,661 571.751,661 572.3,661 572.849,661 573.398,661 573.948,661 574.497,661 575.046,661 575.595,661 576.144,661 576.693,661 577.242,661 577.792,661 578.341,661 578.89,661 579.439,661 579.988,661 580.537,661 581.087,661 581.636,661 582.185,661 582.734,661 583.283,661 583.833,661 584.382,661 584.931,661 585.48,661 586.029,661 586.578,661 587.128,661 587.677,661 588.226,661 588.775,661 589.324,661 589.873,661 590.422,661 590.972,661 591.521,661 592.07,661 592.619,661 593.168,661 593.718,661 594.267,661 594.816,661 595.365,661 595.914,661 596.463,661 597.013,661 597.562,661 598.111,661 598.66,661 599.209,661 599.758,661 600.307,661 600.857,661 601.406,661 601.955,661 602.504,661 603.053,661 603.602,661 604.152,661 604.701,661 605.25,661 605.799,661 606.348,661 606.898,661 607.447,661 607.996,661 608.545,661 609.094,661 609.643,661 610.193,661 610.742,661 611.291,661 611.84,661 612.389,661 612.938,661 613.487,661 614.037,661 614.586,661 615.135,661 615.684,661 616.233,661 616.782,661 617.332,661 617.881,661 618.43,661 618.979,661 619.528,661 620.078,661 620.627,661 621.176,661 621.725,661 622.274,661 622.823,661 623.372,661 623.922,661 624.471,661 625.02,661 625.569,661 626.118,661 626.667,661 627.217,661 627.766,661 628.315,661 628.864,661 629.413,661 629.963,661 630.512,661 631.061,661 631.61,661 632.159,661 632.708,661 633.258,661 633.807,661 634.356,661 634.905,661 635.454,661 636.003,661 636.552,661 637.102,661 637.651,661 638.2,661 638.749,661 639.298,661 639.847,661 640.397,661 640.946,661 641.495,661 642.044,661 642.593,661 643.143,661 643.692,661 644.241,661 644.79,661 645.339,661 645.888,661 646.438,661 646.987,661 647.536,661 648.085,661 648.634,661 649.183,661 649.732,661 650.282,661 650.831,661 651.38,661 651.929,661 652.478,661 653.028,661 653.577,661 654.126,661 654.675,661 655.224,661 655.773,661 656.323,661 656.872,661 657.421,661 657.97,661 658.519,661 659.068,661 659.617,661 660.167,661 660.716,661 661.265,661 661.814,661 662.363,661 662.912,661 663.462,661 664.011,661 664.56,661 665.109,661 665.658,661 666.208,661 666.757,661 667.306,661 667.855,661 668.404,661 668.953,661 669.503,661 670.052,661 670.601,661 671.15,661 671.699,661 672.248,661 672.797,661 673.347,661 " />
</g>
</g>
</svg>
