<?xml version="1.0" encoding="UTF-8" standalone="no"?>
<svg width="216.253mm" height="188.736mm"
 viewBox="0 0 613 535"
 xmlns="http://www.w3.org/2000/svg" xmlns:xlink="http://www.w3.org/1999/xlink"  version="1.2" baseProfile="tiny">
<title>Qt SVG Document</title>
<desc>MATLAB, The MathWorks, Inc. Version 25.2.0.3055257 R2025b Update 2</desc>
<defs>
</defs>
<g fill="none" stroke="black" stroke-width="1" fill-rule="evenodd" stroke-linecap="square" stroke-linejoin="bevel" >

<g fill="#ffffff" fill-opacity="1" stroke="none" transform="matrix(0.72,0,0,0.72,0,0)"
font-family="Sans Serif" font-size="9" font-weight="400" font-style="normal" 
>
<path vector-effect="none" fill-rule="evenodd" d="M0,0 L852,0 L852,744 L0,744 L0,0"/>
</g>

<g fill="#ffffff" fill-opacity="1" stroke="none" transform="matrix(7.2e-05,0,0,7.2e-05,0,0)"
font-family="Sans Serif" font-size="9" font-weight="400" font-style="normal" 
>
<path vector-effect="none" fill-rule="evenodd" d="M1.11e+06,560000 L1.11e+06,6.61e+06 L7.7e+06,6.61e+06 L7.7e+06,560000 L1.11e+06,560000"/>
</g>

<g fill="#212121" fill-opacity="1" stroke="#212121" stroke-opacity="1" stroke-width="0.694444" stroke-linecap="square" stroke-linejoin="round" transform="matrix(0.72,0,0,0.72,0,0)"
font-family="Sans Serif" font-size="9" font-weight="400" font-style="normal" 
>
<polyline fill="none" vector-effect="none" points="111,661 770,661 " />
<polyline fill="none" vector-effect="none" points="111,56 770,56 " />
<polyline fill="none" vector-effect="none" points="111,661 111,654.41 " />
<polyline fill="none" vector-effect="none" points="111,62.59 111,56 " />
<polyline fill="none" vector-effect="none" points="220.833,661 220.833,654.41 " />
<polyline fill="none" vector-effect="none" points="220.833,62.59 220.833,56 " />
<polyline fill="none" vector-effect="none" points="330.667,661 330.667,654.41 " />
<polyline fill="none" vector-effect="none" points="330.667,62.59 330.667,56 " />
<polyline fill="none" vector-effect="none" points="440.5,661 440.5,654.41 " />
<polyline fill="none" vector-effect="none" points="440.5,62.59 440.5,56 " />
<polyline fill="none" vector-effect="none" points="550.333,661 550.333,654.41 " />
<polyline fill="none" vector-effect="none" points="550.333,62.59 550.333,56 " />
<polyline fill="none" vector-effect="none" points="660.167,661 660.167,654.41 " />
<polyline fill="none" vector-effect="none" points="660.167,62.59 660.167,56 " />
<polyline fill="none" vector-effect="none" points="770,661 770,654.41 " />
<polyline fill="none" vector-effect="none" points="770,62.59 770,56 " />
</g>

<g fill="#212121" fill-opacity="1" stroke="#212121" stroke-opacity="1" stroke-width="1" stroke-linecap="square" stroke-linejoin="bevel" transform="matrix(0.72,0,0,0.72,77.4,488.56)"
font-family="Helvetica" font-size="13" font-weight="400" font-style="normal" 
>
<text fill="#212121" fill-opacity="1" stroke="none" xml:space="preserve" x="0" y="0" font-family="Helvetica" font-size="13" font-weight="400" font-style="normal" 
 >0</text>
</g>

<g fill="#212121" fill-opacity="1" stroke="#212121" stroke-opacity="1" stroke-width="1" stroke-linecap="square" stroke-linejoin="bevel" transform="matrix(0.72,0,0,0.72,151.08,488.56)"
font-family="Helvetica" font-size="13" font-weight="400" font-style="normal" 
>
<text fill="#212121" fill-opacity="1" stroke="none" xml:space="preserve" x="0" y="0" font-family="Helvetica" font-size="13" font-weight="400" font-style="normal" 
 >200</text>
</g>

<g fill="#212121" fill-opacity="1" stroke="#212121" stroke-opacity="1" stroke-width="1" stroke-linecap="square" stroke-linejoin="bevel" transform="matrix(0.72,0,0,0.72,230.16,488.56)"
font-family="Helvetica" font-size="13" font-weight="400" font-style="normal" 
>
<text fill="#212121" fill-opacity="1" stroke="none" xml:space="preserve" x="0" y="0" font-family="Helvetica" font-size="13" font-weight="400" font-style="normal" 
 >400</text>
</g>

<g fill="#212121" fill-opacity="1" stroke="#212121" stroke-opacity="1" stroke-width="1" stroke-linecap="square" stroke-linejoin="bevel" transform="matrix(0.72,0,0,0.72,309.24,488.56)"
font-family="Helvetica" font-size="13" font-weight="400" font-style="normal" 
>
<text fill="#212121" fill-opacity="1" stroke="none" xml:space="preserve" x="0" y="0" font-family="Helvetica" font-size="13" font-weight="400" font-style="normal" 
 >600</text>
</g>

<g fill="#212121" fill-opacity="1" stroke="#212121" stroke-opacity="1" stroke-width="1" stroke-linecap="square" stroke-linejoin="bevel" transform="matrix(0.72,0,0,0.72,388.32,488.56)"
font-family="Helvetica" font-size="13" font-weight="400" font-style="normal" 
>
<text fill="#212121" fill-opacity="1" stroke="none" xml:space="preserve" x="0" y="0" font-family="Helvetica" font-size="13" font-weight="400" font-style="normal" 
 >800</text>
</g>

<g fill="#212121" fill-opacity="1" stroke="#212121" stroke-opacity="1" stroke-width="1" stroke-linecap="square" stroke-linejoin="bevel" transform="matrix(0.72,0,0,0.72,464.88,488.56)"
font-family="Helvetica" font-size="13" font-weight="400" font-style="normal" 
>
<text fill="#212121" fill-opacity="1" stroke="none" xml:space="preserve" x="0" y="0" font-family="Helvetica" font-size="13" font-weight="400" font-style="normal" 
 >1000</text>
</g>

<g fill="#212121" fill-opacity="1" stroke="#212121" stroke-opacity="1" stroke-width="1" stroke-linecap="square" stroke-linejoin="bevel" transform="matrix(0.72,0,0,0.72,543.96,488.56)"
font-family="Helvetica" font-size="13" font-weight="400" font-style="normal" 
>
<text fill="#212121" fill-opacity="1" stroke="none" xml:space="preserve" x="0" y="0" font-family="Helvetica" font-size="13" font-weight="400" font-style="normal" 
 >1200</text>
</g>

<g fill="#212121" fill-opacity="1" stroke="#212121" stroke-opacity="1" stroke-width="0.694444" stroke-linecap="square" stroke-linejoin="round" transform="matrix(0.72,0,0,0.72,0,0)"
font-family="Helvetica" font-size="13" font-weight="400" font-style="normal" 
>
<polyline fill="none" vector-effect="none" points="111,661 111,56 " />
<polyline fill="none" vector-effect="none" points="770,661 770,56 " />
<polyline fill="none" vector-effect="none" points="111,661 117.59,661 " />
<polyline fill="none" vector-effect="none" points="763.41,661 770,661 " />
<polyline fill="none" vector-effect="none" points="111,560.167 117.59,560.167 " />
<polyline fill="none" vector-effect="none" points="763.41,560.167 770,560.167 " />
<polyline fill="none" vector-effect="none" points="111,459.333 117.59,459.333 " />
<polyline fill="none" vector-effect="none" points="763.41,459.333 770,459.333 " />
<polyline fill="none" vector-effect="none" points="111,358.5 117.59,358.5 " />
<polyline fill="none" vector-effect="none" points="763.41,358.5 770,358.5 " />
<polyline fill="none" vector-effect="none" points="111,257.667 117.59,257.667 " />
<polyline fill="none" vector-effect="none" points="763.41,257.667 770,257.667 " />
<polyline fill="none" vector-effect="none" points="111,156.833 117.59,156.833 " />
<polyline fill="none" vector-effect="none" points="763.41,156.833 770,156.833 " />
<polyline fill="none" vector-effect="none" points="111,56 117.59,56 " />
<polyline fill="none" vector-effect="none" points="763.41,56 770,56 " />
</g>

<g fill="#212121" fill-opacity="1" stroke="#212121" stroke-opacity="1" stroke-width="1" stroke-linecap="square" stroke-linejoin="bevel" transform="matrix(0.72,0,0,0.72,70.88,479.16)"
font-family="Helvetica" font-size="13" font-weight="400" font-style="normal" 
>
<text fill="#212121" fill-opacity="1" stroke="none" xml:space="preserve" x="0" y="0" font-family="Helvetica" font-size="13" font-weight="400" font-style="normal" 
 >0</text>
</g>

<g fill="#212121" fill-opacity="1" stroke="#212121" stroke-opacity="1" stroke-width="1" stroke-linecap="square" stroke-linejoin="bevel" transform="matrix(0.72,0,0,0.72,62.96,406.56)"
font-family="Helvetica" font-size="13" font-weight="400" font-style="normal" 
>
<text fill="#212121" fill-opacity="1" stroke="none" xml:space="preserve" x="0" y="0" font-family="Helvetica" font-size="13" font-weight="400" font-style="normal" 
 >0.2</text>
</g>

<g fill="#212121" fill-opacity="1" stroke="#212121" stroke-opacity="1" stroke-width="1" stroke-linecap="square" stroke-linejoin="bevel" transform="matrix(0.72,0,0,0.72,62.96,333.96)"
font-family="Helvetica" font-size="13" font-weight="400" font-style="normal" 
>
<text fill="#212121" fill-opacity="1" stroke="none" xml:space="preserve" x="0" y="0" font-family="Helvetica" font-size="13" font-weight="400" font-style="normal" 
 >0.4</text>
</g>

<g fill="#212121" fill-opacity="1" stroke="#212121" stroke-opacity="1" stroke-width="1" stroke-linecap="square" stroke-linejoin="bevel" transform="matrix(0.72,0,0,0.72,62.96,261.36)"
font-family="Helvetica" font-size="13" font-weight="400" font-style="normal" 
>
<text fill="#212121" fill-opacity="1" stroke="none" xml:space="preserve" x="0" y="0" font-family="Helvetica" font-size="13" font-weight="400" font-style="normal" 
 >0.6</text>
</g>

<g fill="#212121" fill-opacity="1" stroke="#212121" stroke-opacity="1" stroke-width="1" stroke-linecap="square" stroke-linejoin="bevel" transform="matrix(0.72,0,0,0.72,62.96,188.76)"
font-family="Helvetica" font-size="13" font-weight="400" font-style="normal" 
>
<text fill="#212121" fill-opacity="1" stroke="none" xml:space="preserve" x="0" y="0" font-family="Helvetica" font-size="13" font-weight="400" font-style="normal" 
 >0.8</text>
</g>

<g fill="#212121" fill-opacity="1" stroke="#212121" stroke-opacity="1" stroke-width="1" stroke-linecap="square" stroke-linejoin="bevel" transform="matrix(0.72,0,0,0.72,70.88,116.16)"
font-family="Helvetica" font-size="13" font-weight="400" font-style="normal" 
>
<text fill="#212121" fill-opacity="1" stroke="none" xml:space="preserve" x="0" y="0" font-family="Helvetica" font-size="13" font-weight="400" font-style="normal" 
 >1</text>
</g>

<g fill="#212121" fill-opacity="1" stroke="#212121" stroke-opacity="1" stroke-width="1" stroke-linecap="square" stroke-linejoin="bevel" transform="matrix(0.72,0,0,0.72,62.96,43.56)"
font-family="Helvetica" font-size="13" font-weight="400" font-style="normal" 
>
<text fill="#212121" fill-opacity="1" stroke="none" xml:space="preserve" x="0" y="0" font-family="Helvetica" font-size="13" font-weight="400" font-style="normal" 
 >1.2</text>
</g>

<g fill="none" stroke="#1171be" stroke-opacity="1" stroke-width="4.16667" stroke-linecap="butt" stroke-linejoin="round" transform="matrix(0.72,0,0,0.72,0,0)"
font-family="Helvetica" font-size="13" font-weight="400" font-style="normal" 
>
<polyline fill="none" vector-effect="none" points="111.549,166.374 112.098,166.351 112.647,166.28 113.197,166.163 113.746,166 114.295,165.791 114.844,165.538 115.393,165.242 115.942,164.904 116.492,164.526 117.041,164.11 117.59,163.658 118.139,163.171 118.688,162.653 119.238,162.105 119.787,161.531 120.336,160.933 120.885,160.313 121.434,159.676 121.983,159.024 122.533,158.36 123.082,157.687 123.631,157.009 124.18,156.328 124.729,155.649 125.278,154.975 125.827,154.308 126.377,153.652 126.926,153.01 127.475,152.385 128.024,151.781 128.573,151.2 129.122,150.645 129.672,150.119 130.221,149.624 130.77,149.163 131.319,148.739 131.868,148.353 132.417,148.007 132.967,147.703 133.516,147.443 134.065,147.227 134.614,147.058 135.163,146.936 135.712,146.861 136.262,146.835 136.811,146.857 137.36,146.928 137.909,147.046 138.458,147.213 139.008,147.427 139.557,147.687 140.106,147.992 140.655,148.341 141.204,148.732 141.753,149.163 142.303,149.633 142.852,150.139 143.401,150.68 143.95,151.252 144.499,151.853 145.048,152.48 145.598,153.13 146.147,153.8 146.696,154.487 147.245,155.188 147.794,155.899 148.343,156.617 148.893,157.339 149.442,158.06 149.991,158.779 150.54,159.49 151.089,160.192 151.638,160.879 152.188,161.55 152.737,162.2 153.286,162.827 153.835,163.427 154.384,163.997 154.933,164.534 155.482,165.037 156.032,165.501 156.581,165.926 157.13,166.307 157.679,166.645 158.228,166.936 158.777,167.179 159.327,167.372 159.876,167.516 160.425,167.607 160.974,167.647 161.523,167.634 162.072,167.568 162.622,167.45 163.171,167.279 163.72,167.056 164.269,166.782 164.818,166.458 165.367,166.085 165.917,165.665 166.466,165.2 167.015,164.691 167.564,164.141 168.113,163.551 168.663,162.926 169.212,162.267 169.761,161.578 170.31,160.861 170.859,160.12 171.408,159.359 171.958,158.58 172.507,157.788 173.056,156.986 173.605,156.178 174.154,155.368 174.703,154.559 175.253,153.757 175.802,152.964 176.351,152.184 176.9,151.422 177.449,150.681 177.998,149.965 178.548,149.277 179.097,148.621 179.646,148.001 180.195,147.419 180.744,146.88 181.293,146.384 181.842,145.937 182.392,145.539 182.941,145.194 183.49,144.904 184.039,144.669 184.588,144.493 185.137,144.376 185.687,144.319 186.236,144.323 186.785,144.389 187.334,144.517 187.883,144.707 188.432,144.959 188.982,145.272 189.531,145.644 190.08,146.076 190.629,146.564 191.178,147.108 191.727,147.706 192.277,148.355 192.826,149.052 193.375,149.795 193.924,150.58 194.473,151.405 195.023,152.265 195.572,153.157 196.121,154.077 196.67,155.02 197.219,155.983 197.768,156.961 198.318,157.95 198.867,158.944 199.416,159.939 199.965,160.93 200.514,161.913 201.063,162.882 201.613,163.833 202.162,164.76 202.711,165.659 203.26,166.525 203.809,167.353 204.358,168.139 204.908,168.879 205.457,169.568 206.006,170.202 206.555,170.776 207.104,171.289 207.653,171.735 208.202,172.112 208.752,172.417 209.301,172.646 209.85,172.799 210.399,172.872 210.948,172.865 211.497,172.775 212.047,172.602 212.596,172.345 213.145,172.004 213.694,171.579 214.243,171.071 214.792,170.48 215.342,169.808 215.891,169.057 216.44,168.228 216.989,167.325 217.538,166.351 218.087,165.308 218.637,164.2 219.186,163.032 219.735,161.808 220.284,160.534 220.833,159.213 221.383,157.853 221.932,156.458 222.481,155.035 223.03,153.591 223.579,152.132 224.128,150.666 224.678,149.2 225.227,147.741 225.776,146.297 226.325,144.876 226.874,143.487 227.423,142.137 227.973,140.835 228.522,139.589 229.071,138.408 229.62,137.299 230.169,136.273 230.718,135.337 231.268,134.499 231.817,133.768 232.366,133.152 232.915,132.66 233.464,132.299 234.013,132.076 234.563,132.001 235.112,132.079 235.661,132.318 236.21,132.725 236.759,133.307 237.308,134.069 237.857,135.017 238.407,136.157 238.956,137.493 239.505,139.031 240.054,140.775 240.603,142.729 241.152,144.895 241.702,147.278 242.251,149.878 242.8,152.699 243.349,155.742 243.898,159.008 244.447,162.497 244.997,166.209 245.546,170.143 246.095,174.3 246.644,178.677 247.193,183.272 247.742,188.082 248.292,193.106 248.841,198.338 249.39,203.776 249.939,209.415 250.488,215.249 251.038,221.274 251.587,227.484 252.136,233.873 252.685,240.434 253.234,247.16 253.783,254.044 254.333,261.078 254.882,268.255 255.431,275.566 255.98,283.002 256.529,290.556 257.078,298.217 257.628,305.977 258.177,313.826 258.726,321.755 259.275,329.754 259.824,337.814 260.373,345.924 260.922,354.074 261.472,362.256 262.021,370.458 262.57,378.671 263.119,386.885 263.668,395.091 264.217,403.278 264.767,411.438 265.316,419.56 265.865,427.635 266.414,435.655 266.963,443.61 267.513,451.492 268.062,459.293 268.611,467.004 269.16,474.618 269.709,482.127 270.258,489.523 270.807,496.801 271.357,503.953 271.906,510.973 272.455,517.856 273.004,524.595 273.553,531.186 274.103,537.625 274.652,543.906 275.201,550.026 275.75,555.981 276.299,561.769 276.848,567.386 277.397,572.831 277.947,578.101 278.496,583.194 279.045,588.111 279.594,592.849 280.143,597.408 280.693,601.789 281.242,605.992 281.791,610.018 282.34,613.867 282.889,617.542 283.438,621.043 283.987,624.373 284.537,627.534 285.086,630.529 285.635,633.36 286.184,636.032 286.733,638.546 287.283,640.907 287.832,643.118 288.381,645.184 288.93,647.109 289.479,648.896 290.028,650.551 290.578,652.077 291.127,653.481 291.676,654.765 292.225,655.936 292.774,656.998 293.323,657.956 293.872,658.816 294.422,659.581 294.971,660.257 295.52,660.849 296.069,660.638 296.618,660.199 297.168,659.829 297.717,659.524 298.266,659.279 298.815,659.09 299.364,658.951 299.913,658.859 300.462,658.809 301.012,658.797 301.561,658.82 302.11,658.873 302.659,658.952 303.208,659.055 303.758,659.178 304.307,659.317 304.856,659.47 305.405,659.633 305.954,659.805 306.503,659.982 307.052,660.163 307.602,660.344 308.151,660.525 308.7,660.703 309.249,660.876 309.798,660.956 310.348,660.796 310.897,660.644 311.446,660.502 311.995,660.369 312.544,660.248 313.093,660.138 313.642,660.04 314.192,659.955 314.741,659.882 315.29,659.822 315.839,659.774 316.388,659.738 316.938,659.715 317.487,659.704 318.036,659.704 318.585,659.715 319.134,659.737 319.683,659.769 320.233,659.81 320.782,659.859 321.331,659.917 321.88,659.982 322.429,660.053 322.978,660.13 323.527,660.211 324.077,660.297 324.626,660.386 325.175,660.478 325.724,660.571 326.273,660.665 326.823,660.759 327.372,660.853 327.921,660.945 328.47,660.964 329.019,660.875 329.568,660.79 330.117,660.709 330.667,660.631 331.216,660.558 331.765,660.49 332.314,660.427 332.863,660.37 333.413,660.318 333.962,660.273 334.511,660.234 335.06,660.201 335.609,660.175 336.158,660.155 336.707,660.141 337.257,660.134 337.806,660.133 338.355,660.138 338.904,660.149 339.453,660.166 340.003,660.188 340.552,660.216 341.101,660.248 341.65,660.285 342.199,660.326 342.748,660.371 343.297,660.419 343.847,660.47 344.396,660.524 344.945,660.58 345.494,660.638 346.043,660.698 346.592,660.758 347.142,660.819 347.691,660.88 348.24,660.94 348.789,661 349.338,660.941 349.888,660.883 350.437,660.828 350.986,660.774 351.535,660.723 352.084,660.675 352.633,660.629 353.182,660.587 353.732,660.548 354.281,660.513 354.83,660.481 355.379,660.454 355.928,660.43 356.478,660.41 357.027,660.395 357.576,660.384 358.125,660.377 358.674,660.374 359.223,660.375 359.772,660.38 360.322,660.389 360.871,660.402 361.42,660.418 361.969,660.438 362.518,660.461 363.068,660.487 363.617,660.516 364.166,660.548 364.715,660.582 365.264,660.618 365.813,660.656 366.362,660.696 366.912,660.737 367.461,660.779 368.01,660.822 368.559,660.865 369.108,660.909 369.658,660.952 370.207,660.995 370.756,660.962 371.305,660.92 371.854,660.88 372.403,660.84 372.953,660.802 373.502,660.766 374.051,660.732 374.6,660.7 375.149,660.671 375.698,660.643 376.247,660.619 376.797,660.597 377.346,660.577 377.895,660.561 378.444,660.548 378.993,660.537 379.543,660.53 380.092,660.525 380.641,660.524 381.19,660.525 381.739,660.529 382.288,660.536 382.837,660.546 383.387,660.559 383.936,660.574 384.485,660.591 385.034,660.611 385.583,660.633 386.133,660.657 386.682,660.682 387.231,660.71 387.78,660.738 388.329,660.768 388.878,660.799 389.427,660.831 389.977,660.863 390.526,660.896 391.075,660.929 391.624,660.962 392.173,660.995 392.723,660.973 393.272,660.941 393.821,660.909 394.37,660.879 394.919,660.85 395.468,660.822 396.017,660.795 396.567,660.77 397.116,660.747 397.665,660.725 398.214,660.705 398.763,660.688 399.313,660.672 399.862,660.658 400.411,660.647 400.96,660.638 401.509,660.631 402.058,660.627 402.608,660.625 403.157,660.625 403.706,660.627 404.255,660.631 404.804,660.638 405.353,660.646 405.902,660.657 406.452,660.67 407.001,660.684 407.55,660.7 408.099,660.718 408.648,660.737 409.198,660.758 409.747,660.78 410.296,660.803 410.845,660.827 411.394,660.851 411.943,660.876 412.492,660.902 413.042,660.928 413.591,660.954 414.14,660.98 414.689,660.994 415.238,660.968 415.788,660.943 416.337,660.918 416.886,660.894 417.435,660.871 417.984,660.849 418.533,660.828 419.082,660.809 419.632,660.79 420.181,660.773 420.73,660.758 421.279,660.744 421.828,660.732 422.378,660.721 422.927,660.713 423.476,660.706 424.025,660.7 424.574,660.697 425.123,660.695 425.672,660.696 426.222,660.698 426.771,660.701 427.32,660.707 427.869,660.714 428.418,660.723 428.967,660.733 429.517,660.745 430.066,660.758 430.615,660.772 431.164,660.788 431.713,660.805 432.263,660.822 432.812,660.841 433.361,660.86 433.91,660.88 434.459,660.901 435.008,660.922 435.557,660.943 436.107,660.964 436.656,660.985 437.205,660.994 437.754,660.973 438.303,660.952 438.853,660.932 439.402,660.913 439.951,660.894 440.5,660.876 441.049,660.859 441.598,660.842 442.147,660.827 442.697,660.813 443.246,660.8 443.795,660.789 444.344,660.779 444.893,660.77 445.443,660.763 445.992,660.757 446.541,660.752 447.09,660.749 447.639,660.748 448.188,660.748 448.737,660.749 449.287,660.752 449.836,660.756 450.385,660.762 450.934,660.769 451.483,660.777 452.033,660.787 452.582,660.798 453.131,660.809 453.68,660.822 454.229,660.836 454.778,660.85 455.328,660.866 455.877,660.881 456.426,660.898 456.975,660.915 457.524,660.932 458.073,660.95 458.622,660.967 459.172,660.985 459.721,660.997 460.27,660.98 460.819,660.963 461.368,660.946 461.918,660.929 462.467,660.914 463.016,660.898 463.565,660.884 464.114,660.87 464.663,660.857 465.212,660.845 465.762,660.834 466.311,660.824 466.86,660.816 467.409,660.808 467.958,660.801 468.508,660.796 469.057,660.792 469.606,660.789 470.155,660.788 470.704,660.787 471.253,660.788 471.802,660.79 472.352,660.794 472.901,660.798 473.45,660.804 473.999,660.81 474.548,660.818 475.098,660.827 475.647,660.836 476.196,660.847 476.745,660.858 477.294,660.87 477.843,660.883 478.392,660.896 478.942,660.91 479.491,660.924 480.04,660.939 480.589,660.953 481.138,660.968 481.688,660.983 482.237,660.998 482.786,660.987 483.335,660.972 483.884,660.958 484.433,660.944 484.983,660.93 485.532,660.917 486.081,660.904 486.63,660.892 487.179,660.881 487.728,660.871 488.277,660.861 488.827,660.852 489.376,660.845 489.925,660.838 490.474,660.832 491.023,660.827 491.573,660.823 492.122,660.82 492.671,660.819 493.22,660.818 493.769,660.818 494.318,660.82 494.867,660.822 495.417,660.826 495.966,660.83 496.515,660.836 497.064,660.842 497.613,660.849 498.163,660.857 498.712,660.866 499.261,660.875 499.81,660.885 500.359,660.896 500.908,660.907 501.457,660.919 502.007,660.931 502.556,660.943 503.105,660.956 503.654,660.969 504.203,660.982 504.753,660.995 505.302,660.992 505.851,660.98 506.4,660.967 506.949,660.955 507.498,660.943 508.047,660.932 508.597,660.921 509.146,660.91 509.695,660.9 510.244,660.891 510.793,660.882 511.342,660.875 511.892,660.867 512.441,660.861 512.99,660.856 513.539,660.851 514.088,660.848 514.638,660.845 515.187,660.843 515.736,660.842 516.285,660.842 516.834,660.843 517.383,660.845 517.932,660.848 518.482,660.851 519.031,660.856 519.58,660.861 520.129,660.867 520.678,660.873 521.227,660.881 521.777,660.889 522.326,660.897 522.875,660.907 523.424,660.916 523.973,660.926 524.523,660.937 525.072,660.947 525.621,660.958 526.17,660.97 526.719,660.981 527.268,660.992 527.818,660.997 528.367,660.986 528.916,660.975 529.465,660.964 530.014,660.953 530.563,660.943 531.112,660.933 531.662,660.924 532.211,660.915 532.76,660.907 533.309,660.899 533.858,660.892 534.407,660.885 534.957,660.88 535.506,660.875 536.055,660.871 536.604,660.867 537.153,660.864 537.703,660.863 538.252,660.861 538.801,660.861 539.35,660.862 539.899,660.863 540.448,660.865 540.997,660.868 541.547,660.872 542.096,660.876 542.645,660.881 543.194,660.887 543.743,660.893 544.292,660.9 544.842,660.908 545.391,660.915 545.94,660.924 546.489,660.933 547.038,660.942 547.588,660.951 548.137,660.961 548.686,660.971 549.235,660.981 549.784,660.991 550.333,661 550.883,660.99 551.432,660.98 551.981,660.97 552.53,660.961 553.079,660.952 553.628,660.943 554.177,660.934 554.727,660.926 555.276,660.919 555.825,660.912 556.374,660.905 556.923,660.899 557.472,660.894 558.022,660.89 558.571,660.886 559.12,660.882 559.669,660.88 560.218,660.878 560.768,660.877 561.317,660.876 561.866,660.877 562.415,660.878 562.964,660.879 563.513,660.882 564.063,660.885 564.612,660.889 565.161,660.893 565.71,660.898 566.259,660.903 566.808,660.909 567.357,660.916 567.907,660.923 568.456,660.93 569.005,660.938 569.554,660.946 570.103,660.955 570.653,660.963 571.202,660.972 571.751,660.981 572.3,660.99 572.849,660.999 573.398,660.992 573.948,660.983 574.497,660.974 575.046,660.966 575.595,660.958 576.144,660.95 576.693,660.942 577.242,660.935 577.792,660.928 578.341,660.921 578.89,660.915 579.439,660.91 579.988,660.905 580.537,660.901 581.087,660.897 581.636,660.894 582.185,660.892 582.734,660.89 583.283,660.889 583.833,660.888 584.382,660.888 584.931,660.889 585.48,660.891 586.029,660.893 586.578,660.895 587.128,660.899 587.677,660.902 588.226,660.907 588.775,660.912 589.324,660.917 589.873,660.923 590.422,660.93 590.972,660.936 591.521,660.943 592.07,660.951 592.619,660.958 593.168,660.966 593.718,660.974 594.267,660.982 594.816,660.99 595.365,660.999 595.914,660.993 596.463,660.985 597.013,660.977 597.562,660.969 598.111,660.962 598.66,660.954 599.209,660.947 599.758,660.94 600.307,660.934 600.857,660.928 601.406,660.923 601.955,660.918 602.504,660.913 603.053,660.909 603.602,660.906 604.152,660.903 604.701,660.9 605.25,660.899 605.799,660.898 606.348,660.897 606.898,660.897 607.447,660.898 607.996,660.899 608.545,660.901 609.094,660.903 609.643,660.906 610.193,660.91 610.742,660.914 611.291,660.919 611.84,660.924 612.389,660.929 612.938,660.935 613.487,660.941 614.037,660.948 614.586,660.955 615.135,660.962 615.684,660.969 616.233,660.976 616.782,660.984 617.332,660.992 617.881,660.999 618.43,660.993 618.979,660.986 619.528,660.978 620.078,660.971 620.627,660.964 621.176,660.957 621.725,660.95 622.274,660.944 622.823,660.938 623.372,660.932 623.922,660.927 624.471,660.922 625.02,660.918 625.569,660.914 626.118,660.911 626.667,660.909 627.217,660.906 627.766,660.905 628.315,660.904 628.864,660.903 629.413,660.903 629.963,660.904 630.512,660.905 631.061,660.907 631.61,660.909 632.159,660.912 632.708,660.916 633.258,660.919 633.807,660.924 634.356,660.929 634.905,660.934 635.454,660.939 636.003,660.945 636.552,660.951 637.102,660.958 637.651,660.965 638.2,660.972 638.749,660.979 639.298,660.986 639.847,660.993 640.397,661 640.946,660.992 641.495,660.985 642.044,660.978 642.593,660.971 643.143,660.964 643.692,660.958 644.241,660.951 644.79,660.945 645.339,660.94 645.888,660.934 646.438,660.93 646.987,660.925 647.536,660.921 648.085,660.917 648.634,660.914 649.183,660.912 649.732,660.91 650.282,660.908 650.831,660.907 651.38,660.907 651.929,660.907 652.478,660.908 653.028,660.909 653.577,660.911 654.126,660.913 654.675,660.916 655.224,660.919 655.773,660.923 656.323,660.927 656.872,660.932 657.421,660.937 657.97,660.942 658.519,660.948 659.068,660.954 659.617,660.96 660.167,660.967 660.716,660.973 661.265,660.98 661.814,660.987 662.363,660.994 662.912,660.999 663.462,660.992 664.011,660.985 664.56,660.978 665.109,660.971 665.658,660.965 666.208,660.958 666.757,660.952 667.306,660.947 667.855,660.941 668.404,660.936 668.953,660.931 669.503,660.927 670.052,660.923 670.601,660.92 671.15,660.917 671.699,660.915 672.248,660.913 672.797,660.911 673.347,660.911 " />
</g>

<g fill="none" stroke="#dd5400" stroke-opacity="1" stroke-width="2.77778" stroke-linecap="butt" stroke-linejoin="round" transform="matrix(0.72,0,0,0.72,0,0)"
font-family="Helvetica" font-size="13" font-weight="400" font-style="normal" 
>
<polyline fill="none" vector-effect="none" points="111.549,156.833 112.098,156.833 112.647,156.833 113.197,156.833 113.746,156.833 114.295,156.833 114.844,156.833 115.393,156.833 115.942,156.833 116.492,156.833 117.041,156.833 117.59,156.833 118.139,156.833 118.688,156.833 119.238,156.833 119.787,156.833 120.336,156.833 120.885,156.833 121.434,156.833 121.983,156.833 122.533,156.833 123.082,156.833 123.631,156.833 124.18,156.833 124.729,156.833 125.278,156.833 125.827,156.833 126.377,156.833 126.926,156.833 127.475,156.833 128.024,156.833 128.573,156.833 129.122,156.833 129.672,156.833 130.221,156.833 130.77,156.833 131.319,156.833 131.868,156.833 132.417,156.833 132.967,156.833 133.516,156.833 134.065,156.833 134.614,156.833 135.163,156.833 135.712,156.833 136.262,156.833 136.811,156.833 137.36,156.833 137.909,156.833 138.458,156.833 139.008,156.833 139.557,156.833 140.106,156.833 140.655,156.833 141.204,156.833 141.753,156.833 142.303,156.833 142.852,156.833 143.401,156.833 143.95,156.833 144.499,156.833 145.048,156.833 145.598,156.833 146.147,156.833 146.696,156.833 147.245,156.833 147.794,156.833 148.343,156.833 148.893,156.833 149.442,156.833 149.991,156.833 150.54,156.833 151.089,156.833 151.638,156.833 152.188,156.833 152.737,156.833 153.286,156.833 153.835,156.833 154.384,156.833 154.933,156.833 155.482,156.833 156.032,156.833 156.581,156.833 157.13,156.833 157.679,156.833 158.228,156.833 158.777,156.833 159.327,156.833 159.876,156.833 160.425,156.833 160.974,156.833 161.523,156.833 162.072,156.833 162.622,156.833 163.171,156.833 163.72,156.833 164.269,156.833 164.818,156.833 165.367,156.833 165.917,156.833 166.466,156.833 167.015,156.833 167.564,156.833 168.113,156.833 168.663,156.833 169.212,156.833 169.761,156.833 170.31,156.833 170.859,156.833 171.408,156.833 171.958,156.833 172.507,156.833 173.056,156.833 173.605,156.833 174.154,156.833 174.703,156.833 175.253,156.833 175.802,156.833 176.351,156.833 176.9,156.833 177.449,156.833 177.998,156.833 178.548,156.833 179.097,156.833 179.646,156.833 180.195,156.833 180.744,156.833 181.293,156.833 181.842,156.833 182.392,156.833 182.941,156.833 183.49,156.833 184.039,156.833 184.588,156.833 185.137,156.833 185.687,156.833 186.236,156.833 186.785,156.833 187.334,156.833 187.883,156.833 188.432,156.833 188.982,156.833 189.531,156.833 190.08,156.833 190.629,156.833 191.178,156.833 191.727,156.833 192.277,156.833 192.826,156.833 193.375,156.833 193.924,156.833 194.473,156.833 195.023,156.833 195.572,156.833 196.121,156.833 196.67,156.833 197.219,156.833 197.768,156.833 198.318,156.833 198.867,156.833 199.416,156.833 199.965,156.833 200.514,156.833 201.063,156.833 201.613,156.833 202.162,156.833 202.711,156.833 203.26,156.833 203.809,156.833 204.358,156.833 204.908,156.833 205.457,156.833 206.006,156.833 206.555,156.833 207.104,156.833 207.653,156.833 208.202,156.833 208.752,156.833 209.301,156.833 209.85,156.833 210.399,156.833 210.948,156.833 211.497,156.833 212.047,156.833 212.596,156.833 213.145,156.833 213.694,156.833 214.243,156.833 214.792,156.833 215.342,156.833 215.891,156.833 216.44,156.833 216.989,156.833 217.538,156.833 218.087,156.833 218.637,156.833 219.186,156.833 219.735,156.833 220.284,156.833 220.833,156.833 221.383,156.833 221.932,156.833 222.481,156.833 223.03,156.833 223.579,156.833 224.128,156.833 224.678,156.833 225.227,156.833 225.776,156.833 226.325,156.833 226.874,156.833 227.423,156.833 227.973,156.833 228.522,156.833 229.071,156.833 229.62,156.833 230.169,156.833 230.718,156.833 231.268,156.833 231.817,156.833 232.366,156.833 232.915,156.833 233.464,156.833 234.013,156.833 234.563,156.833 235.112,156.833 235.661,156.833 236.21,156.833 236.759,156.833 237.308,156.833 237.857,156.833 238.407,156.833 238.956,156.833 239.505,156.833 240.054,156.833 240.603,156.833 241.152,156.833 241.702,156.833 242.251,156.833 242.8,156.833 243.349,156.833 243.898,156.833 244.447,156.833 244.997,156.833 245.546,156.833 246.095,156.833 246.644,156.833 247.193,156.833 247.742,156.833 248.292,156.833 248.841,156.833 249.39,156.833 249.939,156.833 250.488,156.833 251.038,156.833 251.587,156.833 252.136,661 252.685,661 253.234,661 253.783,661 254.333,661 254.882,661 255.431,661 255.98,661 256.529,661 257.078,661 257.628,661 258.177,661 258.726,661 259.275,661 259.824,661 260.373,661 260.922,661 261.472,661 262.021,661 262.57,661 263.119,661 263.668,661 264.217,661 264.767,661 265.316,661 265.865,661 266.414,661 266.963,661 267.513,661 268.062,661 268.611,661 269.16,661 269.709,661 270.258,661 270.807,661 271.357,661 271.906,661 272.455,661 273.004,661 273.553,661 274.103,661 274.652,661 275.201,661 275.75,661 276.299,661 276.848,661 277.397,661 277.947,661 278.496,661 279.045,661 279.594,661 280.143,661 280.693,661 281.242,661 281.791,661 282.34,661 282.889,661 283.438,661 283.987,661 284.537,661 285.086,661 285.635,661 286.184,661 286.733,661 287.283,661 287.832,661 288.381,661 288.93,661 289.479,661 290.028,661 290.578,661 291.127,661 291.676,661 292.225,661 292.774,661 293.323,661 293.872,661 294.422,661 294.971,661 295.52,661 296.069,661 296.618,661 297.168,661 297.717,661 298.266,661 298.815,661 299.364,661 299.913,661 300.462,661 301.012,661 301.561,661 302.11,661 302.659,661 303.208,661 303.758,661 304.307,661 304.856,661 305.405,661 305.954,661 306.503,661 307.052,661 307.602,661 308.151,661 308.7,661 309.249,661 309.798,661 310.348,661 310.897,661 311.446,661 311.995,661 312.544,661 313.093,661 313.642,661 314.192,661 314.741,661 315.29,661 315.839,661 316.388,661 316.938,661 317.487,661 318.036,661 318.585,661 319.134,661 319.683,661 320.233,661 320.782,661 321.331,661 321.88,661 322.429,661 322.978,661 323.527,661 324.077,661 324.626,661 325.175,661 325.724,661 326.273,661 326.823,661 327.372,661 327.921,661 328.47,661 329.019,661 329.568,661 330.117,661 330.667,661 331.216,661 331.765,661 332.314,661 332.863,661 333.413,661 333.962,661 334.511,661 335.06,661 335.609,661 336.158,661 336.707,661 337.257,661 337.806,661 338.355,661 338.904,661 339.453,661 340.003,661 340.552,661 341.101,661 341.65,661 342.199,661 342.748,661 343.297,661 343.847,661 344.396,661 344.945,661 345.494,661 346.043,661 346.592,661 347.142,661 347.691,661 348.24,661 348.789,661 349.338,661 349.888,661 350.437,661 350.986,661 351.535,661 352.084,661 352.633,661 353.182,661 353.732,661 354.281,661 354.83,661 355.379,661 355.928,661 356.478,661 357.027,661 357.576,661 358.125,661 358.674,661 359.223,661 359.772,661 360.322,661 360.871,661 361.42,661 361.969,661 362.518,661 363.068,661 363.617,661 364.166,661 364.715,661 365.264,661 365.813,661 366.362,661 366.912,661 367.461,661 368.01,661 368.559,661 369.108,661 369.658,661 370.207,661 370.756,661 371.305,661 371.854,661 372.403,661 372.953,661 373.502,661 374.051,661 374.6,661 375.149,661 375.698,661 376.247,661 376.797,661 377.346,661 377.895,661 378.444,661 378.993,661 379.543,661 380.092,661 380.641,661 381.19,661 381.739,661 382.288,661 382.837,661 383.387,661 383.936,661 384.485,661 385.034,661 385.583,661 386.133,661 386.682,661 387.231,661 387.78,661 388.329,661 388.878,661 389.427,661 389.977,661 390.526,661 391.075,661 391.624,661 392.173,661 392.723,661 393.272,661 393.821,661 394.37,661 394.919,661 395.468,661 396.017,661 396.567,661 397.116,661 397.665,661 398.214,661 398.763,661 399.313,661 399.862,661 400.411,661 400.96,661 401.509,661 402.058,661 402.608,661 403.157,661 403.706,661 404.255,661 404.804,661 405.353,661 405.902,661 406.452,661 407.001,661 407.55,661 408.099,661 408.648,661 409.198,661 409.747,661 410.296,661 410.845,661 411.394,661 411.943,661 412.492,661 413.042,661 413.591,661 414.14,661 414.689,661 415.238,661 415.788,661 416.337,661 416.886,661 417.435,661 417.984,661 418.533,661 419.082,661 419.632,661 420.181,661 420.73,661 421.279,661 421.828,661 422.378,661 422.927,661 423.476,661 424.025,661 424.574,661 425.123,661 425.672,661 426.222,661 426.771,661 427.32,661 427.869,661 428.418,661 428.967,661 429.517,661 430.066,661 430.615,661 431.164,661 431.713,661 432.263,661 432.812,661 433.361,661 433.91,661 434.459,661 435.008,661 435.557,661 436.107,661 436.656,661 437.205,661 437.754,661 438.303,661 438.853,661 439.402,661 439.951,661 440.5,661 441.049,661 441.598,661 442.147,661 442.697,661 443.246,661 443.795,661 444.344,661 444.893,661 445.443,661 445.992,661 446.541,661 447.09,661 447.639,661 448.188,661 448.737,661 449.287,661 449.836,661 450.385,661 450.934,661 451.483,661 452.033,661 452.582,661 453.131,661 453.68,661 454.229,661 454.778,661 455.328,661 455.877,661 456.426,661 456.975,661 457.524,661 458.073,661 458.622,661 459.172,661 459.721,661 460.27,661 460.819,661 461.368,661 461.918,661 462.467,661 463.016,661 463.565,661 464.114,661 464.663,661 465.212,661 465.762,661 466.311,661 466.86,661 467.409,661 467.958,661 468.508,661 469.057,661 469.606,661 470.155,661 470.704,661 471.253,661 471.802,661 472.352,661 472.901,661 473.45,661 473.999,661 474.548,661 475.098,661 475.647,661 476.196,661 476.745,661 477.294,661 477.843,661 478.392,661 478.942,661 479.491,661 480.04,661 480.589,661 481.138,661 481.688,661 482.237,661 482.786,661 483.335,661 483.884,661 484.433,661 484.983,661 485.532,661 486.081,661 486.63,661 487.179,661 487.728,661 488.277,661 488.827,661 489.376,661 489.925,661 490.474,661 491.023,661 491.573,661 492.122,661 492.671,661 493.22,661 493.769,661 494.318,661 494.867,661 495.417,661 495.966,661 496.515,661 497.064,661 497.613,661 498.163,661 498.712,661 499.261,661 499.81,661 500.359,661 500.908,661 501.457,661 502.007,661 502.556,661 503.105,661 503.654,661 504.203,661 504.753,661 505.302,661 505.851,661 506.4,661 506.949,661 507.498,661 508.047,661 508.597,661 509.146,661 509.695,661 510.244,661 510.793,661 511.342,661 511.892,661 512.441,661 512.99,661 513.539,661 514.088,661 514.638,661 515.187,661 515.736,661 516.285,661 516.834,661 517.383,661 517.932,661 518.482,661 519.031,661 519.58,661 520.129,661 520.678,661 521.227,661 521.777,661 522.326,661 522.875,661 523.424,661 523.973,661 524.523,661 525.072,661 525.621,661 526.17,661 526.719,661 527.268,661 527.818,661 528.367,661 528.916,661 529.465,661 530.014,661 530.563,661 531.112,661 531.662,661 532.211,661 532.76,661 533.309,661 533.858,661 534.407,661 534.957,661 535.506,661 536.055,661 536.604,661 537.153,661 537.703,661 538.252,661 538.801,661 539.35,661 539.899,661 540.448,661 540.997,661 541.547,661 542.096,661 542.645,661 543.194,661 543.743,661 544.292,661 544.842,661 545.391,661 545.94,661 546.489,661 547.038,661 547.588,661 548.137,661 548.686,661 549.235,661 549.784,661 550.333,661 550.883,661 551.432,661 551.981,661 552.53,661 553.079,661 553.628,661 554.177,661 554.727,661 555.276,661 555.825,661 556.374,661 556.923,661 557.472,661 558.022,661 558.571,661 559.12,661 559.669,661 560.218,661 560.768,661 561.317,661 561.866,661 562.415,661 562.964,661 563.513,661 564.063,661 564.612,661 565.161,661 565.71,661 566.259,661 566.808,661 567.357,661 567.907,661 568.456,661 569.005,661 569.554,661 570.103,661 570.653,661 571.202,661 571.751,661 572.3,661 572.849,661 573.398,661 573.948,661 574.497,661 575.046,661 575.595,661 576.144,661 576.693,661 577.242,661 577.792,661 578.341,661 578.89,661 579.439,661 579.988,661 580.537,661 581.087,661 581.636,661 582.185,661 582.734,661 583.283,661 583.833,661 584.382,661 584.931,661 585.48,661 586.029,661 586.578,661 587.128,661 587.677,661 588.226,661 588.775,661 589.324,661 589.873,661 590.422,661 590.972,661 591.521,661 592.07,661 592.619,661 593.168,661 593.718,661 594.267,661 594.816,661 595.365,661 595.914,661 596.463,661 597.013,661 597.562,661 598.111,661 598.66,661 599.209,661 599.758,661 600.307,661 600.857,661 601.406,661 601.955,661 602.504,661 603.053,661 603.602,661 604.152,661 604.701,661 605.25,661 605.799,661 606.348,661 606.898,661 607.447,661 607.996,661 608.545,661 609.094,661 609.643,661 610.193,661 610.742,661 611.291,661 611.84,661 612.389,661 612.938,661 613.487,661 614.037,661 614.586,661 615.135,661 615.684,661 616.233,661 616.782,661 617.332,661 617.881,661 618.43,661 618.979,661 619.528,661 620.078,661 620.627,661 621.176,661 621.725,661 622.274,661 622.823,661 623.372,661 623.922,661 624.471,661 625.02,661 625.569,661 626.118,661 626.667,661 627.217,661 627.766,661 628.315,661 628.864,661 629.413,661 629.963,661 630.512,661 631.061,661 631.61,661 632.159,661 632.708,661 633.258,661 633.807,661 634.356,661 634.905,661 635.454,661 636.003,661 636.552,661 637.102,661 637.651,661 638.2,661 638.749,661 639.298,661 639.847,661 640.397,661 640.946,661 641.495,661 642.044,661 642.593,661 643.143,661 643.692,661 644.241,661 644.79,661 645.339,661 645.888,661 646.438,661 646.987,661 647.536,661 648.085,661 648.634,661 649.183,661 649.732,661 650.282,661 650.831,661 651.38,661 651.929,661 652.478,661 653.028,661 653.577,661 654.126,661 654.675,661 655.224,661 655.773,661 656.323,661 656.872,661 657.421,661 657.97,661 658.519,661 659.068,661 659.617,661 660.167,661 660.716,661 661.265,661 661.814,661 662.363,661 662.912,661 663.462,661 664.011,661 664.56,661 665.109,661 665.658,661 666.208,661 666.757,661 667.306,661 667.855,661 668.404,661 668.953,661 669.503,661 670.052,661 670.601,661 671.15,661 671.699,661 672.248,661 672.797,661 673.347,661 " />
</g>
</g>
</svg>
