<?xml version="1.0" encoding="UTF-8" standalone="no"?>
<svg width="216.253mm" height="188.736mm"
 viewBox="0 0 613 535"
 xmlns="http://www.w3.org/2000/svg" xmlns:xlink="http://www.w3.org/1999/xlink"  version="1.2" baseProfile="tiny">
<title>Qt SVG Document</title>
<desc>MATLAB, The MathWorks, Inc. Version 25.2.0.3055257 R2025b Update 2</desc>
<defs>
</defs>
<g fill="none" stroke="black" stroke-width="1" fill-rule="evenodd" stroke-linecap="square" stroke-linejoin="bevel" >

<g fill="#ffffff" fill-opacity="1" stroke="none" transform="matrix(0.72,0,0,0.72,0,0)"
font-family="Sans Serif" font-size="9" font-weight="400" font-style="normal" 
>
<path vector-effect="none" fill-rule="evenodd" d="M0,0 L852,0 L852,744 L0,744 L0,0"/>
</g>

<g fill="#ffffff" fill-opacity="1" stroke="none" transform="matrix(7.2e-05,0,0,7.2e-05,0,0)"
font-family="Sans Serif" font-size="9" font-weight="400" font-style="normal" 
>
<path vector-effect="none" fill-rule="evenodd" d="M1.11e+06,560000 L1.11e+06,6.61e+06 L7.7e+06,6.61e+06 L7.7e+06,560000 L1.11e+06,560000"/>
</g>

<g fill="#212121" fill-opacity="1" stroke="#212121" stroke-opacity="1" stroke-width="0.694444" stroke-linecap="square" stroke-linejoin="round" transform="matrix(0.72,0,0,0.72,0,0)"
font-family="Sans Serif" font-size="9" font-weight="400" font-style="normal" 
>
<polyline fill="none" vector-effect="none" points="111,661 770,661 " />
<polyline fill="none" vector-effect="none" points="111,56 770,56 " />
<polyline fill="none" vector-effect="none" points="111,661 111,654.41 " />
<polyline fill="none" vector-effect="none" points="111,62.59 111,56 " />
<polyline fill="none" vector-effect="none" points="220.833,661 220.833,654.41 " />
<polyline fill="none" vector-effect="none" points="220.833,62.59 220.833,56 " />
<polyline fill="none" vector-effect="none" points="330.667,661 330.667,654.41 " />
<polyline fill="none" vector-effect="none" points="330.667,62.59 330.667,56 " />
<polyline fill="none" vector-effect="none" points="440.5,661 440.5,654.41 " />
<polyline fill="none" vector-effect="none" points="440.5,62.59 440.5,56 " />
<polyline fill="none" vector-effect="none" points="550.333,661 550.333,654.41 " />
<polyline fill="none" vector-effect="none" points="550.333,62.59 550.333,56 " />
<polyline fill="none" vector-effect="none" points="660.167,661 660.167,654.41 " />
<polyline fill="none" vector-effect="none" points="660.167,62.59 660.167,56 " />
<polyline fill="none" vector-effect="none" points="770,661 770,654.41 " />
<polyline fill="none" vector-effect="none" points="770,62.59 770,56 " />
</g>

<g fill="#212121" fill-opacity="1" stroke="#212121" stroke-opacity="1" stroke-width="1" stroke-linecap="square" stroke-linejoin="bevel" transform="matrix(0.72,0,0,0.72,77.4,488.56)"
font-family="Helvetica" font-size="13" font-weight="400" font-style="normal" 
>
<text fill="#212121" fill-opacity="1" stroke="none" xml:space="preserve" x="0" y="0" font-family="Helvetica" font-size="13" font-weight="400" font-style="normal" 
 >0</text>
</g>

<g fill="#212121" fill-opacity="1" stroke="#212121" stroke-opacity="1" stroke-width="1" stroke-linecap="square" stroke-linejoin="bevel" transform="matrix(0.72,0,0,0.72,151.08,488.56)"
font-family="Helvetica" font-size="13" font-weight="400" font-style="normal" 
>
<text fill="#212121" fill-opacity="1" stroke="none" xml:space="preserve" x="0" y="0" font-family="Helvetica" font-size="13" font-weight="400" font-style="normal" 
 >200</text>
</g>

<g fill="#212121" fill-opacity="1" stroke="#212121" stroke-opacity="1" stroke-width="1" stroke-linecap="square" stroke-linejoin="bevel" transform="matrix(0.72,0,0,0.72,230.16,488.56)"
font-family="Helvetica" font-size="13" font-weight="400" font-style="normal" 
>
<text fill="#212121" fill-opacity="1" stroke="none" xml:space="preserve" x="0" y="0" font-family="Helvetica" font-size="13" font-weight="400" font-style="normal" 
 >400</text>
</g>

<g fill="#212121" fill-opacity="1" stroke="#212121" stroke-opacity="1" stroke-width="1" stroke-linecap="square" stroke-linejoin="bevel" transform="matrix(0.72,0,0,0.72,309.24,488.56)"
font-family="Helvetica" font-size="13" font-weight="400" font-style="normal" 
>
<text fill="#212121" fill-opacity="1" stroke="none" xml:space="preserve" x="0" y="0" font-family="Helvetica" font-size="13" font-weight="400" font-style="normal" 
 >600</text>
</g>

<g fill="#212121" fill-opacity="1" stroke="#212121" stroke-opacity="1" stroke-width="1" stroke-linecap="square" stroke-linejoin="bevel" transform="matrix(0.72,0,0,0.72,388.32,488.56)"
font-family="Helvetica" font-size="13" font-weight="400" font-style="normal" 
>
<text fill="#212121" fill-opacity="1" stroke="none" xml:space="preserve" x="0" y="0" font-family="Helvetica" font-size="13" font-weight="400" font-style="normal" 
 >800</text>
</g>

<g fill="#212121" fill-opacity="1" stroke="#212121" stroke-opacity="1" stroke-width="1" stroke-linecap="square" stroke-linejoin="bevel" transform="matrix(0.72,0,0,0.72,464.88,488.56)"
font-family="Helvetica" font-size="13" font-weight="400" font-style="normal" 
>
<text fill="#212121" fill-opacity="1" stroke="none" xml:space="preserve" x="0" y="0" font-family="Helvetica" font-size="13" font-weight="400" font-style="normal" 
 >1000</text>
</g>

<g fill="#212121" fill-opacity="1" stroke="#212121" stroke-opacity="1" stroke-width="1" stroke-linecap="square" stroke-linejoin="bevel" transform="matrix(0.72,0,0,0.72,543.96,488.56)"
font-family="Helvetica" font-size="13" font-weight="400" font-style="normal" 
>
<text fill="#212121" fill-opacity="1" stroke="none" xml:space="preserve" x="0" y="0" font-family="Helvetica" font-size="13" font-weight="400" font-style="normal" 
 >1200</text>
</g>

<g fill="#212121" fill-opacity="1" stroke="#212121" stroke-opacity="1" stroke-width="0.694444" stroke-linecap="square" stroke-linejoin="round" transform="matrix(0.72,0,0,0.72,0,0)"
font-family="Helvetica" font-size="13" font-weight="400" font-style="normal" 
>
<polyline fill="none" vector-effect="none" points="111,661 111,56 " />
<polyline fill="none" vector-effect="none" points="770,661 770,56 " />
<polyline fill="none" vector-effect="none" points="111,661 117.59,661 " />
<polyline fill="none" vector-effect="none" points="763.41,661 770,661 " />
<polyline fill="none" vector-effect="none" points="111,560.167 117.59,560.167 " />
<polyline fill="none" vector-effect="none" points="763.41,560.167 770,560.167 " />
<polyline fill="none" vector-effect="none" points="111,459.333 117.59,459.333 " />
<polyline fill="none" vector-effect="none" points="763.41,459.333 770,459.333 " />
<polyline fill="none" vector-effect="none" points="111,358.5 117.59,358.5 " />
<polyline fill="none" vector-effect="none" points="763.41,358.5 770,358.5 " />
<polyline fill="none" vector-effect="none" points="111,257.667 117.59,257.667 " />
<polyline fill="none" vector-effect="none" points="763.41,257.667 770,257.667 " />
<polyline fill="none" vector-effect="none" points="111,156.833 117.59,156.833 " />
<polyline fill="none" vector-effect="none" points="763.41,156.833 770,156.833 " />
<polyline fill="none" vector-effect="none" points="111,56 117.59,56 " />
<polyline fill="none" vector-effect="none" points="763.41,56 770,56 " />
</g>

<g fill="#212121" fill-opacity="1" stroke="#212121" stroke-opacity="1" stroke-width="1" stroke-linecap="square" stroke-linejoin="bevel" transform="matrix(0.72,0,0,0.72,70.88,479.16)"
font-family="Helvetica" font-size="13" font-weight="400" font-style="normal" 
>
<text fill="#212121" fill-opacity="1" stroke="none" xml:space="preserve" x="0" y="0" font-family="Helvetica" font-size="13" font-weight="400" font-style="normal" 
 >0</text>
</g>

<g fill="#212121" fill-opacity="1" stroke="#212121" stroke-opacity="1" stroke-width="1" stroke-linecap="square" stroke-linejoin="bevel" transform="matrix(0.72,0,0,0.72,62.96,406.56)"
font-family="Helvetica" font-size="13" font-weight="400" font-style="normal" 
>
<text fill="#212121" fill-opacity="1" stroke="none" xml:space="preserve" x="0" y="0" font-family="Helvetica" font-size="13" font-weight="400" font-style="normal" 
 >0.2</text>
</g>

<g fill="#212121" fill-opacity="1" stroke="#212121" stroke-opacity="1" stroke-width="1" stroke-linecap="square" stroke-linejoin="bevel" transform="matrix(0.72,0,0,0.72,62.96,333.96)"
font-family="Helvetica" font-size="13" font-weight="400" font-style="normal" 
>
<text fill="#212121" fill-opacity="1" stroke="none" xml:space="preserve" x="0" y="0" font-family="Helvetica" font-size="13" font-weight="400" font-style="normal" 
 >0.4</text>
</g>

<g fill="#212121" fill-opacity="1" stroke="#212121" stroke-opacity="1" stroke-width="1" stroke-linecap="square" stroke-linejoin="bevel" transform="matrix(0.72,0,0,0.72,62.96,261.36)"
font-family="Helvetica" font-size="13" font-weight="400" font-style="normal" 
>
<text fill="#212121" fill-opacity="1" stroke="none" xml:space="preserve" x="0" y="0" font-family="Helvetica" font-size="13" font-weight="400" font-style="normal" 
 >0.6</text>
</g>

<g fill="#212121" fill-opacity="1" stroke="#212121" stroke-opacity="1" stroke-width="1" stroke-linecap="square" stroke-linejoin="bevel" transform="matrix(0.72,0,0,0.72,62.96,188.76)"
font-family="Helvetica" font-size="13" font-weight="400" font-style="normal" 
>
<text fill="#212121" fill-opacity="1" stroke="none" xml:space="preserve" x="0" y="0" font-family="Helvetica" font-size="13" font-weight="400" font-style="normal" 
 >0.8</text>
</g>

<g fill="#212121" fill-opacity="1" stroke="#212121" stroke-opacity="1" stroke-width="1" stroke-linecap="square" stroke-linejoin="bevel" transform="matrix(0.72,0,0,0.72,70.88,116.16)"
font-family="Helvetica" font-size="13" font-weight="400" font-style="normal" 
>
<text fill="#212121" fill-opacity="1" stroke="none" xml:space="preserve" x="0" y="0" font-family="Helvetica" font-size="13" font-weight="400" font-style="normal" 
 >1</text>
</g>

<g fill="#212121" fill-opacity="1" stroke="#212121" stroke-opacity="1" stroke-width="1" stroke-linecap="square" stroke-linejoin="bevel" transform="matrix(0.72,0,0,0.72,62.96,43.56)"
font-family="Helvetica" font-size="13" font-weight="400" font-style="normal" 
>
<text fill="#212121" fill-opacity="1" stroke="none" xml:space="preserve" x="0" y="0" font-family="Helvetica" font-size="13" font-weight="400" font-style="normal" 
 >1.2</text>
</g>

<g fill="none" stroke="#1171be" stroke-opacity="1" stroke-width="4.16667" stroke-linecap="butt" stroke-linejoin="round" transform="matrix(0.72,0,0,0.72,0,0)"
font-family="Helvetica" font-size="13" font-weight="400" font-style="normal" 
>
<polyline fill="none" vector-effect="none" points="111.549,155.97 112.098,155.966 112.647,155.955 113.197,155.937 113.746,155.912 114.295,155.88 114.844,155.842 115.393,155.798 115.942,155.749 116.492,155.695 117.041,155.636 117.59,155.575 118.139,155.511 118.688,155.445 119.238,155.379 119.787,155.312 120.336,155.247 120.885,155.183 121.434,155.123 121.983,155.066 122.533,155.015 123.082,154.97 123.631,154.931 124.18,154.901 124.729,154.879 125.278,154.867 125.827,154.866 126.377,154.876 126.926,154.898 127.475,154.933 128.024,154.981 128.573,155.043 129.122,155.12 129.672,155.211 130.221,155.317 130.77,155.438 131.319,155.575 131.868,155.726 132.417,155.892 132.967,156.073 133.516,156.268 134.065,156.477 134.614,156.699 135.163,156.933 135.712,157.179 136.262,157.436 136.811,157.702 137.36,157.976 137.909,158.258 138.458,158.546 139.008,158.838 139.557,159.133 140.106,159.43 140.655,159.726 141.204,160.021 141.753,160.312 142.303,160.598 142.852,160.877 143.401,161.147 143.95,161.407 144.499,161.654 145.048,161.886 145.598,162.103 146.147,162.302 146.696,162.482 147.245,162.64 147.794,162.776 148.343,162.888 148.893,162.974 149.442,163.033 149.991,163.064 150.54,163.067 151.089,163.039 151.638,162.98 152.188,162.89 152.737,162.767 153.286,162.612 153.835,162.425 154.384,162.204 154.933,161.952 155.482,161.666 156.032,161.349 156.581,161.001 157.13,160.622 157.679,160.214 158.228,159.777 158.777,159.314 159.327,158.825 159.876,158.313 160.425,157.779 160.974,157.226 161.523,156.654 162.072,156.068 162.622,155.469 163.171,154.86 163.72,154.243 164.269,153.622 164.818,152.999 165.367,152.378 165.917,151.761 166.466,151.151 167.015,150.552 167.564,149.967 168.113,149.398 168.663,148.85 169.212,148.326 169.761,147.827 170.31,147.359 170.859,146.923 171.408,146.523 171.958,146.161 172.507,145.84 173.056,145.562 173.605,145.331 174.154,145.148 174.703,145.016 175.253,144.936 175.802,144.909 176.351,144.939 176.9,145.025 177.449,145.169 177.998,145.371 178.548,145.632 179.097,145.952 179.646,146.332 180.195,146.77 180.744,147.267 181.293,147.82 181.842,148.43 182.392,149.094 182.941,149.812 183.49,150.58 184.039,151.396 184.588,152.258 185.137,153.163 185.687,154.107 186.236,155.088 186.785,156.101 187.334,157.143 187.883,158.21 188.432,159.296 188.982,160.398 189.531,161.511 190.08,162.63 190.629,163.75 191.178,164.865 191.727,165.971 192.277,167.063 192.826,168.133 193.375,169.178 193.924,170.192 194.473,171.17 195.023,172.105 195.572,172.993 196.121,173.828 196.67,174.606 197.219,175.32 197.768,175.967 198.318,176.542 198.867,177.04 199.416,177.456 199.965,177.788 200.514,178.03 201.063,178.181 201.613,178.236 202.162,178.193 202.711,178.05 203.26,177.804 203.809,177.454 204.358,176.999 204.908,176.438 205.457,175.771 206.006,174.997 206.555,174.118 207.104,173.134 207.653,172.048 208.202,170.86 208.752,169.574 209.301,168.193 209.85,166.72 210.399,165.158 210.948,163.514 211.497,161.79 212.047,159.994 212.596,158.13 213.145,156.206 213.694,154.227 214.243,152.201 214.792,150.136 215.342,148.04 215.891,145.92 216.44,143.786 216.989,141.646 217.538,139.51 218.087,137.388 218.637,135.289 219.186,133.223 219.735,131.2 220.284,129.231 220.833,127.326 221.383,125.496 221.932,123.752 222.481,122.103 223.03,120.561 223.579,119.137 224.128,117.84 224.678,116.681 225.227,115.67 225.776,114.819 226.325,114.135 226.874,113.629 227.423,113.311 227.973,113.188 228.522,113.271 229.071,113.567 229.62,114.083 230.169,114.828 230.718,115.809 231.268,117.031 231.817,118.502 232.366,120.225 232.915,122.207 233.464,124.451 234.013,126.961 234.563,129.741 235.112,132.792 235.661,136.117 236.21,139.716 236.759,143.591 237.308,147.741 237.857,152.165 238.407,156.862 238.956,161.83 239.505,167.066 240.054,172.566 240.603,178.326 241.152,184.343 241.702,190.61 242.251,197.121 242.8,203.869 243.349,210.849 243.898,218.051 244.447,225.468 244.997,233.09 245.546,240.909 246.095,248.914 246.644,257.096 247.193,265.444 247.742,273.947 248.292,282.592 248.841,291.37 249.39,300.267 249.939,309.272 250.488,318.371 251.038,327.553 251.587,336.804 252.136,346.111 252.685,355.462 253.234,364.843 253.783,374.242 254.333,383.645 254.882,393.039 255.431,402.411 255.98,411.749 256.529,421.04 257.078,430.272 257.628,439.432 258.177,448.509 258.726,457.491 259.275,466.367 259.824,475.126 260.373,483.757 260.922,492.25 261.472,500.596 262.021,508.786 262.57,516.81 263.119,524.66 263.668,532.33 264.217,539.81 264.767,547.095 265.316,554.179 265.865,561.056 266.414,567.721 266.963,574.169 267.513,580.398 268.062,586.402 268.611,592.181 269.16,597.731 269.709,603.051 270.258,608.14 270.807,612.998 271.357,617.625 271.906,622.021 272.455,626.188 273.004,630.128 273.553,633.842 274.103,637.334 274.652,640.606 275.201,643.662 275.75,646.507 276.299,649.144 276.848,651.579 277.397,653.817 277.947,655.862 278.496,657.722 279.045,659.402 279.594,660.909 280.143,659.751 280.693,658.571 281.242,657.544 281.791,656.662 282.34,655.919 282.889,655.308 283.438,654.82 283.987,654.448 284.537,654.185 285.086,654.023 285.635,653.955 286.184,653.974 286.733,654.071 287.283,654.24 287.832,654.474 288.381,654.765 288.93,655.107 289.479,655.493 290.028,655.917 290.578,656.373 291.127,656.854 291.676,657.355 292.225,657.87 292.774,658.394 293.323,658.923 293.872,659.45 294.422,659.973 294.971,660.487 295.52,660.988 296.069,660.528 296.618,660.063 297.168,659.62 297.717,659.202 298.266,658.811 298.815,658.45 299.364,658.119 299.913,657.821 300.462,657.555 301.012,657.324 301.561,657.127 302.11,656.966 302.659,656.839 303.208,656.746 303.758,656.688 304.307,656.664 304.856,656.672 305.405,656.712 305.954,656.782 306.503,656.882 307.052,657.009 307.602,657.162 308.151,657.339 308.7,657.538 309.249,657.758 309.798,657.995 310.348,658.25 310.897,658.518 311.446,658.797 311.995,659.087 312.544,659.384 313.093,659.687 313.642,659.992 314.192,660.299 314.741,660.605 315.29,660.908 315.839,660.794 316.388,660.503 316.938,660.22 317.487,659.947 318.036,659.686 318.585,659.439 319.134,659.205 319.683,658.988 320.233,658.787 320.782,658.604 321.331,658.44 321.88,658.295 322.429,658.17 322.978,658.065 323.527,657.981 324.077,657.917 324.626,657.874 325.175,657.852 325.724,657.851 326.273,657.869 326.823,657.908 327.372,657.965 327.921,658.041 328.47,658.134 329.019,658.245 329.568,658.371 330.117,658.512 330.667,658.666 331.216,658.833 331.765,659.012 332.314,659.201 332.863,659.398 333.413,659.603 333.962,659.813 334.511,660.029 335.06,660.247 335.609,660.468 336.158,660.689 336.707,660.91 337.257,660.872 337.806,660.657 338.355,660.447 338.904,660.242 339.453,660.045 340.003,659.856 340.552,659.676 341.101,659.506 341.65,659.347 342.199,659.2 342.748,659.065 343.297,658.944 343.847,658.836 344.396,658.743 344.945,658.664 345.494,658.6 346.043,658.551 346.592,658.517 347.142,658.499 347.691,658.496 348.24,658.508 348.789,658.534 349.338,658.575 349.888,658.63 350.437,658.699 350.986,658.78 351.535,658.874 352.084,658.98 352.633,659.097 353.182,659.224 353.732,659.36 354.281,659.504 354.83,659.656 355.379,659.815 355.928,659.979 356.478,660.147 357.027,660.319 357.576,660.493 358.125,660.669 358.674,660.845 359.223,660.979 359.772,660.805 360.322,660.634 360.871,660.467 361.42,660.304 361.969,660.146 362.518,659.995 363.068,659.851 363.617,659.715 364.166,659.588 364.715,659.469 365.264,659.361 365.813,659.263 366.362,659.176 366.912,659.1 367.461,659.036 368.01,658.984 368.559,658.944 369.108,658.916 369.658,658.9 370.207,658.897 370.756,658.905 371.305,658.926 371.854,658.958 372.403,659.003 372.953,659.058 373.502,659.124 374.051,659.2 374.6,659.286 375.149,659.381 375.698,659.485 376.247,659.596 376.797,659.715 377.346,659.841 377.895,659.972 378.444,660.108 378.993,660.248 379.543,660.392 380.092,660.538 380.641,660.686 381.19,660.834 381.739,660.982 382.288,660.87 382.837,660.724 383.387,660.581 383.936,660.442 384.485,660.306 385.034,660.175 385.583,660.05 386.133,659.931 386.682,659.819 387.231,659.714 387.78,659.617 388.329,659.529 388.878,659.449 389.427,659.379 389.977,659.319 390.526,659.268 391.075,659.228 391.624,659.197 392.173,659.177 392.723,659.168 393.272,659.169 393.821,659.18 394.37,659.202 394.919,659.233 395.468,659.274 396.017,659.325 396.567,659.385 397.116,659.454 397.665,659.531 398.214,659.615 398.763,659.707 399.313,659.806 399.862,659.911 400.411,660.021 400.96,660.137 401.509,660.256 402.058,660.379 402.608,660.505 403.157,660.633 403.706,660.762 404.255,660.892 404.804,660.979 405.353,660.85 405.902,660.723 406.452,660.597 407.001,660.475 407.55,660.357 408.099,660.242 408.648,660.133 409.198,660.029 409.747,659.931 410.296,659.839 410.845,659.754 411.394,659.677 411.943,659.608 412.492,659.546 413.042,659.493 413.591,659.449 414.14,659.413 414.689,659.387 415.238,659.37 415.788,659.362 416.337,659.363 416.886,659.373 417.435,659.392 417.984,659.42 418.533,659.456 419.082,659.501 419.632,659.554 420.181,659.615 420.73,659.684 421.279,659.759 421.828,659.841 422.378,659.928 422.927,660.022 423.476,660.12 424.025,660.223 424.574,660.329 425.123,660.439 425.672,660.552 426.222,660.666 426.771,660.782 427.32,660.898 427.869,660.985 428.418,660.869 428.967,660.755 429.517,660.642 430.066,660.532 430.615,660.424 431.164,660.321 431.713,660.221 432.263,660.127 432.812,660.037 433.361,659.954 433.91,659.876 434.459,659.805 435.008,659.741 435.557,659.684 436.107,659.635 436.656,659.593 437.205,659.559 437.754,659.533 438.303,659.516 438.853,659.507 439.402,659.505 439.951,659.513 440.5,659.528 441.049,659.552 441.598,659.583 442.147,659.622 442.697,659.668 443.246,659.722 443.795,659.782 444.344,659.849 444.893,659.922 445.443,660 445.992,660.084 446.541,660.173 447.09,660.265 447.639,660.362 448.188,660.461 448.737,660.563 449.287,660.667 449.836,660.773 450.385,660.879 450.934,660.986 451.483,660.908 452.033,660.803 452.582,660.699 453.131,660.597 453.68,660.497 454.229,660.401 454.778,660.309 455.328,660.22 455.877,660.136 456.426,660.057 456.975,659.984 457.524,659.916 458.073,659.855 458.622,659.8 459.172,659.752 459.721,659.711 460.27,659.677 460.819,659.65 461.368,659.631 461.918,659.619 462.467,659.615 463.016,659.619 463.565,659.63 464.114,659.648 464.663,659.674 465.212,659.707 465.762,659.747 466.311,659.794 466.86,659.847 467.409,659.906 467.958,659.971 468.508,660.042 469.057,660.117 469.606,660.197 470.155,660.281 470.704,660.369 471.253,660.46 471.802,660.554 472.352,660.65 472.901,660.747 473.45,660.845 473.999,660.944 474.548,660.957 475.098,660.858 475.647,660.761 476.196,660.665 476.745,660.571 477.294,660.48 477.843,660.392 478.392,660.308 478.942,660.227 479.491,660.152 480.04,660.08 480.589,660.015 481.138,659.954 481.688,659.9 482.237,659.852 482.786,659.81 483.335,659.774 483.884,659.746 484.433,659.724 484.983,659.709 485.532,659.702 486.081,659.701 486.63,659.708 487.179,659.722 487.728,659.742 488.277,659.769 488.827,659.803 489.376,659.843 489.925,659.89 490.474,659.942 491.023,660 491.573,660.063 492.122,660.132 492.671,660.204 493.22,660.281 493.769,660.362 494.318,660.445 494.867,660.532 495.417,660.621 495.966,660.712 496.515,660.804 497.064,660.897 497.613,660.99 498.163,660.917 498.712,660.825 499.261,660.734 499.81,660.644 500.359,660.557 500.908,660.472 501.457,660.391 502.007,660.312 502.556,660.238 503.105,660.168 503.654,660.103 504.203,660.043 504.753,659.988 505.302,659.939 505.851,659.895 506.4,659.858 506.949,659.827 507.498,659.802 508.047,659.784 508.597,659.773 509.146,659.768 509.695,659.77 510.244,659.779 510.793,659.794 511.342,659.816 511.892,659.844 512.441,659.878 512.99,659.918 513.539,659.964 514.088,660.016 514.638,660.072 515.187,660.134 515.736,660.2 516.285,660.27 516.834,660.345 517.383,660.422 517.932,660.503 518.482,660.586 519.031,660.671 519.58,660.757 520.129,660.845 520.678,660.933 521.227,660.978 521.777,660.89 522.326,660.802 522.875,660.716 523.424,660.631 523.973,660.549 524.523,660.469 525.072,660.392 525.621,660.319 526.17,660.25 526.719,660.184 527.268,660.123 527.818,660.068 528.367,660.017 528.916,659.971 529.465,659.932 530.014,659.898 530.563,659.87 531.112,659.848 531.662,659.833 532.211,659.824 532.76,659.821 533.309,659.825 533.858,659.835 534.407,659.851 534.957,659.874 535.506,659.902 536.055,659.936 536.604,659.976 537.153,660.022 537.703,660.072 538.252,660.128 538.801,660.188 539.35,660.253 539.899,660.321 540.448,660.393 540.997,660.468 541.547,660.546 542.096,660.626 542.645,660.708 543.194,660.791 543.743,660.876 544.292,660.961 544.842,660.954 545.391,660.87 545.94,660.786 546.489,660.704 547.038,660.623 547.588,660.544 548.137,660.468 548.686,660.395 549.235,660.326 549.784,660.26 550.333,660.198 550.883,660.141 551.432,660.088 551.981,660.041 552.53,659.998 553.079,659.961 553.628,659.93 554.177,659.905 554.727,659.885 555.276,659.872 555.825,659.864 556.374,659.863 556.923,659.868 557.472,659.879 558.022,659.896 558.571,659.919 559.12,659.948 559.669,659.982 560.218,660.022 560.768,660.067 561.317,660.117 561.866,660.171 562.415,660.23 562.964,660.293 563.513,660.36 564.063,660.43 564.612,660.503 565.161,660.579 565.71,660.657 566.259,660.736 566.808,660.817 567.357,660.899 567.907,660.981 568.456,660.937 569.005,660.855 569.554,660.774 570.103,660.695 570.653,660.617 571.202,660.541 571.751,660.468 572.3,660.398 572.849,660.331 573.398,660.268 573.948,660.209 574.497,660.155 575.046,660.104 575.595,660.059 576.144,660.019 576.693,659.984 577.242,659.955 577.792,659.931 578.341,659.914 578.89,659.902 579.439,659.895 579.988,659.895 580.537,659.901 581.087,659.913 581.636,659.93 582.185,659.954 582.734,659.982 583.283,660.017 583.833,660.056 584.382,660.101 584.931,660.15 585.48,660.204 586.029,660.262 586.578,660.324 587.128,660.39 587.677,660.458 588.226,660.53 588.775,660.604 589.324,660.68 589.873,660.758 590.422,660.837 590.972,660.917 591.521,660.997 592.07,660.923 592.619,660.844 593.168,660.765 593.718,660.688 594.267,660.612 594.816,660.539 595.365,660.468 595.914,660.4 596.463,660.336 597.013,660.275 597.562,660.218 598.111,660.165 598.66,660.117 599.209,660.073 599.758,660.035 600.307,660.001 600.857,659.974 601.406,659.951 601.955,659.935 602.504,659.924 603.053,659.919 603.602,659.919 604.152,659.926 604.701,659.938 605.25,659.956 605.799,659.98 606.348,660.009 606.898,660.043 607.447,660.082 607.996,660.127 608.545,660.176 609.094,660.229 609.643,660.286 610.193,660.348 610.742,660.412 611.291,660.48 611.84,660.55 612.389,660.623 612.938,660.698 613.487,660.775 614.037,660.852 614.586,660.93 615.135,660.991 615.684,660.913 616.233,660.835 616.782,660.758 617.332,660.682 617.881,660.608 618.43,660.536 618.979,660.467 619.528,660.401 620.078,660.338 620.627,660.278 621.176,660.223 621.725,660.171 622.274,660.124 622.823,660.082 623.372,660.045 623.922,660.013 624.471,659.986 625.02,659.965 625.569,659.949 626.118,659.939 626.667,659.935 627.217,659.936 627.766,659.943 628.315,659.956 628.864,659.974 629.413,659.998 629.963,660.027 630.512,660.061 631.061,660.101 631.61,660.145 632.159,660.193 632.708,660.246 633.258,660.303 633.807,660.364 634.356,660.428 634.905,660.495 635.454,660.565 636.003,660.637 636.552,660.711 637.102,660.787 637.651,660.863 638.2,660.941 638.749,660.982 639.298,660.904 639.847,660.828 640.397,660.752 640.946,660.677 641.495,660.604 642.044,660.534 642.593,660.465 643.143,660.4 643.692,660.338 644.241,660.28 644.79,660.225 645.339,660.175 645.888,660.129 646.438,660.087 646.987,660.051 647.536,660.02 648.085,659.994 648.634,659.973 649.183,659.958 649.732,659.948 650.282,659.944 650.831,659.946 651.38,659.953 651.929,659.966 652.478,659.984 653.028,660.008 653.577,660.037 654.126,660.072 654.675,660.111 655.224,660.155 655.773,660.203 656.323,660.255 656.872,660.312 657.421,660.372 657.97,660.435 658.519,660.502 659.068,660.571 659.617,660.642 660.167,660.715 660.716,660.79 661.265,660.865 661.814,660.941 662.363,660.982 662.912,660.906 663.462,660.83 664.011,660.755 664.56,660.682 665.109,660.61 665.658,660.541 666.208,660.474 666.757,660.41 667.306,660.35 667.855,660.293 668.404,660.239 668.953,660.19 669.503,660.146 670.052,660.106 670.601,660.071 671.15,660.041 671.699,660.016 672.248,659.996 672.797,659.983 673.347,659.974 " />
</g>

<g fill="none" stroke="#dd5400" stroke-opacity="1" stroke-width="2.77778" stroke-linecap="butt" stroke-linejoin="round" transform="matrix(0.72,0,0,0.72,0,0)"
font-family="Helvetica" font-size="13" font-weight="400" font-style="normal" 
>
<polyline fill="none" vector-effect="none" points="111.549,156.833 112.098,156.833 112.647,156.833 113.197,156.833 113.746,156.833 114.295,156.833 114.844,156.833 115.393,156.833 115.942,156.833 116.492,156.833 117.041,156.833 117.59,156.833 118.139,156.833 118.688,156.833 119.238,156.833 119.787,156.833 120.336,156.833 120.885,156.833 121.434,156.833 121.983,156.833 122.533,156.833 123.082,156.833 123.631,156.833 124.18,156.833 124.729,156.833 125.278,156.833 125.827,156.833 126.377,156.833 126.926,156.833 127.475,156.833 128.024,156.833 128.573,156.833 129.122,156.833 129.672,156.833 130.221,156.833 130.77,156.833 131.319,156.833 131.868,156.833 132.417,156.833 132.967,156.833 133.516,156.833 134.065,156.833 134.614,156.833 135.163,156.833 135.712,156.833 136.262,156.833 136.811,156.833 137.36,156.833 137.909,156.833 138.458,156.833 139.008,156.833 139.557,156.833 140.106,156.833 140.655,156.833 141.204,156.833 141.753,156.833 142.303,156.833 142.852,156.833 143.401,156.833 143.95,156.833 144.499,156.833 145.048,156.833 145.598,156.833 146.147,156.833 146.696,156.833 147.245,156.833 147.794,156.833 148.343,156.833 148.893,156.833 149.442,156.833 149.991,156.833 150.54,156.833 151.089,156.833 151.638,156.833 152.188,156.833 152.737,156.833 153.286,156.833 153.835,156.833 154.384,156.833 154.933,156.833 155.482,156.833 156.032,156.833 156.581,156.833 157.13,156.833 157.679,156.833 158.228,156.833 158.777,156.833 159.327,156.833 159.876,156.833 160.425,156.833 160.974,156.833 161.523,156.833 162.072,156.833 162.622,156.833 163.171,156.833 163.72,156.833 164.269,156.833 164.818,156.833 165.367,156.833 165.917,156.833 166.466,156.833 167.015,156.833 167.564,156.833 168.113,156.833 168.663,156.833 169.212,156.833 169.761,156.833 170.31,156.833 170.859,156.833 171.408,156.833 171.958,156.833 172.507,156.833 173.056,156.833 173.605,156.833 174.154,156.833 174.703,156.833 175.253,156.833 175.802,156.833 176.351,156.833 176.9,156.833 177.449,156.833 177.998,156.833 178.548,156.833 179.097,156.833 179.646,156.833 180.195,156.833 180.744,156.833 181.293,156.833 181.842,156.833 182.392,156.833 182.941,156.833 183.49,156.833 184.039,156.833 184.588,156.833 185.137,156.833 185.687,156.833 186.236,156.833 186.785,156.833 187.334,156.833 187.883,156.833 188.432,156.833 188.982,156.833 189.531,156.833 190.08,156.833 190.629,156.833 191.178,156.833 191.727,156.833 192.277,156.833 192.826,156.833 193.375,156.833 193.924,156.833 194.473,156.833 195.023,156.833 195.572,156.833 196.121,156.833 196.67,156.833 197.219,156.833 197.768,156.833 198.318,156.833 198.867,156.833 199.416,156.833 199.965,156.833 200.514,156.833 201.063,156.833 201.613,156.833 202.162,156.833 202.711,156.833 203.26,156.833 203.809,156.833 204.358,156.833 204.908,156.833 205.457,156.833 206.006,156.833 206.555,156.833 207.104,156.833 207.653,156.833 208.202,156.833 208.752,156.833 209.301,156.833 209.85,156.833 210.399,156.833 210.948,156.833 211.497,156.833 212.047,156.833 212.596,156.833 213.145,156.833 213.694,156.833 214.243,156.833 214.792,156.833 215.342,156.833 215.891,156.833 216.44,156.833 216.989,156.833 217.538,156.833 218.087,156.833 218.637,156.833 219.186,156.833 219.735,156.833 220.284,156.833 220.833,156.833 221.383,156.833 221.932,156.833 222.481,156.833 223.03,156.833 223.579,156.833 224.128,156.833 224.678,156.833 225.227,156.833 225.776,156.833 226.325,156.833 226.874,156.833 227.423,156.833 227.973,156.833 228.522,156.833 229.071,156.833 229.62,156.833 230.169,156.833 230.718,156.833 231.268,156.833 231.817,156.833 232.366,156.833 232.915,156.833 233.464,156.833 234.013,156.833 234.563,156.833 235.112,156.833 235.661,156.833 236.21,156.833 236.759,156.833 237.308,156.833 237.857,156.833 238.407,156.833 238.956,156.833 239.505,156.833 240.054,156.833 240.603,156.833 241.152,156.833 241.702,156.833 242.251,156.833 242.8,156.833 243.349,156.833 243.898,156.833 244.447,156.833 244.997,156.833 245.546,156.833 246.095,156.833 246.644,156.833 247.193,156.833 247.742,156.833 248.292,156.833 248.841,156.833 249.39,156.833 249.939,156.833 250.488,156.833 251.038,156.833 251.587,156.833 252.136,661 252.685,661 253.234,661 253.783,661 254.333,661 254.882,661 255.431,661 255.98,661 256.529,661 257.078,661 257.628,661 258.177,661 258.726,661 259.275,661 259.824,661 260.373,661 260.922,661 261.472,661 262.021,661 262.57,661 263.119,661 263.668,661 264.217,661 264.767,661 265.316,661 265.865,661 266.414,661 266.963,661 267.513,661 268.062,661 268.611,661 269.16,661 269.709,661 270.258,661 270.807,661 271.357,661 271.906,661 272.455,661 273.004,661 273.553,661 274.103,661 274.652,661 275.201,661 275.75,661 276.299,661 276.848,661 277.397,661 277.947,661 278.496,661 279.045,661 279.594,661 280.143,661 280.693,661 281.242,661 281.791,661 282.34,661 282.889,661 283.438,661 283.987,661 284.537,661 285.086,661 285.635,661 286.184,661 286.733,661 287.283,661 287.832,661 288.381,661 288.93,661 289.479,661 290.028,661 290.578,661 291.127,661 291.676,661 292.225,661 292.774,661 293.323,661 293.872,661 294.422,661 294.971,661 295.52,661 296.069,661 296.618,661 297.168,661 297.717,661 298.266,661 298.815,661 299.364,661 299.913,661 300.462,661 301.012,661 301.561,661 302.11,661 302.659,661 303.208,661 303.758,661 304.307,661 304.856,661 305.405,661 305.954,661 306.503,661 307.052,661 307.602,661 308.151,661 308.7,661 309.249,661 309.798,661 310.348,661 310.897,661 311.446,661 311.995,661 312.544,661 313.093,661 313.642,661 314.192,661 314.741,661 315.29,661 315.839,661 316.388,661 316.938,661 317.487,661 318.036,661 318.585,661 319.134,661 319.683,661 320.233,661 320.782,661 321.331,661 321.88,661 322.429,661 322.978,661 323.527,661 324.077,661 324.626,661 325.175,661 325.724,661 326.273,661 326.823,661 327.372,661 327.921,661 328.47,661 329.019,661 329.568,661 330.117,661 330.667,661 331.216,661 331.765,661 332.314,661 332.863,661 333.413,661 333.962,661 334.511,661 335.06,661 335.609,661 336.158,661 336.707,661 337.257,661 337.806,661 338.355,661 338.904,661 339.453,661 340.003,661 340.552,661 341.101,661 341.65,661 342.199,661 342.748,661 343.297,661 343.847,661 344.396,661 344.945,661 345.494,661 346.043,661 346.592,661 347.142,661 347.691,661 348.24,661 348.789,661 349.338,661 349.888,661 350.437,661 350.986,661 351.535,661 352.084,661 352.633,661 353.182,661 353.732,661 354.281,661 354.83,661 355.379,661 355.928,661 356.478,661 357.027,661 357.576,661 358.125,661 358.674,661 359.223,661 359.772,661 360.322,661 360.871,661 361.42,661 361.969,661 362.518,661 363.068,661 363.617,661 364.166,661 364.715,661 365.264,661 365.813,661 366.362,661 366.912,661 367.461,661 368.01,661 368.559,661 369.108,661 369.658,661 370.207,661 370.756,661 371.305,661 371.854,661 372.403,661 372.953,661 373.502,661 374.051,661 374.6,661 375.149,661 375.698,661 376.247,661 376.797,661 377.346,661 377.895,661 378.444,661 378.993,661 379.543,661 380.092,661 380.641,661 381.19,661 381.739,661 382.288,661 382.837,661 383.387,661 383.936,661 384.485,661 385.034,661 385.583,661 386.133,661 386.682,661 387.231,661 387.78,661 388.329,661 388.878,661 389.427,661 389.977,661 390.526,661 391.075,661 391.624,661 392.173,661 392.723,661 393.272,661 393.821,661 394.37,661 394.919,661 395.468,661 396.017,661 396.567,661 397.116,661 397.665,661 398.214,661 398.763,661 399.313,661 399.862,661 400.411,661 400.96,661 401.509,661 402.058,661 402.608,661 403.157,661 403.706,661 404.255,661 404.804,661 405.353,661 405.902,661 406.452,661 407.001,661 407.55,661 408.099,661 408.648,661 409.198,661 409.747,661 410.296,661 410.845,661 411.394,661 411.943,661 412.492,661 413.042,661 413.591,661 414.14,661 414.689,661 415.238,661 415.788,661 416.337,661 416.886,661 417.435,661 417.984,661 418.533,661 419.082,661 419.632,661 420.181,661 420.73,661 421.279,661 421.828,661 422.378,661 422.927,661 423.476,661 424.025,661 424.574,661 425.123,661 425.672,661 426.222,661 426.771,661 427.32,661 427.869,661 428.418,661 428.967,661 429.517,661 430.066,661 430.615,661 431.164,661 431.713,661 432.263,661 432.812,661 433.361,661 433.91,661 434.459,661 435.008,661 435.557,661 436.107,661 436.656,661 437.205,661 437.754,661 438.303,661 438.853,661 439.402,661 439.951,661 440.5,661 441.049,661 441.598,661 442.147,661 442.697,661 443.246,661 443.795,661 444.344,661 444.893,661 445.443,661 445.992,661 446.541,661 447.09,661 447.639,661 448.188,661 448.737,661 449.287,661 449.836,661 450.385,661 450.934,661 451.483,661 452.033,661 452.582,661 453.131,661 453.68,661 454.229,661 454.778,661 455.328,661 455.877,661 456.426,661 456.975,661 457.524,661 458.073,661 458.622,661 459.172,661 459.721,661 460.27,661 460.819,661 461.368,661 461.918,661 462.467,661 463.016,661 463.565,661 464.114,661 464.663,661 465.212,661 465.762,661 466.311,661 466.86,661 467.409,661 467.958,661 468.508,661 469.057,661 469.606,661 470.155,661 470.704,661 471.253,661 471.802,661 472.352,661 472.901,661 473.45,661 473.999,661 474.548,661 475.098,661 475.647,661 476.196,661 476.745,661 477.294,661 477.843,661 478.392,661 478.942,661 479.491,661 480.04,661 480.589,661 481.138,661 481.688,661 482.237,661 482.786,661 483.335,661 483.884,661 484.433,661 484.983,661 485.532,661 486.081,661 486.63,661 487.179,661 487.728,661 488.277,661 488.827,661 489.376,661 489.925,661 490.474,661 491.023,661 491.573,661 492.122,661 492.671,661 493.22,661 493.769,661 494.318,661 494.867,661 495.417,661 495.966,661 496.515,661 497.064,661 497.613,661 498.163,661 498.712,661 499.261,661 499.81,661 500.359,661 500.908,661 501.457,661 502.007,661 502.556,661 503.105,661 503.654,661 504.203,661 504.753,661 505.302,661 505.851,661 506.4,661 506.949,661 507.498,661 508.047,661 508.597,661 509.146,661 509.695,661 510.244,661 510.793,661 511.342,661 511.892,661 512.441,661 512.99,661 513.539,661 514.088,661 514.638,661 515.187,661 515.736,661 516.285,661 516.834,661 517.383,661 517.932,661 518.482,661 519.031,661 519.58,661 520.129,661 520.678,661 521.227,661 521.777,661 522.326,661 522.875,661 523.424,661 523.973,661 524.523,661 525.072,661 525.621,661 526.17,661 526.719,661 527.268,661 527.818,661 528.367,661 528.916,661 529.465,661 530.014,661 530.563,661 531.112,661 531.662,661 532.211,661 532.76,661 533.309,661 533.858,661 534.407,661 534.957,661 535.506,661 536.055,661 536.604,661 537.153,661 537.703,661 538.252,661 538.801,661 539.35,661 539.899,661 540.448,661 540.997,661 541.547,661 542.096,661 542.645,661 543.194,661 543.743,661 544.292,661 544.842,661 545.391,661 545.94,661 546.489,661 547.038,661 547.588,661 548.137,661 548.686,661 549.235,661 549.784,661 550.333,661 550.883,661 551.432,661 551.981,661 552.53,661 553.079,661 553.628,661 554.177,661 554.727,661 555.276,661 555.825,661 556.374,661 556.923,661 557.472,661 558.022,661 558.571,661 559.12,661 559.669,661 560.218,661 560.768,661 561.317,661 561.866,661 562.415,661 562.964,661 563.513,661 564.063,661 564.612,661 565.161,661 565.71,661 566.259,661 566.808,661 567.357,661 567.907,661 568.456,661 569.005,661 569.554,661 570.103,661 570.653,661 571.202,661 571.751,661 572.3,661 572.849,661 573.398,661 573.948,661 574.497,661 575.046,661 575.595,661 576.144,661 576.693,661 577.242,661 577.792,661 578.341,661 578.89,661 579.439,661 579.988,661 580.537,661 581.087,661 581.636,661 582.185,661 582.734,661 583.283,661 583.833,661 584.382,661 584.931,661 585.48,661 586.029,661 586.578,661 587.128,661 587.677,661 588.226,661 588.775,661 589.324,661 589.873,661 590.422,661 590.972,661 591.521,661 592.07,661 592.619,661 593.168,661 593.718,661 594.267,661 594.816,661 595.365,661 595.914,661 596.463,661 597.013,661 597.562,661 598.111,661 598.66,661 599.209,661 599.758,661 600.307,661 600.857,661 601.406,661 601.955,661 602.504,661 603.053,661 603.602,661 604.152,661 604.701,661 605.25,661 605.799,661 606.348,661 606.898,661 607.447,661 607.996,661 608.545,661 609.094,661 609.643,661 610.193,661 610.742,661 611.291,661 611.84,661 612.389,661 612.938,661 613.487,661 614.037,661 614.586,661 615.135,661 615.684,661 616.233,661 616.782,661 617.332,661 617.881,661 618.43,661 618.979,661 619.528,661 620.078,661 620.627,661 621.176,661 621.725,661 622.274,661 622.823,661 623.372,661 623.922,661 624.471,661 625.02,661 625.569,661 626.118,661 626.667,661 627.217,661 627.766,661 628.315,661 628.864,661 629.413,661 629.963,661 630.512,661 631.061,661 631.61,661 632.159,661 632.708,661 633.258,661 633.807,661 634.356,661 634.905,661 635.454,661 636.003,661 636.552,661 637.102,661 637.651,661 638.2,661 638.749,661 639.298,661 639.847,661 640.397,661 640.946,661 641.495,661 642.044,661 642.593,661 643.143,661 643.692,661 644.241,661 644.79,661 645.339,661 645.888,661 646.438,661 646.987,661 647.536,661 648.085,661 648.634,661 649.183,661 649.732,661 650.282,661 650.831,661 651.38,661 651.929,661 652.478,661 653.028,661 653.577,661 654.126,661 654.675,661 655.224,661 655.773,661 656.323,661 656.872,661 657.421,661 657.97,661 658.519,661 659.068,661 659.617,661 660.167,661 660.716,661 661.265,661 661.814,661 662.363,661 662.912,661 663.462,661 664.011,661 664.56,661 665.109,661 665.658,661 666.208,661 666.757,661 667.306,661 667.855,661 668.404,661 668.953,661 669.503,661 670.052,661 670.601,661 671.15,661 671.699,661 672.248,661 672.797,661 673.347,661 " />
</g>
</g>
</svg>
