<?xml version="1.0" encoding="UTF-8" standalone="no"?>
<svg width="255.411mm" height="210.256mm"
 viewBox="0 0 724 596"
 xmlns="http://www.w3.org/2000/svg" xmlns:xlink="http://www.w3.org/1999/xlink"  version="1.2" baseProfile="tiny">
<title>Qt SVG Document</title>
<desc>MATLAB, The MathWorks, Inc. Version 25.2.0.3055257 R2025b Update 2</desc>
<defs>
</defs>
<g fill="none" stroke="black" stroke-width="1" fill-rule="evenodd" stroke-linecap="square" stroke-linejoin="bevel" >

<g fill="#ffffff" fill-opacity="1" stroke="none" transform="matrix(0.72,0,0,0.72,0,0)"
font-family="Sans Serif" font-size="9" font-weight="400" font-style="normal" 
>
<path vector-effect="none" fill-rule="evenodd" d="M0,0 L1007,0 L1007,828 L0,828 L0,0"/>
</g>

<g fill="#ffffff" fill-opacity="1" stroke="none" transform="matrix(7.2e-05,0,0,7.2e-05,0,0)"
font-family="Sans Serif" font-size="9" font-weight="400" font-style="normal" 
>
<path vector-effect="none" fill-rule="evenodd" d="M1.31e+06,620000 L1.31e+06,7.36e+06 L9.1e+06,7.36e+06 L9.1e+06,620000 L1.31e+06,620000"/>
</g>

<g fill="#212121" fill-opacity="1" stroke="#212121" stroke-opacity="1" stroke-width="0.694444" stroke-linecap="square" stroke-linejoin="round" transform="matrix(0.72,0,0,0.72,0,0)"
font-family="Sans Serif" font-size="9" font-weight="400" font-style="normal" 
>
<polyline fill="none" vector-effect="none" points="131,736 910,736 " />
<polyline fill="none" vector-effect="none" points="131,62 910,62 " />
<polyline fill="none" vector-effect="none" points="131,736 131,728.21 " />
<polyline fill="none" vector-effect="none" points="131,69.79 131,62 " />
<polyline fill="none" vector-effect="none" points="260.833,736 260.833,728.21 " />
<polyline fill="none" vector-effect="none" points="260.833,69.79 260.833,62 " />
<polyline fill="none" vector-effect="none" points="390.667,736 390.667,728.21 " />
<polyline fill="none" vector-effect="none" points="390.667,69.79 390.667,62 " />
<polyline fill="none" vector-effect="none" points="520.5,736 520.5,728.21 " />
<polyline fill="none" vector-effect="none" points="520.5,69.79 520.5,62 " />
<polyline fill="none" vector-effect="none" points="650.333,736 650.333,728.21 " />
<polyline fill="none" vector-effect="none" points="650.333,69.79 650.333,62 " />
<polyline fill="none" vector-effect="none" points="780.167,736 780.167,728.21 " />
<polyline fill="none" vector-effect="none" points="780.167,69.79 780.167,62 " />
<polyline fill="none" vector-effect="none" points="910,736 910,728.21 " />
<polyline fill="none" vector-effect="none" points="910,69.79 910,62 " />
</g>

<g fill="#212121" fill-opacity="1" stroke="#212121" stroke-opacity="1" stroke-width="1" stroke-linecap="square" stroke-linejoin="bevel" transform="matrix(0.72,0,0,0.72,91.8,542.56)"
font-family="Helvetica" font-size="13" font-weight="400" font-style="normal" 
>
<text fill="#212121" fill-opacity="1" stroke="none" xml:space="preserve" x="0" y="0" font-family="Helvetica" font-size="13" font-weight="400" font-style="normal" 
 >0</text>
</g>

<g fill="#212121" fill-opacity="1" stroke="#212121" stroke-opacity="1" stroke-width="1" stroke-linecap="square" stroke-linejoin="bevel" transform="matrix(0.72,0,0,0.72,179.88,542.56)"
font-family="Helvetica" font-size="13" font-weight="400" font-style="normal" 
>
<text fill="#212121" fill-opacity="1" stroke="none" xml:space="preserve" x="0" y="0" font-family="Helvetica" font-size="13" font-weight="400" font-style="normal" 
 >200</text>
</g>

<g fill="#212121" fill-opacity="1" stroke="#212121" stroke-opacity="1" stroke-width="1" stroke-linecap="square" stroke-linejoin="bevel" transform="matrix(0.72,0,0,0.72,273.36,542.56)"
font-family="Helvetica" font-size="13" font-weight="400" font-style="normal" 
>
<text fill="#212121" fill-opacity="1" stroke="none" xml:space="preserve" x="0" y="0" font-family="Helvetica" font-size="13" font-weight="400" font-style="normal" 
 >400</text>
</g>

<g fill="#212121" fill-opacity="1" stroke="#212121" stroke-opacity="1" stroke-width="1" stroke-linecap="square" stroke-linejoin="bevel" transform="matrix(0.72,0,0,0.72,366.84,542.56)"
font-family="Helvetica" font-size="13" font-weight="400" font-style="normal" 
>
<text fill="#212121" fill-opacity="1" stroke="none" xml:space="preserve" x="0" y="0" font-family="Helvetica" font-size="13" font-weight="400" font-style="normal" 
 >600</text>
</g>

<g fill="#212121" fill-opacity="1" stroke="#212121" stroke-opacity="1" stroke-width="1" stroke-linecap="square" stroke-linejoin="bevel" transform="matrix(0.72,0,0,0.72,460.32,542.56)"
font-family="Helvetica" font-size="13" font-weight="400" font-style="normal" 
>
<text fill="#212121" fill-opacity="1" stroke="none" xml:space="preserve" x="0" y="0" font-family="Helvetica" font-size="13" font-weight="400" font-style="normal" 
 >800</text>
</g>

<g fill="#212121" fill-opacity="1" stroke="#212121" stroke-opacity="1" stroke-width="1" stroke-linecap="square" stroke-linejoin="bevel" transform="matrix(0.72,0,0,0.72,551.28,542.56)"
font-family="Helvetica" font-size="13" font-weight="400" font-style="normal" 
>
<text fill="#212121" fill-opacity="1" stroke="none" xml:space="preserve" x="0" y="0" font-family="Helvetica" font-size="13" font-weight="400" font-style="normal" 
 >1000</text>
</g>

<g fill="#212121" fill-opacity="1" stroke="#212121" stroke-opacity="1" stroke-width="1" stroke-linecap="square" stroke-linejoin="bevel" transform="matrix(0.72,0,0,0.72,644.76,542.56)"
font-family="Helvetica" font-size="13" font-weight="400" font-style="normal" 
>
<text fill="#212121" fill-opacity="1" stroke="none" xml:space="preserve" x="0" y="0" font-family="Helvetica" font-size="13" font-weight="400" font-style="normal" 
 >1200</text>
</g>

<g fill="#212121" fill-opacity="1" stroke="#212121" stroke-opacity="1" stroke-width="0.694444" stroke-linecap="square" stroke-linejoin="round" transform="matrix(0.72,0,0,0.72,0,0)"
font-family="Helvetica" font-size="13" font-weight="400" font-style="normal" 
>
<polyline fill="none" vector-effect="none" points="131,736 131,62 " />
<polyline fill="none" vector-effect="none" points="910,736 910,62 " />
<polyline fill="none" vector-effect="none" points="131,736 138.79,736 " />
<polyline fill="none" vector-effect="none" points="902.21,736 910,736 " />
<polyline fill="none" vector-effect="none" points="131,623.667 138.79,623.667 " />
<polyline fill="none" vector-effect="none" points="902.21,623.667 910,623.667 " />
<polyline fill="none" vector-effect="none" points="131,511.333 138.79,511.333 " />
<polyline fill="none" vector-effect="none" points="902.21,511.333 910,511.333 " />
<polyline fill="none" vector-effect="none" points="131,399 138.79,399 " />
<polyline fill="none" vector-effect="none" points="902.21,399 910,399 " />
<polyline fill="none" vector-effect="none" points="131,286.667 138.79,286.667 " />
<polyline fill="none" vector-effect="none" points="902.21,286.667 910,286.667 " />
<polyline fill="none" vector-effect="none" points="131,174.333 138.79,174.333 " />
<polyline fill="none" vector-effect="none" points="902.21,174.333 910,174.333 " />
<polyline fill="none" vector-effect="none" points="131,62 138.79,62 " />
<polyline fill="none" vector-effect="none" points="902.21,62 910,62 " />
</g>

<g fill="#212121" fill-opacity="1" stroke="#212121" stroke-opacity="1" stroke-width="1" stroke-linecap="square" stroke-linejoin="bevel" transform="matrix(0.72,0,0,0.72,85.28,533.16)"
font-family="Helvetica" font-size="13" font-weight="400" font-style="normal" 
>
<text fill="#212121" fill-opacity="1" stroke="none" xml:space="preserve" x="0" y="0" font-family="Helvetica" font-size="13" font-weight="400" font-style="normal" 
 >0</text>
</g>

<g fill="#212121" fill-opacity="1" stroke="#212121" stroke-opacity="1" stroke-width="1" stroke-linecap="square" stroke-linejoin="bevel" transform="matrix(0.72,0,0,0.72,77.36,452.28)"
font-family="Helvetica" font-size="13" font-weight="400" font-style="normal" 
>
<text fill="#212121" fill-opacity="1" stroke="none" xml:space="preserve" x="0" y="0" font-family="Helvetica" font-size="13" font-weight="400" font-style="normal" 
 >0.2</text>
</g>

<g fill="#212121" fill-opacity="1" stroke="#212121" stroke-opacity="1" stroke-width="1" stroke-linecap="square" stroke-linejoin="bevel" transform="matrix(0.72,0,0,0.72,77.36,371.4)"
font-family="Helvetica" font-size="13" font-weight="400" font-style="normal" 
>
<text fill="#212121" fill-opacity="1" stroke="none" xml:space="preserve" x="0" y="0" font-family="Helvetica" font-size="13" font-weight="400" font-style="normal" 
 >0.4</text>
</g>

<g fill="#212121" fill-opacity="1" stroke="#212121" stroke-opacity="1" stroke-width="1" stroke-linecap="square" stroke-linejoin="bevel" transform="matrix(0.72,0,0,0.72,77.36,290.52)"
font-family="Helvetica" font-size="13" font-weight="400" font-style="normal" 
>
<text fill="#212121" fill-opacity="1" stroke="none" xml:space="preserve" x="0" y="0" font-family="Helvetica" font-size="13" font-weight="400" font-style="normal" 
 >0.6</text>
</g>

<g fill="#212121" fill-opacity="1" stroke="#212121" stroke-opacity="1" stroke-width="1" stroke-linecap="square" stroke-linejoin="bevel" transform="matrix(0.72,0,0,0.72,77.36,209.64)"
font-family="Helvetica" font-size="13" font-weight="400" font-style="normal" 
>
<text fill="#212121" fill-opacity="1" stroke="none" xml:space="preserve" x="0" y="0" font-family="Helvetica" font-size="13" font-weight="400" font-style="normal" 
 >0.8</text>
</g>

<g fill="#212121" fill-opacity="1" stroke="#212121" stroke-opacity="1" stroke-width="1" stroke-linecap="square" stroke-linejoin="bevel" transform="matrix(0.72,0,0,0.72,85.28,128.76)"
font-family="Helvetica" font-size="13" font-weight="400" font-style="normal" 
>
<text fill="#212121" fill-opacity="1" stroke="none" xml:space="preserve" x="0" y="0" font-family="Helvetica" font-size="13" font-weight="400" font-style="normal" 
 >1</text>
</g>

<g fill="#212121" fill-opacity="1" stroke="#212121" stroke-opacity="1" stroke-width="1" stroke-linecap="square" stroke-linejoin="bevel" transform="matrix(0.72,0,0,0.72,77.36,47.88)"
font-family="Helvetica" font-size="13" font-weight="400" font-style="normal" 
>
<text fill="#212121" fill-opacity="1" stroke="none" xml:space="preserve" x="0" y="0" font-family="Helvetica" font-size="13" font-weight="400" font-style="normal" 
 >1.2</text>
</g>

<g fill="none" stroke="#1171be" stroke-opacity="1" stroke-width="2.77778" stroke-linecap="butt" stroke-linejoin="round" transform="matrix(0.72,0,0,0.72,0,0)"
font-family="Helvetica" font-size="13" font-weight="400" font-style="normal" 
>
<polyline fill="none" vector-effect="none" points="131.649,174.333 132.298,174.333 132.947,174.333 133.597,174.333 134.246,174.333 134.895,174.333 135.544,174.333 136.193,174.333 136.842,174.333 137.492,174.333 138.141,174.333 138.79,174.333 139.439,174.333 140.088,174.333 140.738,174.333 141.387,174.333 142.036,174.333 142.685,174.333 143.334,174.333 143.983,174.333 144.633,174.333 145.282,174.333 145.931,174.333 146.58,174.333 147.229,174.333 147.878,174.333 148.527,174.333 149.177,174.333 149.826,174.333 150.475,174.333 151.124,174.333 151.773,174.333 152.423,174.333 153.072,174.333 153.721,174.333 154.37,174.333 155.019,174.333 155.668,174.333 156.318,174.333 156.967,174.333 157.616,174.333 158.265,174.333 158.914,174.333 159.563,174.333 160.212,174.333 160.862,174.333 161.511,174.333 162.16,174.333 162.809,174.333 163.458,174.333 164.107,174.333 164.757,174.333 165.406,174.333 166.055,174.333 166.704,174.333 167.353,174.333 168.003,174.333 168.652,174.333 169.301,174.333 169.95,174.333 170.599,174.333 171.248,174.333 171.898,174.333 172.547,174.333 173.196,174.333 173.845,174.333 174.494,174.333 175.143,174.333 175.792,174.333 176.442,174.333 177.091,174.333 177.74,174.333 178.389,174.333 179.038,174.333 179.688,174.333 180.337,174.333 180.986,174.333 181.635,174.333 182.284,174.333 182.933,174.333 183.583,174.333 184.232,174.333 184.881,174.333 185.53,174.333 186.179,174.333 186.828,174.333 187.477,174.333 188.127,174.333 188.776,174.333 189.425,174.333 190.074,174.333 190.723,174.333 191.372,174.333 192.022,174.333 192.671,174.333 193.32,174.333 193.969,174.333 194.618,174.333 195.268,174.333 195.917,174.333 196.566,174.333 197.215,174.333 197.864,174.333 198.513,174.333 199.163,174.333 199.812,174.333 200.461,174.333 201.11,174.333 201.759,174.333 202.408,174.333 203.057,174.333 203.707,174.333 204.356,174.333 205.005,174.333 205.654,174.333 206.303,174.333 206.952,174.333 207.602,174.333 208.251,174.333 208.9,174.333 209.549,174.333 210.198,174.333 210.848,174.333 211.497,174.333 212.146,174.333 212.795,174.333 213.444,174.333 214.093,174.333 214.742,174.333 215.392,174.333 216.041,174.333 216.69,174.333 217.339,174.333 217.988,174.333 218.637,174.333 219.287,174.333 219.936,174.333 220.585,174.333 221.234,174.333 221.883,174.333 222.533,174.333 223.182,174.333 223.831,174.333 224.48,174.333 225.129,174.333 225.778,174.333 226.428,174.333 227.077,174.333 227.726,174.333 228.375,174.333 229.024,174.333 229.673,174.333 230.322,174.333 230.972,174.333 231.621,174.333 232.27,174.333 232.919,174.333 233.568,174.333 234.217,174.333 234.867,174.333 235.516,174.333 236.165,174.333 236.814,174.333 237.463,174.333 238.113,174.333 238.762,174.333 239.411,174.333 240.06,174.333 240.709,174.333 241.358,174.333 242.008,174.333 242.657,174.333 243.306,174.333 243.955,174.333 244.604,174.333 245.253,174.333 245.902,174.333 246.552,174.333 247.201,174.333 247.85,174.333 248.499,174.333 249.148,174.333 249.798,174.333 250.447,174.333 251.096,174.333 251.745,174.333 252.394,174.333 253.043,174.333 253.693,174.333 254.342,174.333 254.991,174.333 255.64,174.333 256.289,174.333 256.938,174.333 257.587,174.333 258.237,174.333 258.886,174.333 259.535,174.333 260.184,174.333 260.833,174.333 261.483,174.333 262.132,174.333 262.781,174.333 263.43,174.333 264.079,174.333 264.728,174.333 265.378,174.333 266.027,174.333 266.676,174.333 267.325,174.333 267.974,174.333 268.623,174.333 269.272,174.333 269.922,174.333 270.571,174.333 271.22,174.333 271.869,174.333 272.518,174.333 273.168,174.333 273.817,174.333 274.466,174.333 275.115,174.333 275.764,174.333 276.413,174.333 277.063,174.333 277.712,174.333 278.361,174.333 279.01,174.333 279.659,174.333 280.308,174.333 280.957,174.333 281.607,174.333 282.256,174.333 282.905,174.333 283.554,174.333 284.203,174.333 284.853,174.333 285.502,174.333 286.151,174.333 286.8,174.333 287.449,174.333 288.098,174.333 288.747,174.333 289.397,174.333 290.046,174.333 290.695,174.333 291.344,174.333 291.993,174.333 292.642,174.333 293.292,174.333 293.941,174.333 294.59,174.333 295.239,174.333 295.888,174.333 296.538,174.333 297.187,174.333 297.836,736 298.485,736 299.134,736 299.783,736 300.432,736 301.082,736 301.731,736 302.38,736 303.029,736 303.678,736 304.328,736 304.977,736 305.626,736 306.275,736 306.924,736 307.573,736 308.223,736 308.872,736 309.521,736 310.17,736 310.819,736 311.468,736 312.117,736 312.767,736 313.416,736 314.065,736 314.714,736 315.363,736 316.013,736 316.662,736 317.311,736 317.96,736 318.609,736 319.258,736 319.908,736 320.557,736 321.206,736 321.855,736 322.504,736 323.153,736 323.802,736 324.452,736 325.101,736 325.75,736 326.399,736 327.048,736 327.698,736 328.347,736 328.996,736 329.645,736 330.294,736 330.943,736 331.592,736 332.242,736 332.891,736 333.54,736 334.189,736 334.838,736 335.487,736 336.137,736 336.786,736 337.435,736 338.084,736 338.733,736 339.383,736 340.032,736 340.681,736 341.33,736 341.979,736 342.628,736 343.277,736 343.927,736 344.576,736 345.225,736 345.874,736 346.523,736 347.172,736 347.822,736 348.471,736 349.12,736 349.769,736 350.418,736 351.068,736 351.717,736 352.366,736 353.015,736 353.664,736 354.313,736 354.962,736 355.612,736 356.261,736 356.91,736 357.559,736 358.208,736 358.858,736 359.507,736 360.156,736 360.805,736 361.454,736 362.103,736 362.753,736 363.402,736 364.051,736 364.7,736 365.349,736 365.998,736 366.647,736 367.297,736 367.946,736 368.595,736 369.244,736 369.893,736 370.543,736 371.192,736 371.841,736 372.49,736 373.139,736 373.788,736 374.438,736 375.087,736 375.736,736 376.385,736 377.034,736 377.683,736 378.332,736 378.982,736 379.631,736 380.28,736 380.929,736 381.578,736 382.228,736 382.877,736 383.526,736 384.175,736 384.824,736 385.473,736 386.122,736 386.772,736 387.421,736 388.07,736 388.719,736 389.368,736 390.017,736 390.667,736 391.316,736 391.965,736 392.614,736 393.263,736 393.913,736 394.562,736 395.211,736 395.86,736 396.509,736 397.158,736 397.807,736 398.457,736 399.106,736 399.755,736 400.404,736 401.053,736 401.703,736 402.352,736 403.001,736 403.65,736 404.299,736 404.948,736 405.598,736 406.247,736 406.896,736 407.545,736 408.194,736 408.843,736 409.492,736 410.142,736 410.791,736 411.44,736 412.089,736 412.738,736 413.388,736 414.037,736 414.686,736 415.335,736 415.984,736 416.633,736 417.283,736 417.932,736 418.581,736 419.23,736 419.879,736 420.528,736 421.177,736 421.827,736 422.476,736 423.125,736 423.774,736 424.423,736 425.073,736 425.722,736 426.371,736 427.02,736 427.669,736 428.318,736 428.967,736 429.617,736 430.266,736 430.915,736 431.564,736 432.213,736 432.862,736 433.512,736 434.161,736 434.81,736 435.459,736 436.108,736 436.758,736 437.407,736 438.056,736 438.705,736 439.354,736 440.003,736 440.652,736 441.302,736 441.951,736 442.6,736 443.249,736 443.898,736 444.547,736 445.197,736 445.846,736 446.495,736 447.144,736 447.793,736 448.443,736 449.092,736 449.741,736 450.39,736 451.039,736 451.688,736 452.337,736 452.987,736 453.636,736 454.285,736 454.934,736 455.583,736 456.233,736 456.882,736 457.531,736 458.18,736 458.829,736 459.478,736 460.128,736 460.777,736 461.426,736 462.075,736 462.724,736 463.373,736 464.022,736 464.672,736 465.321,736 465.97,736 466.619,736 467.268,736 467.918,736 468.567,736 469.216,736 469.865,736 470.514,736 471.163,736 471.813,736 472.462,736 473.111,736 473.76,736 474.409,736 475.058,736 475.707,736 476.357,736 477.006,736 477.655,736 478.304,736 478.953,736 479.603,736 480.252,736 480.901,736 481.55,736 482.199,736 482.848,736 483.497,736 484.147,736 484.796,736 485.445,736 486.094,736 486.743,736 487.392,736 488.042,736 488.691,736 489.34,736 489.989,736 490.638,736 491.288,736 491.937,736 492.586,736 493.235,736 493.884,736 494.533,736 495.182,736 495.832,736 496.481,736 497.13,736 497.779,736 498.428,736 499.078,736 499.727,736 500.376,736 501.025,736 501.674,736 502.323,736 502.973,736 503.622,736 504.271,736 504.92,736 505.569,736 506.218,736 506.867,736 507.517,736 508.166,736 508.815,736 509.464,736 510.113,736 510.763,736 511.412,736 512.061,736 512.71,736 513.359,736 514.008,736 514.657,736 515.307,736 515.956,736 516.605,736 517.254,736 517.903,736 518.552,736 519.202,736 519.851,736 520.5,736 521.149,736 521.798,736 522.448,736 523.097,736 523.746,736 524.395,736 525.044,736 525.693,736 526.343,736 526.992,736 527.641,736 528.29,736 528.939,736 529.588,736 530.237,736 530.887,736 531.536,736 532.185,736 532.834,736 533.483,736 534.133,736 534.782,736 535.431,736 536.08,736 536.729,736 537.378,736 538.028,736 538.677,736 539.326,736 539.975,736 540.624,736 541.273,736 541.922,736 542.572,736 543.221,736 543.87,736 544.519,736 545.168,736 545.818,736 546.467,736 547.116,736 547.765,736 548.414,736 549.063,736 549.713,736 550.362,736 551.011,736 551.66,736 552.309,736 552.958,736 553.607,736 554.257,736 554.906,736 555.555,736 556.204,736 556.853,736 557.503,736 558.152,736 558.801,736 559.45,736 560.099,736 560.748,736 561.398,736 562.047,736 562.696,736 563.345,736 563.994,736 564.643,736 565.292,736 565.942,736 566.591,736 567.24,736 567.889,736 568.538,736 569.188,736 569.837,736 570.486,736 571.135,736 571.784,736 572.433,736 573.083,736 573.732,736 574.381,736 575.03,736 575.679,736 576.328,736 576.977,736 577.627,736 578.276,736 578.925,736 579.574,736 580.223,736 580.872,736 581.522,736 582.171,736 582.82,736 583.469,736 584.118,736 584.768,736 585.417,736 586.066,736 586.715,736 587.364,736 588.013,736 588.662,736 589.312,736 589.961,736 590.61,736 591.259,736 591.908,736 592.557,736 593.207,736 593.856,736 594.505,736 595.154,736 595.803,736 596.453,736 597.102,736 597.751,736 598.4,736 599.049,736 599.698,736 600.347,736 600.997,736 601.646,736 602.295,736 602.944,736 603.593,736 604.242,736 604.892,736 605.541,736 606.19,736 606.839,736 607.488,736 608.138,736 608.787,736 609.436,736 610.085,736 610.734,736 611.383,736 612.032,736 612.682,736 613.331,736 613.98,736 614.629,736 615.278,736 615.927,736 616.577,736 617.226,736 617.875,736 618.524,736 619.173,736 619.823,736 620.472,736 621.121,736 621.77,736 622.419,736 623.068,736 623.718,736 624.367,736 625.016,736 625.665,736 626.314,736 626.963,736 627.612,736 628.262,736 628.911,736 629.56,736 630.209,736 630.858,736 631.508,736 632.157,736 632.806,736 633.455,736 634.104,736 634.753,736 635.403,736 636.052,736 636.701,736 637.35,736 637.999,736 638.648,736 639.297,736 639.947,736 640.596,736 641.245,736 641.894,736 642.543,736 643.193,736 643.842,736 644.491,736 645.14,736 645.789,736 646.438,736 647.088,736 647.737,736 648.386,736 649.035,736 649.684,736 650.333,736 650.982,736 651.632,736 652.281,736 652.93,736 653.579,736 654.228,736 654.878,736 655.527,736 656.176,736 656.825,736 657.474,736 658.123,736 658.773,736 659.422,736 660.071,736 660.72,736 661.369,736 662.018,736 662.667,736 663.317,736 663.966,736 664.615,736 665.264,736 665.913,736 666.563,736 667.212,736 667.861,736 668.51,736 669.159,736 669.808,736 670.458,736 671.107,736 671.756,736 672.405,736 673.054,736 673.703,736 674.352,736 675.002,736 675.651,736 676.3,736 676.949,736 677.598,736 678.247,736 678.897,736 679.546,736 680.195,736 680.844,736 681.493,736 682.143,736 682.792,736 683.441,736 684.09,736 684.739,736 685.388,736 686.037,736 686.687,736 687.336,736 687.985,736 688.634,736 689.283,736 689.932,736 690.582,736 691.231,736 691.88,736 692.529,736 693.178,736 693.828,736 694.477,736 695.126,736 695.775,736 696.424,736 697.073,736 697.722,736 698.372,736 699.021,736 699.67,736 700.319,736 700.968,736 701.617,736 702.267,736 702.916,736 703.565,736 704.214,736 704.863,736 705.513,736 706.162,736 706.811,736 707.46,736 708.109,736 708.758,736 709.407,736 710.057,736 710.706,736 711.355,736 712.004,736 712.653,736 713.302,736 713.952,736 714.601,736 715.25,736 715.899,736 716.548,736 717.198,736 717.847,736 718.496,736 719.145,736 719.794,736 720.443,736 721.093,736 721.742,736 722.391,736 723.04,736 723.689,736 724.338,736 724.987,736 725.637,736 726.286,736 726.935,736 727.584,736 728.233,736 728.883,736 729.532,736 730.181,736 730.83,736 731.479,736 732.128,736 732.778,736 733.427,736 734.076,736 734.725,736 735.374,736 736.023,736 736.672,736 737.322,736 737.971,736 738.62,736 739.269,736 739.918,736 740.568,736 741.217,736 741.866,736 742.515,736 743.164,736 743.813,736 744.463,736 745.112,736 745.761,736 746.41,736 747.059,736 747.708,736 748.357,736 749.007,736 749.656,736 750.305,736 750.954,736 751.603,736 752.253,736 752.902,736 753.551,736 754.2,736 754.849,736 755.498,736 756.148,736 756.797,736 757.446,736 758.095,736 758.744,736 759.393,736 760.042,736 760.692,736 761.341,736 761.99,736 762.639,736 763.288,736 763.938,736 764.587,736 765.236,736 765.885,736 766.534,736 767.183,736 767.833,736 768.482,736 769.131,736 769.78,736 770.429,736 771.078,736 771.727,736 772.377,736 773.026,736 773.675,736 774.324,736 774.973,736 775.622,736 776.272,736 776.921,736 777.57,736 778.219,736 778.868,736 779.518,736 780.167,736 780.816,736 781.465,736 782.114,736 782.763,736 783.412,736 784.062,736 784.711,736 785.36,736 786.009,736 786.658,736 787.307,736 787.957,736 788.606,736 789.255,736 789.904,736 790.553,736 791.203,736 791.852,736 792.501,736 793.15,736 793.799,736 794.448,736 795.097,736 795.747,736 " />
</g>

<g fill="none" stroke="#dd5400" stroke-opacity="1" stroke-width="4.16667" stroke-linecap="butt" stroke-linejoin="round" transform="matrix(0.72,0,0,0.72,0,0)"
font-family="Helvetica" font-size="13" font-weight="400" font-style="normal" 
>
<polyline fill="none" vector-effect="none" points="131.649,176.757 132.298,176.752 132.947,176.736 133.597,176.71 134.246,176.674 134.895,176.628 135.544,176.572 136.193,176.506 136.842,176.431 137.492,176.347 138.141,176.254 138.79,176.152 139.439,176.043 140.088,175.926 140.738,175.802 141.387,175.672 142.036,175.535 142.685,175.394 143.334,175.247 143.983,175.096 144.633,174.941 145.282,174.783 145.931,174.623 146.58,174.461 147.229,174.299 147.878,174.135 148.527,173.973 149.177,173.811 149.826,173.65 150.475,173.493 151.124,173.338 151.773,173.187 152.423,173.04 153.072,172.898 153.721,172.762 154.37,172.632 155.019,172.508 155.668,172.392 156.318,172.284 156.967,172.184 157.616,172.092 158.265,172.01 158.914,171.938 159.563,171.875 160.212,171.822 160.862,171.78 161.511,171.749 162.16,171.729 162.809,171.719 163.458,171.721 164.107,171.734 164.757,171.759 165.406,171.794 166.055,171.84 166.704,171.898 167.353,171.966 168.003,172.045 168.652,172.134 169.301,172.233 169.95,172.342 170.599,172.46 171.248,172.587 171.898,172.722 172.547,172.865 173.196,173.015 173.845,173.172 174.494,173.335 175.143,173.503 175.792,173.676 176.442,173.853 177.091,174.034 177.74,174.216 178.389,174.401 179.038,174.587 179.688,174.773 180.337,174.958 180.986,175.142 181.635,175.324 182.284,175.503 182.933,175.678 183.583,175.848 184.232,176.013 184.881,176.173 185.53,176.325 186.179,176.47 186.828,176.606 187.477,176.734 188.127,176.852 188.776,176.96 189.425,177.057 190.074,177.143 190.723,177.217 191.372,177.279 192.022,177.329 192.671,177.366 193.32,177.389 193.969,177.4 194.618,177.396 195.268,177.379 195.917,177.348 196.566,177.304 197.215,177.245 197.864,177.173 198.513,177.088 199.163,176.989 199.812,176.877 200.461,176.753 201.11,176.617 201.759,176.469 202.408,176.309 203.057,176.139 203.707,175.96 204.356,175.77 205.005,175.573 205.654,175.367 206.303,175.155 206.952,174.936 207.602,174.712 208.251,174.484 208.9,174.253 209.549,174.019 210.198,173.784 210.848,173.549 211.497,173.315 212.146,173.082 212.795,172.853 213.444,172.627 214.093,172.407 214.742,172.193 215.392,171.986 216.041,171.788 216.69,171.598 217.339,171.419 217.988,171.252 218.637,171.096 219.287,170.954 219.936,170.825 220.585,170.711 221.234,170.613 221.883,170.531 222.533,170.465 223.182,170.417 223.831,170.387 224.48,170.375 225.129,170.381 225.778,170.406 226.428,170.451 227.077,170.514 227.726,170.597 228.375,170.698 229.024,170.819 229.673,170.958 230.322,171.115 230.972,171.29 231.621,171.483 232.27,171.692 232.919,171.918 233.568,172.158 234.217,172.413 234.867,172.682 235.516,172.963 236.165,173.255 236.814,173.557 237.463,173.868 238.113,174.187 238.762,174.512 239.411,174.841 240.06,175.174 240.709,175.508 241.358,175.842 242.008,176.175 242.657,176.504 243.306,176.829 243.955,177.147 244.604,177.456 245.253,177.756 245.902,178.044 246.552,178.318 247.201,178.578 247.85,178.82 248.499,179.045 249.148,179.249 249.798,179.433 250.447,179.593 251.096,179.729 251.745,179.841 252.394,179.925 253.043,179.982 253.693,180.01 254.342,180.009 254.991,179.977 255.64,179.915 256.289,179.821 256.938,179.695 257.587,179.537 258.237,179.347 258.886,179.126 259.535,178.872 260.184,178.587 260.833,178.272 261.483,177.926 262.132,177.552 262.781,177.15 263.43,176.721 264.079,176.267 264.728,175.79 265.378,175.291 266.027,174.773 266.676,174.237 267.325,173.687 267.974,173.125 268.623,172.553 269.272,171.975 269.922,171.393 270.571,170.812 271.22,170.234 271.869,169.664 272.518,169.104 273.168,168.56 273.817,168.034 274.466,167.531 275.115,167.056 275.764,166.613 276.413,166.207 277.063,165.842 277.712,165.522 278.361,165.253 279.01,165.04 279.659,164.887 280.308,164.799 280.957,164.782 281.607,164.84 282.256,164.978 282.905,165.202 283.554,165.515 284.203,165.924 284.853,166.432 285.502,167.046 286.151,167.768 286.8,168.605 287.449,169.56 288.098,170.637 288.747,171.842 289.397,173.178 290.046,174.649 290.695,176.259 291.344,178.011 291.993,179.909 292.642,181.956 293.292,184.154 293.941,186.508 294.59,189.018 295.239,191.688 295.888,194.519 296.538,197.513 297.187,200.671 297.836,203.996 298.485,207.486 299.134,211.144 299.783,214.97 300.432,218.963 301.082,223.123 301.731,227.449 302.38,231.941 303.029,236.598 303.678,241.418 304.328,246.398 304.977,251.538 305.626,256.834 306.275,262.284 306.924,267.885 307.573,273.633 308.223,279.526 308.872,285.558 309.521,291.726 310.17,298.025 310.819,304.451 311.468,311 312.117,317.664 312.767,324.44 313.416,331.322 314.065,338.304 314.714,345.38 315.363,352.543 316.013,359.788 316.662,367.108 317.311,374.497 317.96,381.947 318.609,389.452 319.258,397.004 319.908,404.598 320.557,412.225 321.206,419.879 321.855,427.552 322.504,435.237 323.153,442.928 323.802,450.616 324.452,458.295 325.101,465.957 325.75,473.596 326.399,481.205 327.048,488.776 327.698,496.303 328.347,503.78 328.996,511.199 329.645,518.554 330.294,525.839 330.943,533.048 331.592,540.175 332.242,547.215 332.891,554.161 333.54,561.009 334.189,567.753 334.838,574.389 335.487,580.911 336.137,587.317 336.786,593.6 337.435,599.759 338.084,605.788 338.733,611.685 339.383,617.447 340.032,623.071 340.681,628.554 341.33,633.894 341.979,639.089 342.628,644.137 343.277,649.038 343.927,653.79 344.576,658.391 345.225,662.842 345.874,667.143 346.523,671.292 347.172,675.291 347.822,679.139 348.471,682.838 349.12,686.389 349.769,689.792 350.418,693.049 351.068,696.162 351.717,699.132 352.366,701.962 353.015,704.653 353.664,707.209 354.313,709.631 354.962,711.923 355.612,714.087 356.261,716.126 356.91,718.044 357.559,719.844 358.208,721.53 358.858,723.103 359.507,724.57 360.156,725.932 360.805,727.193 361.454,728.359 362.103,729.431 362.753,730.414 363.402,731.313 364.051,732.13 364.7,732.869 365.349,733.535 365.998,734.132 366.647,734.662 367.297,735.131 367.946,735.541 368.595,735.896 369.244,735.8 369.893,735.544 370.543,735.331 371.192,735.16 371.841,735.026 372.49,734.926 373.139,734.857 373.788,734.817 374.438,734.802 375.087,734.81 375.736,734.837 376.385,734.882 377.034,734.943 377.683,735.015 378.332,735.099 378.982,735.191 379.631,735.29 380.28,735.393 380.929,735.5 381.578,735.609 382.228,735.717 382.877,735.825 383.526,735.931 384.175,735.967 384.824,735.869 385.473,735.775 386.122,735.688 386.772,735.607 387.421,735.532 388.07,735.465 388.719,735.405 389.368,735.354 390.017,735.31 390.667,735.274 391.316,735.246 391.965,735.226 392.614,735.214 393.263,735.209 393.913,735.212 394.562,735.222 395.211,735.239 395.86,735.262 396.509,735.29 397.158,735.325 397.807,735.364 398.457,735.408 399.106,735.456 399.755,735.507 400.404,735.561 401.053,735.618 401.703,735.677 402.352,735.737 403.001,735.798 403.65,735.859 404.299,735.92 404.948,735.981 405.598,735.959 406.247,735.901 406.896,735.845 407.545,735.791 408.194,735.739 408.843,735.691 409.492,735.646 410.142,735.604 410.791,735.566 411.44,735.531 412.089,735.501 412.738,735.475 413.388,735.453 414.037,735.436 414.686,735.423 415.335,735.414 415.984,735.41 416.633,735.41 417.283,735.414 417.932,735.422 418.581,735.435 419.23,735.451 419.879,735.47 420.528,735.494 421.177,735.52 421.827,735.549 422.476,735.581 423.125,735.615 423.774,735.652 424.423,735.69 425.073,735.73 425.722,735.772 426.371,735.814 427.02,735.857 427.669,735.9 428.318,735.944 428.967,735.987 429.617,735.97 430.266,735.928 430.915,735.887 431.564,735.847 432.213,735.808 432.862,735.772 433.512,735.737 434.161,735.705 434.81,735.674 435.459,735.647 436.108,735.621 436.758,735.599 437.407,735.58 438.056,735.563 438.705,735.549 439.354,735.539 440.003,735.531 440.652,735.527 441.302,735.526 441.951,735.528 442.6,735.532 443.249,735.54 443.898,735.551 444.547,735.564 445.197,735.58 445.846,735.598 446.495,735.619 447.144,735.642 447.793,735.667 448.443,735.693 449.092,735.722 449.741,735.752 450.39,735.783 451.039,735.815 451.688,735.848 452.337,735.882 452.987,735.916 453.636,735.95 454.285,735.984 454.934,735.982 455.583,735.948 456.233,735.915 456.882,735.883 457.531,735.852 458.18,735.822 458.829,735.793 459.478,735.766 460.128,735.741 460.777,735.717 461.426,735.695 462.075,735.676 462.724,735.658 463.373,735.643 464.022,735.63 464.672,735.619 465.321,735.611 465.97,735.605 466.619,735.601 467.268,735.6 467.918,735.602 468.567,735.606 469.216,735.612 469.865,735.62 470.514,735.631 471.163,735.643 471.813,735.658 472.462,735.675 473.111,735.693 473.76,735.714 474.409,735.735 475.058,735.759 475.707,735.783 476.357,735.809 477.006,735.835 477.655,735.862 478.304,735.89 478.953,735.918 479.603,735.947 480.252,735.976 480.901,735.996 481.55,735.967 482.199,735.939 482.848,735.912 483.497,735.885 484.147,735.859 484.796,735.834 485.445,735.81 486.094,735.788 486.743,735.767 487.392,735.747 488.042,735.729 488.691,735.713 489.34,735.698 489.989,735.686 490.638,735.675 491.288,735.666 491.937,735.66 492.586,735.655 493.235,735.652 493.884,735.652 494.533,735.653 495.182,735.656 495.832,735.662 496.481,735.669 497.13,735.678 497.779,735.689 498.428,735.702 499.078,735.716 499.727,735.732 500.376,735.749 501.025,735.768 501.674,735.788 502.323,735.809 502.973,735.831 503.622,735.854 504.271,735.877 504.92,735.901 505.569,735.926 506.218,735.951 506.867,735.976 507.517,735.999 508.166,735.974 508.815,735.95 509.464,735.926 510.113,735.902 510.763,735.879 511.412,735.857 512.061,735.836 512.71,735.816 513.359,735.797 514.008,735.78 514.657,735.763 515.307,735.748 515.956,735.735 516.605,735.723 517.254,735.713 517.903,735.705 518.552,735.698 519.202,735.693 519.851,735.69 520.5,735.688 521.149,735.689 521.798,735.691 522.448,735.695 523.097,735.7 523.746,735.707 524.395,735.716 525.044,735.727 525.693,735.739 526.343,735.752 526.992,735.767 527.641,735.783 528.29,735.8 528.939,735.818 529.588,735.837 530.237,735.857 530.887,735.878 531.536,735.899 532.185,735.92 532.834,735.942 533.483,735.965 534.133,735.987 534.782,735.991 535.431,735.968 536.08,735.946 536.729,735.925 537.378,735.904 538.028,735.884 538.677,735.864 539.326,735.845 539.975,735.827 540.624,735.811 541.273,735.795 541.922,735.781 542.572,735.768 543.221,735.756 543.87,735.745 544.519,735.737 545.168,735.729 545.818,735.723 546.467,735.719 547.116,735.717 547.765,735.716 548.414,735.716 549.063,735.718 549.713,735.722 550.362,735.727 551.011,735.734 551.66,735.742 552.309,735.752 552.958,735.763 553.607,735.775 554.257,735.788 554.906,735.803 555.555,735.818 556.204,735.835 556.853,735.852 557.503,735.871 558.152,735.89 558.801,735.909 559.45,735.929 560.099,735.949 560.748,735.969 561.398,735.99 562.047,735.99 562.696,735.97 563.345,735.95 563.994,735.93 564.643,735.911 565.292,735.892 565.942,735.874 566.591,735.857 567.24,735.841 567.889,735.825 568.538,735.811 569.188,735.797 569.837,735.785 570.486,735.774 571.135,735.765 571.784,735.756 572.433,735.75 573.083,735.744 573.732,735.74 574.381,735.737 575.03,735.736 575.679,735.737 576.328,735.738 576.977,735.742 577.627,735.746 578.276,735.752 578.925,735.76 579.574,735.768 580.223,735.778 580.872,735.789 581.522,735.802 582.171,735.815 582.82,735.829 583.469,735.845 584.118,735.861 584.768,735.877 585.417,735.895 586.066,735.912 586.715,735.931 587.364,735.949 588.013,735.968 588.662,735.987 589.312,735.994 589.961,735.975 590.61,735.956 591.259,735.938 591.908,735.92 592.557,735.902 593.207,735.885 593.856,735.869 594.505,735.854 595.154,735.839 595.803,735.825 596.453,735.813 597.102,735.801 597.751,735.791 598.4,735.781 599.049,735.773 599.698,735.766 600.347,735.761 600.997,735.757 601.646,735.754 602.295,735.752 602.944,735.752 603.593,735.754 604.242,735.756 604.892,735.76 605.541,735.765 606.19,735.772 606.839,735.78 607.488,735.789 608.138,735.799 608.787,735.81 609.436,735.822 610.085,735.835 610.734,735.849 611.383,735.864 612.032,735.879 612.682,735.895 613.331,735.912 613.98,735.929 614.629,735.947 615.278,735.964 615.927,735.982 616.577,736 617.226,735.982 617.875,735.965 618.524,735.947 619.173,735.93 619.823,735.913 620.472,735.897 621.121,735.882 621.77,735.867 622.419,735.852 623.068,735.839 623.718,735.827 624.367,735.815 625.016,735.805 625.665,735.796 626.314,735.788 626.963,735.781 627.612,735.775 628.262,735.77 628.911,735.767 629.56,735.765 630.209,735.765 630.858,735.765 631.508,735.767 632.157,735.77 632.806,735.775 633.455,735.78 634.104,735.787 634.753,735.795 635.403,735.804 636.052,735.814 636.701,735.825 637.35,735.837 637.999,735.85 638.648,735.864 639.297,735.878 639.947,735.893 640.596,735.909 641.245,735.925 641.894,735.942 642.543,735.958 643.193,735.975 643.842,735.992 644.491,735.991 645.14,735.974 645.789,735.957 646.438,735.941 647.088,735.924 647.737,735.909 648.386,735.894 649.035,735.879 649.684,735.865 650.333,735.852 650.982,735.84 651.632,735.828 652.281,735.818 652.93,735.809 653.579,735.8 654.228,735.793 654.878,735.787 655.527,735.782 656.176,735.778 656.825,735.776 657.474,735.774 658.123,735.774 658.773,735.775 659.422,735.778 660.071,735.781 660.72,735.786 661.369,735.792 662.018,735.799 662.667,735.807 663.317,735.816 663.966,735.827 664.615,735.838 665.264,735.849 665.913,735.862 666.563,735.876 667.212,735.89 667.861,735.904 668.51,735.92 669.159,735.935 669.808,735.951 670.458,735.967 671.107,735.984 671.756,736 672.405,735.984 673.054,735.968 673.703,735.951 674.352,735.936 675.002,735.92 675.651,735.905 676.3,735.891 676.949,735.877 677.598,735.864 678.247,735.852 678.897,735.84 679.546,735.83 680.195,735.82 680.844,735.811 681.493,735.804 682.143,735.797 682.792,735.792 683.441,735.787 684.09,735.784 684.739,735.782 685.388,735.781 686.037,735.782 686.687,735.783 687.336,735.786 687.985,735.79 688.634,735.795 689.283,735.801 689.932,735.808 690.582,735.817 691.231,735.826 691.88,735.836 692.529,735.847 693.178,735.859 693.828,735.871 694.477,735.885 695.126,735.899 695.775,735.913 696.424,735.928 697.073,735.943 697.722,735.959 698.372,735.974 699.021,735.99 699.67,735.994 700.319,735.978 700.968,735.962 701.617,735.947 702.267,735.932 702.916,735.917 703.565,735.903 704.214,735.889 704.863,735.876 705.513,735.863 706.162,735.852 706.811,735.841 707.46,735.831 708.109,735.822 708.758,735.813 709.407,735.806 710.057,735.8 710.706,735.795 711.355,735.792 712.004,735.789 712.653,735.787 713.302,735.787 713.952,735.788 714.601,735.789 715.25,735.793 715.899,735.797 716.548,735.802 717.198,735.808 717.847,735.816 718.496,735.824 719.145,735.833 719.794,735.843 720.443,735.854 721.093,735.866 721.742,735.879 722.391,735.892 723.04,735.906 723.689,735.92 724.338,735.934 724.987,735.949 725.637,735.965 726.286,735.98 726.935,735.996 727.584,735.989 728.233,735.974 728.883,735.958 729.532,735.943 730.181,735.928 730.83,735.914 731.479,735.9 732.128,735.887 732.778,735.874 733.427,735.862 734.076,735.851 734.725,735.841 735.374,735.831 736.023,735.822 736.672,735.815 737.322,735.808 737.971,735.802 738.62,735.798 739.269,735.794 739.918,735.792 740.568,735.791 741.217,735.791 741.866,735.792 742.515,735.794 743.164,735.797 743.813,735.802 744.463,735.807 745.112,735.813 745.761,735.821 746.41,735.829 747.059,735.839 747.708,735.849 748.357,735.86 749.007,735.872 749.656,735.884 750.305,735.897 750.954,735.911 751.603,735.925 752.253,735.94 752.902,735.954 753.551,735.969 754.2,735.985 754.849,736 755.498,735.985 756.148,735.97 756.797,735.955 757.446,735.94 758.095,735.925 758.744,735.911 759.393,735.898 760.042,735.885 760.692,735.872 761.341,735.861 761.99,735.85 762.639,735.84 763.288,735.831 763.938,735.822 764.587,735.815 765.236,735.809 765.885,735.803 766.534,735.799 767.183,735.796 767.833,735.794 768.482,735.793 769.131,735.793 769.78,735.794 770.429,735.797 771.078,735.8 771.727,735.805 772.377,735.81 773.026,735.817 773.675,735.824 774.324,735.833 774.973,735.842 775.622,735.853 776.272,735.864 776.921,735.875 777.57,735.888 778.219,735.901 778.868,735.914 779.518,735.928 780.167,735.943 780.816,735.957 781.465,735.972 782.114,735.987 782.763,735.998 783.412,735.983 784.062,735.968 784.711,735.953 785.36,735.938 786.009,735.924 786.658,735.911 787.307,735.897 787.957,735.885 788.606,735.873 789.255,735.862 789.904,735.851 790.553,735.841 791.203,735.833 791.852,735.825 792.501,735.818 793.15,735.812 793.799,735.807 794.448,735.803 795.097,735.8 795.747,735.799 " />
</g>
</g>
</svg>
