<?xml version="1.0" encoding="UTF-8" standalone="no"?>
<svg width="216.253mm" height="188.736mm"
 viewBox="0 0 613 535"
 xmlns="http://www.w3.org/2000/svg" xmlns:xlink="http://www.w3.org/1999/xlink"  version="1.2" baseProfile="tiny">
<title>Qt SVG Document</title>
<desc>MATLAB, The MathWorks, Inc. Version 25.2.0.3055257 R2025b Update 2</desc>
<defs>
</defs>
<g fill="none" stroke="black" stroke-width="1" fill-rule="evenodd" stroke-linecap="square" stroke-linejoin="bevel" >

<g fill="#ffffff" fill-opacity="1" stroke="none" transform="matrix(0.72,0,0,0.72,0,0)"
font-family="Sans Serif" font-size="9" font-weight="400" font-style="normal" 
>
<path vector-effect="none" fill-rule="evenodd" d="M0,0 L852,0 L852,744 L0,744 L0,0"/>
</g>

<g fill="#ffffff" fill-opacity="1" stroke="none" transform="matrix(7.2e-05,0,0,7.2e-05,0,0)"
font-family="Sans Serif" font-size="9" font-weight="400" font-style="normal" 
>
<path vector-effect="none" fill-rule="evenodd" d="M1.11e+06,560000 L1.11e+06,6.61e+06 L7.7e+06,6.61e+06 L7.7e+06,560000 L1.11e+06,560000"/>
</g>

<g fill="#212121" fill-opacity="1" stroke="#212121" stroke-opacity="1" stroke-width="0.694444" stroke-linecap="square" stroke-linejoin="round" transform="matrix(0.72,0,0,0.72,0,0)"
font-family="Sans Serif" font-size="9" font-weight="400" font-style="normal" 
>
<polyline fill="none" vector-effect="none" points="111,661 770,661 " />
<polyline fill="none" vector-effect="none" points="111,56 770,56 " />
<polyline fill="none" vector-effect="none" points="111,661 111,654.41 " />
<polyline fill="none" vector-effect="none" points="111,62.59 111,56 " />
<polyline fill="none" vector-effect="none" points="220.833,661 220.833,654.41 " />
<polyline fill="none" vector-effect="none" points="220.833,62.59 220.833,56 " />
<polyline fill="none" vector-effect="none" points="330.667,661 330.667,654.41 " />
<polyline fill="none" vector-effect="none" points="330.667,62.59 330.667,56 " />
<polyline fill="none" vector-effect="none" points="440.5,661 440.5,654.41 " />
<polyline fill="none" vector-effect="none" points="440.5,62.59 440.5,56 " />
<polyline fill="none" vector-effect="none" points="550.333,661 550.333,654.41 " />
<polyline fill="none" vector-effect="none" points="550.333,62.59 550.333,56 " />
<polyline fill="none" vector-effect="none" points="660.167,661 660.167,654.41 " />
<polyline fill="none" vector-effect="none" points="660.167,62.59 660.167,56 " />
<polyline fill="none" vector-effect="none" points="770,661 770,654.41 " />
<polyline fill="none" vector-effect="none" points="770,62.59 770,56 " />
</g>

<g fill="#212121" fill-opacity="1" stroke="#212121" stroke-opacity="1" stroke-width="1" stroke-linecap="square" stroke-linejoin="bevel" transform="matrix(0.72,0,0,0.72,77.4,488.56)"
font-family="Helvetica" font-size="13" font-weight="400" font-style="normal" 
>
<text fill="#212121" fill-opacity="1" stroke="none" xml:space="preserve" x="0" y="0" font-family="Helvetica" font-size="13" font-weight="400" font-style="normal" 
 >0</text>
</g>

<g fill="#212121" fill-opacity="1" stroke="#212121" stroke-opacity="1" stroke-width="1" stroke-linecap="square" stroke-linejoin="bevel" transform="matrix(0.72,0,0,0.72,151.08,488.56)"
font-family="Helvetica" font-size="13" font-weight="400" font-style="normal" 
>
<text fill="#212121" fill-opacity="1" stroke="none" xml:space="preserve" x="0" y="0" font-family="Helvetica" font-size="13" font-weight="400" font-style="normal" 
 >200</text>
</g>

<g fill="#212121" fill-opacity="1" stroke="#212121" stroke-opacity="1" stroke-width="1" stroke-linecap="square" stroke-linejoin="bevel" transform="matrix(0.72,0,0,0.72,230.16,488.56)"
font-family="Helvetica" font-size="13" font-weight="400" font-style="normal" 
>
<text fill="#212121" fill-opacity="1" stroke="none" xml:space="preserve" x="0" y="0" font-family="Helvetica" font-size="13" font-weight="400" font-style="normal" 
 >400</text>
</g>

<g fill="#212121" fill-opacity="1" stroke="#212121" stroke-opacity="1" stroke-width="1" stroke-linecap="square" stroke-linejoin="bevel" transform="matrix(0.72,0,0,0.72,309.24,488.56)"
font-family="Helvetica" font-size="13" font-weight="400" font-style="normal" 
>
<text fill="#212121" fill-opacity="1" stroke="none" xml:space="preserve" x="0" y="0" font-family="Helvetica" font-size="13" font-weight="400" font-style="normal" 
 >600</text>
</g>

<g fill="#212121" fill-opacity="1" stroke="#212121" stroke-opacity="1" stroke-width="1" stroke-linecap="square" stroke-linejoin="bevel" transform="matrix(0.72,0,0,0.72,388.32,488.56)"
font-family="Helvetica" font-size="13" font-weight="400" font-style="normal" 
>
<text fill="#212121" fill-opacity="1" stroke="none" xml:space="preserve" x="0" y="0" font-family="Helvetica" font-size="13" font-weight="400" font-style="normal" 
 >800</text>
</g>

<g fill="#212121" fill-opacity="1" stroke="#212121" stroke-opacity="1" stroke-width="1" stroke-linecap="square" stroke-linejoin="bevel" transform="matrix(0.72,0,0,0.72,464.88,488.56)"
font-family="Helvetica" font-size="13" font-weight="400" font-style="normal" 
>
<text fill="#212121" fill-opacity="1" stroke="none" xml:space="preserve" x="0" y="0" font-family="Helvetica" font-size="13" font-weight="400" font-style="normal" 
 >1000</text>
</g>

<g fill="#212121" fill-opacity="1" stroke="#212121" stroke-opacity="1" stroke-width="1" stroke-linecap="square" stroke-linejoin="bevel" transform="matrix(0.72,0,0,0.72,543.96,488.56)"
font-family="Helvetica" font-size="13" font-weight="400" font-style="normal" 
>
<text fill="#212121" fill-opacity="1" stroke="none" xml:space="preserve" x="0" y="0" font-family="Helvetica" font-size="13" font-weight="400" font-style="normal" 
 >1200</text>
</g>

<g fill="#212121" fill-opacity="1" stroke="#212121" stroke-opacity="1" stroke-width="0.694444" stroke-linecap="square" stroke-linejoin="round" transform="matrix(0.72,0,0,0.72,0,0)"
font-family="Helvetica" font-size="13" font-weight="400" font-style="normal" 
>
<polyline fill="none" vector-effect="none" points="111,661 111,56 " />
<polyline fill="none" vector-effect="none" points="770,661 770,56 " />
<polyline fill="none" vector-effect="none" points="111,661 117.59,661 " />
<polyline fill="none" vector-effect="none" points="763.41,661 770,661 " />
<polyline fill="none" vector-effect="none" points="111,560.167 117.59,560.167 " />
<polyline fill="none" vector-effect="none" points="763.41,560.167 770,560.167 " />
<polyline fill="none" vector-effect="none" points="111,459.333 117.59,459.333 " />
<polyline fill="none" vector-effect="none" points="763.41,459.333 770,459.333 " />
<polyline fill="none" vector-effect="none" points="111,358.5 117.59,358.5 " />
<polyline fill="none" vector-effect="none" points="763.41,358.5 770,358.5 " />
<polyline fill="none" vector-effect="none" points="111,257.667 117.59,257.667 " />
<polyline fill="none" vector-effect="none" points="763.41,257.667 770,257.667 " />
<polyline fill="none" vector-effect="none" points="111,156.833 117.59,156.833 " />
<polyline fill="none" vector-effect="none" points="763.41,156.833 770,156.833 " />
<polyline fill="none" vector-effect="none" points="111,56 117.59,56 " />
<polyline fill="none" vector-effect="none" points="763.41,56 770,56 " />
</g>

<g fill="#212121" fill-opacity="1" stroke="#212121" stroke-opacity="1" stroke-width="1" stroke-linecap="square" stroke-linejoin="bevel" transform="matrix(0.72,0,0,0.72,70.88,479.16)"
font-family="Helvetica" font-size="13" font-weight="400" font-style="normal" 
>
<text fill="#212121" fill-opacity="1" stroke="none" xml:space="preserve" x="0" y="0" font-family="Helvetica" font-size="13" font-weight="400" font-style="normal" 
 >0</text>
</g>

<g fill="#212121" fill-opacity="1" stroke="#212121" stroke-opacity="1" stroke-width="1" stroke-linecap="square" stroke-linejoin="bevel" transform="matrix(0.72,0,0,0.72,62.96,406.56)"
font-family="Helvetica" font-size="13" font-weight="400" font-style="normal" 
>
<text fill="#212121" fill-opacity="1" stroke="none" xml:space="preserve" x="0" y="0" font-family="Helvetica" font-size="13" font-weight="400" font-style="normal" 
 >0.2</text>
</g>

<g fill="#212121" fill-opacity="1" stroke="#212121" stroke-opacity="1" stroke-width="1" stroke-linecap="square" stroke-linejoin="bevel" transform="matrix(0.72,0,0,0.72,62.96,333.96)"
font-family="Helvetica" font-size="13" font-weight="400" font-style="normal" 
>
<text fill="#212121" fill-opacity="1" stroke="none" xml:space="preserve" x="0" y="0" font-family="Helvetica" font-size="13" font-weight="400" font-style="normal" 
 >0.4</text>
</g>

<g fill="#212121" fill-opacity="1" stroke="#212121" stroke-opacity="1" stroke-width="1" stroke-linecap="square" stroke-linejoin="bevel" transform="matrix(0.72,0,0,0.72,62.96,261.36)"
font-family="Helvetica" font-size="13" font-weight="400" font-style="normal" 
>
<text fill="#212121" fill-opacity="1" stroke="none" xml:space="preserve" x="0" y="0" font-family="Helvetica" font-size="13" font-weight="400" font-style="normal" 
 >0.6</text>
</g>

<g fill="#212121" fill-opacity="1" stroke="#212121" stroke-opacity="1" stroke-width="1" stroke-linecap="square" stroke-linejoin="bevel" transform="matrix(0.72,0,0,0.72,62.96,188.76)"
font-family="Helvetica" font-size="13" font-weight="400" font-style="normal" 
>
<text fill="#212121" fill-opacity="1" stroke="none" xml:space="preserve" x="0" y="0" font-family="Helvetica" font-size="13" font-weight="400" font-style="normal" 
 >0.8</text>
</g>

<g fill="#212121" fill-opacity="1" stroke="#212121" stroke-opacity="1" stroke-width="1" stroke-linecap="square" stroke-linejoin="bevel" transform="matrix(0.72,0,0,0.72,70.88,116.16)"
font-family="Helvetica" font-size="13" font-weight="400" font-style="normal" 
>
<text fill="#212121" fill-opacity="1" stroke="none" xml:space="preserve" x="0" y="0" font-family="Helvetica" font-size="13" font-weight="400" font-style="normal" 
 >1</text>
</g>

<g fill="#212121" fill-opacity="1" stroke="#212121" stroke-opacity="1" stroke-width="1" stroke-linecap="square" stroke-linejoin="bevel" transform="matrix(0.72,0,0,0.72,62.96,43.56)"
font-family="Helvetica" font-size="13" font-weight="400" font-style="normal" 
>
<text fill="#212121" fill-opacity="1" stroke="none" xml:space="preserve" x="0" y="0" font-family="Helvetica" font-size="13" font-weight="400" font-style="normal" 
 >1.2</text>
</g>

<g fill="none" stroke="#1171be" stroke-opacity="1" stroke-width="4.16667" stroke-linecap="butt" stroke-linejoin="round" transform="matrix(0.72,0,0,0.72,0,0)"
font-family="Helvetica" font-size="13" font-weight="400" font-style="normal" 
>
<polyline fill="none" vector-effect="none" points="111.549,660.744 112.098,660.745 112.647,660.747 113.197,660.75 113.746,660.755 114.295,660.76 114.844,660.767 115.393,660.776 115.942,660.785 116.492,660.795 117.041,660.807 117.59,660.819 118.139,660.833 118.688,660.847 119.238,660.862 119.787,660.878 120.336,660.895 120.885,660.912 121.434,660.929 121.983,660.947 122.533,660.965 123.082,660.983 123.631,660.998 124.18,660.98 124.729,660.961 125.278,660.943 125.827,660.925 126.377,660.908 126.926,660.891 127.475,660.874 128.024,660.858 128.573,660.843 129.122,660.828 129.672,660.815 130.221,660.802 130.77,660.79 131.319,660.78 131.868,660.77 132.417,660.761 132.967,660.754 133.516,660.748 134.065,660.743 134.614,660.74 135.163,660.738 135.712,660.737 136.262,660.737 136.811,660.739 137.36,660.742 137.909,660.747 138.458,660.752 139.008,660.759 139.557,660.767 140.106,660.777 140.655,660.787 141.204,660.799 141.753,660.811 142.303,660.825 142.852,660.839 143.401,660.854 143.95,660.87 144.499,660.887 145.048,660.904 145.598,660.922 146.147,660.94 146.696,660.958 147.245,660.977 147.794,660.996 148.343,660.986 148.893,660.967 149.442,660.948 149.991,660.93 150.54,660.912 151.089,660.894 151.638,660.877 152.188,660.861 152.737,660.845 153.286,660.83 153.835,660.816 154.384,660.803 154.933,660.79 155.482,660.779 156.032,660.769 156.581,660.76 157.13,660.752 157.679,660.746 158.228,660.74 158.777,660.737 159.327,660.734 159.876,660.733 160.425,660.733 160.974,660.734 161.523,660.737 162.072,660.741 162.622,660.746 163.171,660.753 163.72,660.761 164.269,660.77 164.818,660.78 165.367,660.792 165.917,660.804 166.466,660.818 167.015,660.832 167.564,660.848 168.113,660.864 168.663,660.881 169.212,660.898 169.761,660.916 170.31,660.934 170.859,660.953 171.408,660.972 171.958,660.991 172.507,660.989 173.056,660.97 173.605,660.951 174.154,660.932 174.703,660.914 175.253,660.895 175.802,660.878 176.351,660.861 176.9,660.844 177.449,660.829 177.998,660.814 178.548,660.8 179.097,660.787 179.646,660.776 180.195,660.765 180.744,660.755 181.293,660.747 181.842,660.74 182.392,660.734 182.941,660.73 183.49,660.727 184.039,660.725 184.588,660.725 185.137,660.726 185.687,660.729 186.236,660.732 186.785,660.738 187.334,660.744 187.883,660.752 188.432,660.761 188.982,660.772 189.531,660.783 190.08,660.796 190.629,660.81 191.178,660.824 191.727,660.84 192.277,660.856 192.826,660.873 193.375,660.891 193.924,660.91 194.473,660.929 195.023,660.948 195.572,660.968 196.121,660.987 196.67,660.993 197.219,660.973 197.768,660.953 198.318,660.933 198.867,660.914 199.416,660.895 199.965,660.877 200.514,660.859 201.063,660.842 201.613,660.825 202.162,660.81 202.711,660.795 203.26,660.782 203.809,660.769 204.358,660.758 204.908,660.748 205.457,660.739 206.006,660.731 206.555,660.725 207.104,660.72 207.653,660.716 208.202,660.714 208.752,660.714 209.301,660.715 209.85,660.717 210.399,660.721 210.948,660.726 211.497,660.732 212.047,660.74 212.596,660.75 213.145,660.76 213.694,660.772 214.243,660.785 214.792,660.799 215.342,660.814 215.891,660.83 216.44,660.847 216.989,660.865 217.538,660.884 218.087,660.903 218.637,660.922 219.186,660.943 219.735,660.963 220.284,660.984 220.833,660.995 221.383,660.974 221.932,660.954 222.481,660.933 223.03,660.913 223.579,660.893 224.128,660.873 224.678,660.855 225.227,660.836 225.776,660.819 226.325,660.803 226.874,660.787 227.423,660.773 227.973,660.759 228.522,660.747 229.071,660.736 229.62,660.727 230.169,660.718 230.718,660.711 231.268,660.706 231.817,660.702 232.366,660.7 232.915,660.699 233.464,660.699 234.013,660.702 234.563,660.705 235.112,660.71 235.661,660.717 236.21,660.725 236.759,660.735 237.308,660.746 237.857,660.758 238.407,660.771 238.956,660.786 239.505,660.802 240.054,660.819 240.603,660.836 241.152,660.855 241.702,660.875 242.251,660.895 242.8,660.916 243.349,660.937 243.898,660.958 244.447,660.98 244.997,660.998 245.546,660.975 246.095,660.953 246.644,660.931 247.193,660.91 247.742,660.889 248.292,660.868 248.841,660.848 249.39,660.828 249.939,660.81 250.488,660.792 251.038,660.776 251.587,660.76 252.136,660.746 252.685,660.732 253.234,660.721 253.783,660.71 254.333,660.701 254.882,660.694 255.431,660.688 255.98,660.683 256.529,660.68 257.078,660.679 257.628,660.68 258.177,660.682 258.726,660.685 259.275,660.691 259.824,660.698 260.373,660.706 260.922,660.716 261.472,660.727 262.021,660.74 262.57,660.755 263.119,660.77 263.668,660.787 264.217,660.805 264.767,660.824 265.316,660.844 265.865,660.864 266.414,660.886 266.963,660.908 267.513,660.931 268.062,660.954 268.611,660.977 269.16,660.999 269.709,660.975 270.258,660.951 270.807,660.928 271.357,660.905 271.906,660.882 272.455,660.86 273.004,660.838 273.553,660.817 274.103,660.797 274.652,660.778 275.201,660.76 275.75,660.743 276.299,660.727 276.848,660.713 277.397,660.7 277.947,660.688 278.496,660.679 279.045,660.67 279.594,660.664 280.143,660.659 280.693,660.656 281.242,660.654 281.791,660.654 282.34,660.656 282.889,660.66 283.438,660.666 283.987,660.673 284.537,660.682 285.086,660.693 285.635,660.705 286.184,660.719 286.733,660.734 287.283,660.751 287.832,660.769 288.381,660.788 288.93,660.809 289.479,660.83 290.028,660.852 290.578,660.876 291.127,660.9 291.676,660.924 292.225,660.95 292.774,660.975 293.323,660.999 293.872,660.973 294.422,660.948 294.971,660.922 295.52,660.897 296.069,660.872 296.618,660.847 297.168,660.824 297.717,660.801 298.266,660.779 298.815,660.758 299.364,660.738 299.913,660.72 300.462,660.702 301.012,660.687 301.561,660.672 302.11,660.66 302.659,660.649 303.208,660.64 303.758,660.633 304.307,660.627 304.856,660.623 305.405,660.622 305.954,660.622 306.503,660.624 307.052,660.628 307.602,660.634 308.151,660.642 308.7,660.652 309.249,660.664 309.798,660.677 310.348,660.692 310.897,660.709 311.446,660.727 311.995,660.747 312.544,660.768 313.093,660.791 313.642,660.814 314.192,660.839 314.741,660.865 315.29,660.891 315.839,660.918 316.388,660.946 316.938,660.974 317.487,660.997 318.036,660.969 318.585,660.941 319.134,660.912 319.683,660.884 320.233,660.857 320.782,660.83 321.331,660.804 321.88,660.778 322.429,660.754 322.978,660.731 323.527,660.709 324.077,660.689 324.626,660.67 325.175,660.652 325.724,660.636 326.273,660.623 326.823,660.611 327.372,660.6 327.921,660.592 328.47,660.586 329.019,660.582 329.568,660.581 330.117,660.581 330.667,660.583 331.216,660.588 331.765,660.595 332.314,660.604 332.863,660.615 333.413,660.628 333.962,660.643 334.511,660.66 335.06,660.678 335.609,660.699 336.158,660.721 336.707,660.745 337.257,660.77 337.806,660.796 338.355,660.824 338.904,660.853 339.453,660.883 340.003,660.913 340.552,660.944 341.101,660.975 341.65,660.993 342.199,660.961 342.748,660.929 343.297,660.897 343.847,660.866 344.396,660.835 344.945,660.805 345.494,660.776 346.043,660.747 346.592,660.72 347.142,660.694 347.691,660.67 348.24,660.647 348.789,660.626 349.338,660.606 349.888,660.589 350.437,660.573 350.986,660.56 351.535,660.549 352.084,660.54 352.633,660.533 353.182,660.529 353.732,660.527 354.281,660.528 354.83,660.531 355.379,660.537 355.928,660.545 356.478,660.555 357.027,660.568 357.576,660.583 358.125,660.6 358.674,660.619 359.223,660.641 359.772,660.664 360.322,660.69 360.871,660.717 361.42,660.746 361.969,660.776 362.518,660.808 363.068,660.841 363.617,660.875 364.166,660.909 364.715,660.945 365.264,660.981 365.813,660.983 366.362,660.947 366.912,660.91 367.461,660.874 368.01,660.839 368.559,660.804 369.108,660.769 369.658,660.736 370.207,660.704 370.756,660.673 371.305,660.644 371.854,660.616 372.403,660.59 372.953,660.566 373.502,660.544 374.051,660.525 374.6,660.507 375.149,660.493 375.698,660.48 376.247,660.471 376.797,660.464 377.346,660.46 377.895,660.458 378.444,660.459 378.993,660.464 379.543,660.471 380.092,660.48 380.641,660.493 381.19,660.508 381.739,660.526 382.288,660.547 382.837,660.57 383.387,660.595 383.936,660.623 384.485,660.653 385.034,660.685 385.583,660.719 386.133,660.754 386.682,660.791 387.231,660.83 387.78,660.869 388.329,660.91 388.878,660.951 389.427,660.993 389.977,660.965 390.526,660.923 391.075,660.881 391.624,660.839 392.173,660.797 392.723,660.757 393.272,660.717 393.821,660.679 394.37,660.641 394.919,660.606 395.468,660.572 396.017,660.541 396.567,660.511 397.116,660.484 397.665,660.459 398.214,660.437 398.763,660.418 399.313,660.401 399.862,660.388 400.411,660.378 400.96,660.371 401.509,660.367 402.058,660.366 402.608,660.369 403.157,660.375 403.706,660.385 404.255,660.397 404.804,660.413 405.353,660.432 405.902,660.455 406.452,660.48 407.001,660.508 407.55,660.54 408.099,660.573 408.648,660.61 409.198,660.648 409.747,660.689 410.296,660.732 410.845,660.776 411.394,660.823 411.943,660.87 412.492,660.918 413.042,660.968 413.591,660.982 414.14,660.932 414.689,660.882 415.238,660.832 415.788,660.782 416.337,660.733 416.886,660.685 417.435,660.638 417.984,660.593 418.533,660.55 419.082,660.508 419.632,660.469 420.181,660.432 420.73,660.398 421.279,660.367 421.828,660.339 422.378,660.314 422.927,660.293 423.476,660.275 424.025,660.26 424.574,660.25 425.123,660.244 425.672,660.241 426.222,660.242 426.771,660.248 427.32,660.257 427.869,660.271 428.418,660.288 428.967,660.31 429.517,660.335 430.066,660.364 430.615,660.397 431.164,660.433 431.713,660.473 432.263,660.515 432.812,660.561 433.361,660.61 433.91,660.661 434.459,660.714 435.008,660.77 435.557,660.827 436.107,660.885 436.656,660.945 437.205,660.994 437.754,660.933 438.303,660.871 438.853,660.81 439.402,660.749 439.951,660.688 440.5,660.629 441.049,660.571 441.598,660.515 442.147,660.461 442.697,660.409 443.246,660.36 443.795,660.314 444.344,660.271 444.893,660.231 445.443,660.195 445.992,660.163 446.541,660.135 447.09,660.112 447.639,660.093 448.188,660.079 448.737,660.07 449.287,660.065 449.836,660.065 450.385,660.071 450.934,660.082 451.483,660.097 452.033,660.118 452.582,660.144 453.131,660.174 453.68,660.21 454.229,660.25 454.778,660.294 455.328,660.343 455.877,660.396 456.426,660.453 456.975,660.513 457.524,660.577 458.073,660.644 458.622,660.713 459.172,660.785 459.721,660.859 460.27,660.935 460.819,660.989 461.368,660.911 461.918,660.833 462.467,660.755 463.016,660.678 463.565,660.601 464.114,660.526 464.663,660.452 465.212,660.38 465.762,660.311 466.311,660.245 466.86,660.182 467.409,660.123 467.958,660.068 468.508,660.017 469.057,659.971 469.606,659.93 470.155,659.894 470.704,659.865 471.253,659.84 471.802,659.823 472.352,659.811 472.901,659.805 473.45,659.807 473.999,659.814 474.548,659.829 475.098,659.85 475.647,659.878 476.196,659.912 476.745,659.953 477.294,660 477.843,660.053 478.392,660.112 478.942,660.177 479.491,660.248 480.04,660.323 480.589,660.403 481.138,660.488 481.688,660.577 482.237,660.669 482.786,660.765 483.335,660.863 483.884,660.963 484.433,660.935 484.983,660.832 485.532,660.728 486.081,660.625 486.63,660.522 487.179,660.42 487.728,660.32 488.277,660.222 488.827,660.127 489.376,660.036 489.925,659.949 490.474,659.867 491.023,659.789 491.573,659.718 492.122,659.652 492.671,659.593 493.22,659.541 493.769,659.497 494.318,659.461 494.867,659.432 495.417,659.413 495.966,659.401 496.515,659.399 497.064,659.406 497.613,659.423 498.163,659.448 498.712,659.483 499.261,659.527 499.81,659.581 500.359,659.643 500.908,659.714 501.457,659.794 502.007,659.883 502.556,659.979 503.105,660.083 503.654,660.193 504.203,660.311 504.753,660.435 505.302,660.564 505.851,660.698 506.4,660.836 506.949,660.977 507.498,660.879 508.047,660.733 508.597,660.586 509.146,660.438 509.695,660.291 510.244,660.146 510.793,660.003 511.342,659.863 511.892,659.727 512.441,659.596 512.99,659.471 513.539,659.353 514.088,659.242 514.638,659.14 515.187,659.046 515.736,658.963 516.285,658.89 516.834,658.828 517.383,658.779 517.932,658.741 518.482,658.717 519.031,658.706 519.58,658.709 520.129,658.726 520.678,658.757 521.227,658.803 521.777,658.863 522.326,658.938 522.875,659.027 523.424,659.13 523.973,659.248 524.523,659.379 525.072,659.523 525.621,659.68 526.17,659.848 526.719,660.028 527.268,660.218 527.818,660.418 528.367,660.627 528.916,660.842 529.465,660.935 530.014,660.708 530.563,660.477 531.112,660.244 531.662,660.009 532.211,659.775 532.76,659.543 533.309,659.314 533.858,659.09 534.407,658.873 534.957,658.664 535.506,658.464 536.055,658.277 536.604,658.102 537.153,657.942 537.703,657.798 538.252,657.672 538.801,657.565 539.35,657.478 539.899,657.413 540.448,657.371 540.997,657.354 541.547,657.361 542.096,657.395 542.645,657.455 543.194,657.542 543.743,657.658 544.292,657.801 544.842,657.973 545.391,658.173 545.94,658.401 546.489,658.657 547.038,658.939 547.588,659.247 548.137,659.581 548.686,659.937 549.235,660.316 549.784,660.715 550.333,660.868 550.883,660.435 551.432,659.989 551.981,659.532 552.53,659.068 553.079,658.6 553.628,658.132 554.177,657.667 554.727,657.209 555.276,656.763 555.825,656.333 556.374,655.925 556.923,655.543 557.472,655.192 558.022,654.878 558.571,654.606 559.12,654.383 559.669,654.214 560.218,654.106 560.768,654.065 561.317,654.097 561.866,654.21 562.415,654.409 562.964,654.702 563.513,655.096 564.063,655.597 564.612,656.212 565.161,656.948 565.71,657.813 566.259,658.813 566.808,659.955 567.357,660.755 567.907,659.309 568.456,657.7 569.005,655.924 569.554,653.973 570.103,651.841 570.653,649.523 571.202,647.012 571.751,644.304 572.3,641.394 572.849,638.277 573.398,634.948 573.948,631.404 574.497,627.64 575.046,623.654 575.595,619.443 576.144,615.004 576.693,610.336 577.242,605.436 577.792,600.304 578.341,594.939 578.89,589.342 579.439,583.512 579.988,577.451 580.537,571.16 581.087,564.642 581.636,557.899 582.185,550.935 582.734,543.752 583.283,536.356 583.833,528.752 584.382,520.944 584.931,512.939 585.48,504.744 586.029,496.365 586.578,487.811 587.128,479.089 587.677,470.209 588.226,461.178 588.775,452.008 589.324,442.708 589.873,433.288 590.422,423.761 590.972,414.136 591.521,404.426 592.07,394.644 592.619,384.801 593.168,374.91 593.718,364.984 594.267,355.037 594.816,345.083 595.365,335.133 595.914,325.204 596.463,315.307 597.013,305.459 597.562,295.671 598.111,285.959 598.66,276.336 599.209,266.817 599.758,257.414 600.307,248.143 600.857,239.015 601.406,230.045 601.955,221.246 602.504,212.63 603.053,204.209 603.602,195.996 604.152,188.002 604.701,180.238 605.25,172.716 605.799,165.445 606.348,158.435 606.898,151.695 607.447,145.234 607.996,139.06 608.545,133.18 609.094,127.601 609.643,122.329 610.193,117.369 610.742,112.725 611.291,108.403 611.84,104.404 612.389,100.732 612.938,97.3877 613.487,94.3722 614.037,91.6856 614.586,89.3274 615.135,87.296 615.684,85.5892 616.233,84.2042 616.782,83.1371 617.332,82.3836 617.881,81.9384 618.43,81.7956 618.979,81.9486 619.528,82.3899 620.078,83.1118 620.627,84.1054 621.176,85.3615 621.725,86.8703 622.274,88.6212 622.823,90.6035 623.372,92.8055 623.922,95.2154 624.471,97.8207 625.02,100.609 625.569,103.566 626.118,106.679 626.667,109.935 627.217,113.319 627.766,116.816 628.315,120.413 628.864,124.095 629.413,127.848 629.963,131.656 630.512,135.506 631.061,139.382 631.61,143.27 632.159,147.156 632.708,151.026 633.258,154.865 633.807,158.661 634.356,162.399 634.905,166.066 635.454,169.651 636.003,173.14 636.552,176.523 637.102,179.787 637.651,182.922 638.2,185.917 638.749,188.764 639.298,191.453 639.847,193.976 640.397,196.325 640.946,198.493 641.495,200.474 642.044,202.262 642.593,203.852 643.143,205.24 643.692,206.423 644.241,207.398 644.79,208.163 645.339,208.718 645.888,209.061 646.438,209.194 646.987,209.117 647.536,208.832 648.085,208.342 648.634,207.651 649.183,206.763 649.732,205.682 650.282,204.413 650.831,202.964 651.38,201.341 651.929,199.55 652.478,197.601 653.028,195.501 653.577,193.26 654.126,190.886 654.675,188.391 655.224,185.784 655.773,183.075 656.323,180.276 656.872,177.399 657.421,174.454 657.97,171.453 658.519,168.409 659.068,165.332 659.617,162.236 660.167,159.133 660.716,156.034 661.265,152.951 661.814,149.897 662.363,146.883 662.912,143.921 663.462,141.022 664.011,138.198 664.56,135.459 665.109,132.815 665.658,130.277 666.208,127.855 666.757,125.557 667.306,123.393 667.855,121.37 668.404,119.497 668.953,117.78 669.503,116.225 670.052,114.84 670.601,113.628 671.15,112.595 671.699,111.745 672.248,111.08 672.797,110.603 673.347,110.317 " />
</g>

<g fill="none" stroke="#dd5400" stroke-opacity="1" stroke-width="2.77778" stroke-linecap="butt" stroke-linejoin="round" transform="matrix(0.72,0,0,0.72,0,0)"
font-family="Helvetica" font-size="13" font-weight="400" font-style="normal" 
>
<polyline fill="none" vector-effect="none" points="111.549,661 112.098,661 112.647,661 113.197,661 113.746,661 114.295,661 114.844,661 115.393,661 115.942,661 116.492,661 117.041,661 117.59,661 118.139,661 118.688,661 119.238,661 119.787,661 120.336,661 120.885,661 121.434,661 121.983,661 122.533,661 123.082,661 123.631,661 124.18,661 124.729,661 125.278,661 125.827,661 126.377,661 126.926,661 127.475,661 128.024,661 128.573,661 129.122,661 129.672,661 130.221,661 130.77,661 131.319,661 131.868,661 132.417,661 132.967,661 133.516,661 134.065,661 134.614,661 135.163,661 135.712,661 136.262,661 136.811,661 137.36,661 137.909,661 138.458,661 139.008,661 139.557,661 140.106,661 140.655,661 141.204,661 141.753,661 142.303,661 142.852,661 143.401,661 143.95,661 144.499,661 145.048,661 145.598,661 146.147,661 146.696,661 147.245,661 147.794,661 148.343,661 148.893,661 149.442,661 149.991,661 150.54,661 151.089,661 151.638,661 152.188,661 152.737,661 153.286,661 153.835,661 154.384,661 154.933,661 155.482,661 156.032,661 156.581,661 157.13,661 157.679,661 158.228,661 158.777,661 159.327,661 159.876,661 160.425,661 160.974,661 161.523,661 162.072,661 162.622,661 163.171,661 163.72,661 164.269,661 164.818,661 165.367,661 165.917,661 166.466,661 167.015,661 167.564,661 168.113,661 168.663,661 169.212,661 169.761,661 170.31,661 170.859,661 171.408,661 171.958,661 172.507,661 173.056,661 173.605,661 174.154,661 174.703,661 175.253,661 175.802,661 176.351,661 176.9,661 177.449,661 177.998,661 178.548,661 179.097,661 179.646,661 180.195,661 180.744,661 181.293,661 181.842,661 182.392,661 182.941,661 183.49,661 184.039,661 184.588,661 185.137,661 185.687,661 186.236,661 186.785,661 187.334,661 187.883,661 188.432,661 188.982,661 189.531,661 190.08,661 190.629,661 191.178,661 191.727,661 192.277,661 192.826,661 193.375,661 193.924,661 194.473,661 195.023,661 195.572,661 196.121,661 196.67,661 197.219,661 197.768,661 198.318,661 198.867,661 199.416,661 199.965,661 200.514,661 201.063,661 201.613,661 202.162,661 202.711,661 203.26,661 203.809,661 204.358,661 204.908,661 205.457,661 206.006,661 206.555,661 207.104,661 207.653,661 208.202,661 208.752,661 209.301,661 209.85,661 210.399,661 210.948,661 211.497,661 212.047,661 212.596,661 213.145,661 213.694,661 214.243,661 214.792,661 215.342,661 215.891,661 216.44,661 216.989,661 217.538,661 218.087,661 218.637,661 219.186,661 219.735,661 220.284,661 220.833,661 221.383,661 221.932,661 222.481,661 223.03,661 223.579,661 224.128,661 224.678,661 225.227,661 225.776,661 226.325,661 226.874,661 227.423,661 227.973,661 228.522,661 229.071,661 229.62,661 230.169,661 230.718,661 231.268,661 231.817,661 232.366,661 232.915,661 233.464,661 234.013,661 234.563,661 235.112,661 235.661,661 236.21,661 236.759,661 237.308,661 237.857,661 238.407,661 238.956,661 239.505,661 240.054,661 240.603,661 241.152,661 241.702,661 242.251,661 242.8,661 243.349,661 243.898,661 244.447,661 244.997,661 245.546,661 246.095,661 246.644,661 247.193,661 247.742,661 248.292,661 248.841,661 249.39,661 249.939,661 250.488,661 251.038,661 251.587,661 252.136,661 252.685,661 253.234,661 253.783,661 254.333,661 254.882,661 255.431,661 255.98,661 256.529,661 257.078,661 257.628,661 258.177,661 258.726,661 259.275,661 259.824,661 260.373,661 260.922,661 261.472,661 262.021,661 262.57,661 263.119,661 263.668,661 264.217,661 264.767,661 265.316,661 265.865,661 266.414,661 266.963,661 267.513,661 268.062,661 268.611,661 269.16,661 269.709,661 270.258,661 270.807,661 271.357,661 271.906,661 272.455,661 273.004,661 273.553,661 274.103,661 274.652,661 275.201,661 275.75,661 276.299,661 276.848,661 277.397,661 277.947,661 278.496,661 279.045,661 279.594,661 280.143,661 280.693,661 281.242,661 281.791,661 282.34,661 282.889,661 283.438,661 283.987,661 284.537,661 285.086,661 285.635,661 286.184,661 286.733,661 287.283,661 287.832,661 288.381,661 288.93,661 289.479,661 290.028,661 290.578,661 291.127,661 291.676,661 292.225,661 292.774,661 293.323,661 293.872,661 294.422,661 294.971,661 295.52,661 296.069,661 296.618,661 297.168,661 297.717,661 298.266,661 298.815,661 299.364,661 299.913,661 300.462,661 301.012,661 301.561,661 302.11,661 302.659,661 303.208,661 303.758,661 304.307,661 304.856,661 305.405,661 305.954,661 306.503,661 307.052,661 307.602,661 308.151,661 308.7,661 309.249,661 309.798,661 310.348,661 310.897,661 311.446,661 311.995,661 312.544,661 313.093,661 313.642,661 314.192,661 314.741,661 315.29,661 315.839,661 316.388,661 316.938,661 317.487,661 318.036,661 318.585,661 319.134,661 319.683,661 320.233,661 320.782,661 321.331,661 321.88,661 322.429,661 322.978,661 323.527,661 324.077,661 324.626,661 325.175,661 325.724,661 326.273,661 326.823,661 327.372,661 327.921,661 328.47,661 329.019,661 329.568,661 330.117,661 330.667,661 331.216,661 331.765,661 332.314,661 332.863,661 333.413,661 333.962,661 334.511,661 335.06,661 335.609,661 336.158,661 336.707,661 337.257,661 337.806,661 338.355,661 338.904,661 339.453,661 340.003,661 340.552,661 341.101,661 341.65,661 342.199,661 342.748,661 343.297,661 343.847,661 344.396,661 344.945,661 345.494,661 346.043,661 346.592,661 347.142,661 347.691,661 348.24,661 348.789,661 349.338,661 349.888,661 350.437,661 350.986,661 351.535,661 352.084,661 352.633,661 353.182,661 353.732,661 354.281,661 354.83,661 355.379,661 355.928,661 356.478,661 357.027,661 357.576,661 358.125,661 358.674,661 359.223,661 359.772,661 360.322,661 360.871,661 361.42,661 361.969,661 362.518,661 363.068,661 363.617,661 364.166,661 364.715,661 365.264,661 365.813,661 366.362,661 366.912,661 367.461,661 368.01,661 368.559,661 369.108,661 369.658,661 370.207,661 370.756,661 371.305,661 371.854,661 372.403,661 372.953,661 373.502,661 374.051,661 374.6,661 375.149,661 375.698,661 376.247,661 376.797,661 377.346,661 377.895,661 378.444,661 378.993,661 379.543,661 380.092,661 380.641,661 381.19,661 381.739,661 382.288,661 382.837,661 383.387,661 383.936,661 384.485,661 385.034,661 385.583,661 386.133,661 386.682,661 387.231,661 387.78,661 388.329,661 388.878,661 389.427,661 389.977,661 390.526,661 391.075,661 391.624,661 392.173,661 392.723,661 393.272,661 393.821,661 394.37,661 394.919,661 395.468,661 396.017,661 396.567,661 397.116,661 397.665,661 398.214,661 398.763,661 399.313,661 399.862,661 400.411,661 400.96,661 401.509,661 402.058,661 402.608,661 403.157,661 403.706,661 404.255,661 404.804,661 405.353,661 405.902,661 406.452,661 407.001,661 407.55,661 408.099,661 408.648,661 409.198,661 409.747,661 410.296,661 410.845,661 411.394,661 411.943,661 412.492,661 413.042,661 413.591,661 414.14,661 414.689,661 415.238,661 415.788,661 416.337,661 416.886,661 417.435,661 417.984,661 418.533,661 419.082,661 419.632,661 420.181,661 420.73,661 421.279,661 421.828,661 422.378,661 422.927,661 423.476,661 424.025,661 424.574,661 425.123,661 425.672,661 426.222,661 426.771,661 427.32,661 427.869,661 428.418,661 428.967,661 429.517,661 430.066,661 430.615,661 431.164,661 431.713,661 432.263,661 432.812,661 433.361,661 433.91,661 434.459,661 435.008,661 435.557,661 436.107,661 436.656,661 437.205,661 437.754,661 438.303,661 438.853,661 439.402,661 439.951,661 440.5,661 441.049,661 441.598,661 442.147,661 442.697,661 443.246,661 443.795,661 444.344,661 444.893,661 445.443,661 445.992,661 446.541,661 447.09,661 447.639,661 448.188,661 448.737,661 449.287,661 449.836,661 450.385,661 450.934,661 451.483,661 452.033,661 452.582,661 453.131,661 453.68,661 454.229,661 454.778,661 455.328,661 455.877,661 456.426,661 456.975,661 457.524,661 458.073,661 458.622,661 459.172,661 459.721,661 460.27,661 460.819,661 461.368,661 461.918,661 462.467,661 463.016,661 463.565,661 464.114,661 464.663,661 465.212,661 465.762,661 466.311,661 466.86,661 467.409,661 467.958,661 468.508,661 469.057,661 469.606,661 470.155,661 470.704,661 471.253,661 471.802,661 472.352,661 472.901,661 473.45,661 473.999,661 474.548,661 475.098,661 475.647,661 476.196,661 476.745,661 477.294,661 477.843,661 478.392,661 478.942,661 479.491,661 480.04,661 480.589,661 481.138,661 481.688,661 482.237,661 482.786,661 483.335,661 483.884,661 484.433,661 484.983,661 485.532,661 486.081,661 486.63,661 487.179,661 487.728,661 488.277,661 488.827,661 489.376,661 489.925,661 490.474,661 491.023,661 491.573,661 492.122,661 492.671,661 493.22,661 493.769,661 494.318,661 494.867,661 495.417,661 495.966,661 496.515,661 497.064,661 497.613,661 498.163,661 498.712,661 499.261,661 499.81,661 500.359,661 500.908,661 501.457,661 502.007,661 502.556,661 503.105,661 503.654,661 504.203,661 504.753,661 505.302,661 505.851,661 506.4,661 506.949,661 507.498,661 508.047,661 508.597,661 509.146,661 509.695,661 510.244,661 510.793,661 511.342,661 511.892,661 512.441,661 512.99,661 513.539,661 514.088,661 514.638,661 515.187,661 515.736,661 516.285,661 516.834,661 517.383,661 517.932,661 518.482,661 519.031,661 519.58,661 520.129,661 520.678,661 521.227,661 521.777,661 522.326,661 522.875,661 523.424,661 523.973,661 524.523,661 525.072,661 525.621,661 526.17,661 526.719,661 527.268,661 527.818,661 528.367,661 528.916,661 529.465,661 530.014,661 530.563,661 531.112,661 531.662,661 532.211,661 532.76,661 533.309,661 533.858,661 534.407,661 534.957,661 535.506,661 536.055,661 536.604,661 537.153,661 537.703,661 538.252,661 538.801,661 539.35,661 539.899,661 540.448,661 540.997,661 541.547,661 542.096,661 542.645,661 543.194,661 543.743,661 544.292,661 544.842,661 545.391,661 545.94,661 546.489,661 547.038,661 547.588,661 548.137,661 548.686,661 549.235,661 549.784,661 550.333,661 550.883,661 551.432,661 551.981,661 552.53,661 553.079,661 553.628,661 554.177,661 554.727,661 555.276,661 555.825,661 556.374,661 556.923,661 557.472,661 558.022,661 558.571,661 559.12,661 559.669,661 560.218,661 560.768,661 561.317,661 561.866,661 562.415,661 562.964,661 563.513,661 564.063,661 564.612,661 565.161,661 565.71,661 566.259,661 566.808,661 567.357,661 567.907,661 568.456,661 569.005,661 569.554,661 570.103,661 570.653,661 571.202,661 571.751,661 572.3,661 572.849,661 573.398,661 573.948,661 574.497,661 575.046,661 575.595,661 576.144,661 576.693,661 577.242,661 577.792,661 578.341,661 578.89,661 579.439,661 579.988,661 580.537,661 581.087,661 581.636,661 582.185,661 582.734,661 583.283,661 583.833,661 584.382,661 584.931,661 585.48,661 586.029,661 586.578,661 587.128,661 587.677,661 588.226,661 588.775,661 589.324,661 589.873,156.833 590.422,156.833 590.972,156.833 591.521,156.833 592.07,156.833 592.619,156.833 593.168,156.833 593.718,156.833 594.267,156.833 594.816,156.833 595.365,156.833 595.914,156.833 596.463,156.833 597.013,156.833 597.562,156.833 598.111,156.833 598.66,156.833 599.209,156.833 599.758,156.833 600.307,156.833 600.857,156.833 601.406,156.833 601.955,156.833 602.504,156.833 603.053,156.833 603.602,156.833 604.152,156.833 604.701,156.833 605.25,156.833 605.799,156.833 606.348,156.833 606.898,156.833 607.447,156.833 607.996,156.833 608.545,156.833 609.094,156.833 609.643,156.833 610.193,156.833 610.742,156.833 611.291,156.833 611.84,156.833 612.389,156.833 612.938,156.833 613.487,156.833 614.037,156.833 614.586,156.833 615.135,156.833 615.684,156.833 616.233,156.833 616.782,156.833 617.332,156.833 617.881,156.833 618.43,156.833 618.979,156.833 619.528,156.833 620.078,156.833 620.627,156.833 621.176,156.833 621.725,156.833 622.274,156.833 622.823,156.833 623.372,156.833 623.922,156.833 624.471,156.833 625.02,156.833 625.569,156.833 626.118,156.833 626.667,156.833 627.217,156.833 627.766,156.833 628.315,156.833 628.864,156.833 629.413,156.833 629.963,156.833 630.512,156.833 631.061,156.833 631.61,156.833 632.159,156.833 632.708,156.833 633.258,156.833 633.807,156.833 634.356,156.833 634.905,156.833 635.454,156.833 636.003,156.833 636.552,156.833 637.102,156.833 637.651,156.833 638.2,156.833 638.749,156.833 639.298,156.833 639.847,156.833 640.397,156.833 640.946,156.833 641.495,156.833 642.044,156.833 642.593,156.833 643.143,156.833 643.692,156.833 644.241,156.833 644.79,156.833 645.339,156.833 645.888,156.833 646.438,156.833 646.987,156.833 647.536,156.833 648.085,156.833 648.634,156.833 649.183,156.833 649.732,156.833 650.282,156.833 650.831,156.833 651.38,156.833 651.929,156.833 652.478,156.833 653.028,156.833 653.577,156.833 654.126,156.833 654.675,156.833 655.224,156.833 655.773,156.833 656.323,156.833 656.872,156.833 657.421,156.833 657.97,156.833 658.519,156.833 659.068,156.833 659.617,156.833 660.167,156.833 660.716,156.833 661.265,156.833 661.814,156.833 662.363,156.833 662.912,156.833 663.462,156.833 664.011,156.833 664.56,156.833 665.109,156.833 665.658,156.833 666.208,156.833 666.757,156.833 667.306,156.833 667.855,156.833 668.404,156.833 668.953,156.833 669.503,156.833 670.052,156.833 670.601,156.833 671.15,156.833 671.699,156.833 672.248,156.833 672.797,156.833 673.347,156.833 " />
</g>
</g>
</svg>
